<svg width="820" height="200" viewBox="0 0 820 200" fill="none" xmlns="http://www.w3.org/2000/svg">
<mask id="path-1-inside-1_69_581361" fill="white">
<path d="M0 0H210.177V200H0V0Z"/>
</mask>
<path d="M210.177 0H214.177V-4H210.177V0ZM210.177 200V204H214.177V200H210.177ZM0 4H210.177V-4H0V4ZM206.177 0V200H214.177V0H206.177ZM210.177 196H0V204H210.177V196Z" fill="black" mask="url(#path-1-inside-1_69_581361)"/>
<mask id="path-3-inside-2_69_581361" fill="white">
<path d="M408.965 0H617.071V200H408.965V0Z"/>
</mask>
<path d="M408.965 0V-4H404.965V0H408.965ZM617.071 0H621.071V-4H617.071V0ZM617.071 200V204H621.071V200H617.071ZM408.965 200H404.965V204H408.965V200ZM408.965 4H617.071V-4H408.965V4ZM613.071 0V200H621.071V0H613.071ZM617.071 196H408.965V204H617.071V196ZM412.965 200V0H404.965V200H412.965Z" fill="black" mask="url(#path-3-inside-2_69_581361)"/>
<mask id="path-5-inside-3_69_581361" fill="white">
<path d="M206.035 0H414.141V200H206.035V0Z"/>
</mask>
<path d="M206.035 0V-4H202.035V0H206.035ZM414.141 0H418.141V-4H414.141V0ZM414.141 200V204H418.141V200H414.141ZM206.035 200H202.035V204H206.035V200ZM206.035 4H414.141V-4H206.035V4ZM410.141 0V200H418.141V0H410.141ZM414.141 196H206.035V204H414.141V196ZM210.035 200V0H202.035V200H210.035Z" fill="black" mask="url(#path-5-inside-3_69_581361)"/>
<mask id="path-7-inside-4_69_581361" fill="white">
<path d="M612.93 0H820V200H612.93V0Z"/>
</mask>
<path d="M612.93 0V-4H608.93V0H612.93ZM612.93 200H608.93V204H612.93V200ZM612.93 4H820V-4H612.93V4ZM820 196H612.93V204H820V196ZM616.93 200V0H608.93V200H616.93Z" fill="black" mask="url(#path-7-inside-4_69_581361)"/>
</svg>
