<svg width="100" height="101" viewBox="0 0 100 101" fill="none" xmlns="http://www.w3.org/2000/svg">
<circle cx="50" cy="50.5547" r="48" fill="white" stroke="black" stroke-width="4"/>
<path d="M51.1914 64.5156H38.1445V35.7266H52.1289C55.6576 35.7786 58.1576 36.8008 59.6289 38.793C60.5143 40.0169 60.957 41.4818 60.957 43.1875C60.957 44.9453 60.5143 46.3581 59.6289 47.4258C59.1341 48.0247 58.4049 48.5716 57.4414 49.0664C58.9128 49.6003 60.0195 50.4466 60.7617 51.6055C61.5169 52.7643 61.8945 54.1706 61.8945 55.8242C61.8945 57.5299 61.4648 59.0599 60.6055 60.4141C60.0586 61.3125 59.375 62.0677 58.5547 62.6797C57.6302 63.3828 56.5365 63.8646 55.2734 64.125C54.0234 64.3854 52.6628 64.5156 51.1914 64.5156ZM51.0547 51.8398H43.8867V59.5156H50.957C52.2201 59.5156 53.2031 59.3464 53.9062 59.0078C55.1823 58.3828 55.8203 57.1849 55.8203 55.4141C55.8203 53.9167 55.2018 52.888 53.9648 52.3281C53.2747 52.0156 52.3047 51.8529 51.0547 51.8398ZM54.043 46.3516C54.8242 45.8828 55.2148 45.043 55.2148 43.832C55.2148 42.4909 54.694 41.6055 53.6523 41.1758C52.7539 40.8763 51.6081 40.7266 50.2148 40.7266H43.8867V47.0742H50.957C52.2201 47.0742 53.2487 46.8333 54.043 46.3516Z" fill="black"/>
</svg>
