<svg width="659" height="592" viewBox="0 0 659 592" fill="none" xmlns="http://www.w3.org/2000/svg">
<circle cx="461.874" cy="337.625" r="18" transform="rotate(-90 461.874 337.625)" fill="white" stroke="black" stroke-width="4"/>
<circle cx="171.624" cy="571.625" r="18" transform="rotate(-90 171.624 571.625)" fill="black" stroke="black" stroke-width="4"/>
<circle cx="20.8738" cy="357.875" r="18" transform="rotate(-90 20.8738 357.875)" fill="black" stroke="black" stroke-width="4"/>
<circle cx="126.624" cy="20.375" r="18" transform="rotate(-90 126.624 20.375)" fill="black" stroke="black" stroke-width="4"/>
<circle cx="360.624" cy="279.125" r="18" transform="rotate(-90 360.624 279.125)" fill="black" stroke="black" stroke-width="4"/>
<circle cx="511.374" cy="563.75" r="18" transform="rotate(-90 511.374 563.75)" fill="black" stroke="black" stroke-width="4"/>
<circle cx="638.999" cy="193" r="18" transform="rotate(-90 638.999 193)" fill="black" stroke="black" stroke-width="4"/>
<circle cx="263.874" cy="351.125" r="18" transform="rotate(-90 263.874 351.125)" fill="black" stroke="black" stroke-width="4"/>
<circle cx="271.749" cy="238.625" r="18" transform="rotate(-90 271.749 238.625)" stroke="black" stroke-width="4"/>
<circle cx="27.9988" cy="200" r="18" transform="rotate(-90 27.9988 200)" fill="white" stroke="black" stroke-width="4"/>
<circle cx="330.499" cy="471.25" r="20.5" transform="rotate(-90 330.499 471.25)" fill="white" stroke="black" stroke-width="4"/>
<circle cx="528.249" cy="437.75" r="18" transform="rotate(-90 528.249 437.75)" stroke="black" stroke-width="4"/>
</svg>
