<svg width="100" height="101" viewBox="0 0 100 101" fill="none" xmlns="http://www.w3.org/2000/svg">
<circle cx="50" cy="50.3359" r="48" fill="white" stroke="black" stroke-width="4"/>
<path d="M58.3594 62.1875C56.2109 64.1536 53.4635 65.1367 50.1172 65.1367C45.9766 65.1367 42.7214 63.8086 40.3516 61.1523C37.9818 58.4831 36.7969 54.8242 36.7969 50.1758C36.7969 45.1497 38.1445 41.276 40.8398 38.5547C43.1836 36.1849 46.1654 35 49.7852 35C54.6289 35 58.1706 36.5885 60.4102 39.7656C61.6471 41.5495 62.3112 43.3398 62.4023 45.1367H56.3867C55.9961 43.7565 55.4948 42.7148 54.8828 42.0117C53.7891 40.7617 52.168 40.1367 50.0195 40.1367C47.832 40.1367 46.1068 41.0221 44.8438 42.793C43.5807 44.5508 42.9492 47.0443 42.9492 50.2734C42.9492 53.5026 43.6133 55.9245 44.9414 57.5391C46.2826 59.1406 47.9818 59.9414 50.0391 59.9414C52.1484 59.9414 53.7565 59.2513 54.8633 57.8711C55.4753 57.1289 55.9831 56.0156 56.3867 54.5312H62.3438C61.8229 57.6693 60.4948 60.2214 58.3594 62.1875Z" fill="black"/>
</svg>
