<svg width="799" height="716" viewBox="0 0 799 716" fill="none" xmlns="http://www.w3.org/2000/svg">
<path d="M165.401 439.585C121.27 484.62 121.27 557.637 165.401 602.672C209.533 647.708 281.083 647.708 325.214 602.672" stroke="black" stroke-width="4"/>
<path d="M632.06 277.382C676.191 232.347 676.191 159.33 632.06 114.295C587.929 69.2593 516.378 69.2593 472.247 114.295" stroke="black" stroke-width="4"/>
<path d="M485.249 458.599C539.298 490.444 557.817 560.973 526.611 616.13C495.406 671.287 426.293 690.185 372.244 658.34" stroke="black" stroke-width="4"/>
<path d="M203.033 157.304C142.749 140.82 80.784 177.328 64.6309 238.847C48.4777 300.367 84.2531 363.601 144.537 380.085" stroke="black" stroke-width="4"/>
<path d="M594.422 561.597C654.707 578.081 716.671 541.573 732.824 480.053C748.978 418.534 713.202 355.3 652.918 338.816" stroke="black" stroke-width="4"/>
<path d="M259.046 263.551L238.183 253.647L240.037 276.667L259.046 263.551ZM148.041 378.872C148.041 322.378 188.525 275.58 241.431 266.97L240.788 263.022C185.92 271.952 144.041 320.444 144.041 378.872L148.041 378.872ZM259.046 492.192C197.778 492.192 148.041 441.495 148.041 378.872L144.041 378.872C144.041 443.627 195.492 496.192 259.046 496.192L259.046 492.192Z" fill="black"/>
<path d="M538.413 454.384L559.276 464.288L557.422 441.268L538.413 454.384ZM649.418 339.064C649.418 395.558 608.934 442.355 556.029 450.965L556.671 454.913C611.54 445.983 653.418 397.491 653.418 339.064H649.418ZM538.413 225.743C599.682 225.743 649.418 276.44 649.418 339.064H653.418C653.418 274.308 601.967 221.743 538.413 221.743V225.743Z" fill="black"/>
<path d="M79.3184 330.054C35.631 407.273 61.557 506.012 137.226 550.595" stroke="black" stroke-width="4"/>
<path d="M719.112 390.782C762.8 313.563 736.874 214.823 661.205 170.241" stroke="black" stroke-width="4"/>
<path d="M292.294 72.6809C232.01 56.1969 170.046 92.7051 153.893 154.224" stroke="black" stroke-width="4"/>
<path d="M501.296 645.254C561.58 661.738 623.545 625.23 639.698 563.711" stroke="black" stroke-width="4"/>
<path d="M310.273 257.401C256.223 225.556 237.705 155.027 268.91 99.8703C300.116 44.7135 369.228 25.8154 423.278 57.6602" stroke="black" stroke-width="4"/>
<path d="M464.646 215.191L462.788 191.983L483.499 202.129L464.646 215.191ZM470.439 198.135C489.761 146.965 470.266 87.6633 422.299 59.4023L424.269 55.9208C473.986 85.2134 494.146 146.644 474.147 199.606L470.439 198.135Z" fill="black"/>
<path d="M330.878 500.81L332.737 524.018L312.026 513.872L330.878 500.81ZM325.085 517.866C305.763 569.036 325.259 628.338 373.226 656.599L371.256 660.08C321.539 630.788 301.379 569.357 321.377 516.395L325.085 517.866Z" fill="black"/>
</svg>
