<svg width="886" height="366" viewBox="0 0 886 366" fill="none" xmlns="http://www.w3.org/2000/svg">
<rect width="366" height="366" fill="white"/>
<rect x="422" width="366" height="366" fill="white"/>
<rect x="781" y="141" width="105" height="48" fill="white"/>
<rect x="14" y="14" width="338" height="338" fill="white" stroke="black" stroke-width="4"/>
<path d="M15.207 15.2031L350.795 350.791M350.795 15.2031L15.207 350.791" stroke="black" stroke-width="4"/>
<rect x="67.4375" y="67.4375" width="231.125" height="231.125" fill="white" stroke="black" stroke-width="4"/>
<path d="M109.359 123.852C107.211 125.818 104.464 126.801 101.117 126.801C96.9766 126.801 93.7214 125.473 91.3516 122.816C88.9818 120.147 87.7969 116.488 87.7969 111.84C87.7969 106.814 89.1445 102.94 91.8398 100.219C94.1836 97.849 97.1654 96.6641 100.785 96.6641C105.629 96.6641 109.171 98.2526 111.41 101.43C112.647 103.214 113.311 105.004 113.402 106.801H107.387C106.996 105.421 106.495 104.379 105.883 103.676C104.789 102.426 103.168 101.801 101.02 101.801C98.832 101.801 97.1068 102.686 95.8438 104.457C94.5807 106.215 93.9492 108.708 93.9492 111.938C93.9492 115.167 94.6133 117.589 95.9414 119.203C97.2826 120.805 98.9818 121.605 101.039 121.605C103.148 121.605 104.757 120.915 105.863 119.535C106.475 118.793 106.983 117.68 107.387 116.195H113.344C112.823 119.333 111.495 121.885 109.359 123.852ZM138.871 97.2109V102.309H130.258V126H124.203V102.309H115.551V97.2109H138.871ZM154.633 114.711H148.422V126H142.543V97.2109H156.664C158.682 97.25 160.232 97.4974 161.312 97.9531C162.406 98.4089 163.331 99.0794 164.086 99.9648C164.711 100.694 165.206 101.501 165.57 102.387C165.935 103.272 166.117 104.281 166.117 105.414C166.117 106.781 165.772 108.129 165.082 109.457C164.392 110.772 163.253 111.703 161.664 112.25C162.992 112.784 163.93 113.546 164.477 114.535C165.036 115.512 165.316 117.009 165.316 119.027V120.961C165.316 122.276 165.368 123.168 165.473 123.637C165.629 124.379 165.993 124.926 166.566 125.277V126H159.945C159.763 125.362 159.633 124.848 159.555 124.457C159.398 123.65 159.314 122.823 159.301 121.977L159.262 119.301C159.236 117.465 158.897 116.241 158.246 115.629C157.608 115.017 156.404 114.711 154.633 114.711ZM158.285 109.477C159.483 108.93 160.082 107.849 160.082 106.234C160.082 104.49 159.503 103.318 158.344 102.719C157.693 102.38 156.716 102.211 155.414 102.211H148.422V109.945H155.238C156.592 109.945 157.608 109.789 158.285 109.477ZM171.312 97.2109H177.328V120.824H191.586V126H171.312V97.2109Z" fill="black"/>
<rect x="436" y="14" width="338" height="338" fill="white" stroke="black" stroke-width="4"/>
<path d="M437.207 15.2031L772.795 350.791M772.795 15.2031L437.207 350.791" stroke="black" stroke-width="4"/>
<rect x="489.437" y="67.4375" width="231.125" height="231.125" fill="white" stroke="black" stroke-width="4"/>
<path d="M537.418 126H515.016V120.922L529.879 102.309H515.387V97.2109H537.379V102.035L522.32 120.922H537.418V126Z" fill="black"/>
<path d="M776 165L886 165" stroke="black" stroke-width="4"/>
</svg>
