<svg width="313" height="296" viewBox="0 0 313 296" fill="none" xmlns="http://www.w3.org/2000/svg">
<mask id="mask0_156_4286" style="mask-type:alpha" maskUnits="userSpaceOnUse" x="0" y="0" width="313" height="296">
<rect width="313" height="296" fill="white"/>
</mask>
<g mask="url(#mask0_156_4286)">
<circle cx="6.5" cy="289.5" r="2.5" transform="rotate(-90 6.5 289.5)" fill="black"/>
<circle cx="6.5" cy="280.5" r="2.5" transform="rotate(-90 6.5 280.5)" fill="black"/>
<circle cx="6.5" cy="270.5" r="2.5" transform="rotate(-90 6.5 270.5)" fill="black"/>
<circle cx="6.5" cy="261.5" r="2.5" transform="rotate(-90 6.5 261.5)" fill="black"/>
<circle cx="6.5" cy="252.5" r="2.5" transform="rotate(-90 6.5 252.5)" fill="black"/>
<circle cx="6.5" cy="242.5" r="2.5" transform="rotate(-90 6.5 242.5)" fill="black"/>
<circle cx="6.5" cy="232.5" r="2.5" transform="rotate(-90 6.5 232.5)" fill="black"/>
<circle cx="6.5" cy="223.5" r="2.5" transform="rotate(-90 6.5 223.5)" fill="black"/>
<circle cx="6.5" cy="213.5" r="2.5" transform="rotate(-90 6.5 213.5)" fill="black"/>
<circle cx="6.5" cy="204.5" r="2.5" transform="rotate(-90 6.5 204.5)" fill="black"/>
<circle cx="6.5" cy="195.5" r="2.5" transform="rotate(-90 6.5 195.5)" fill="black"/>
<circle cx="6.5" cy="185.5" r="2.5" transform="rotate(-90 6.5 185.5)" fill="black"/>
<circle cx="6.5" cy="175.5" r="2.5" transform="rotate(-90 6.5 175.5)" fill="black"/>
<circle cx="6.5" cy="166.5" r="2.5" transform="rotate(-90 6.5 166.5)" fill="black"/>
<circle cx="6.5" cy="156.5" r="2.5" transform="rotate(-90 6.5 156.5)" fill="black"/>
<circle cx="6.5" cy="147.5" r="2.5" transform="rotate(-90 6.5 147.5)" fill="black"/>
<circle cx="6.5" cy="138.5" r="2.5" transform="rotate(-90 6.5 138.5)" fill="black"/>
<circle cx="6.5" cy="128.5" r="2.5" transform="rotate(-90 6.5 128.5)" fill="black"/>
<circle cx="6.5" cy="118.5" r="2.5" transform="rotate(-90 6.5 118.5)" fill="black"/>
<circle cx="6.5" cy="109.5" r="2.5" transform="rotate(-90 6.5 109.5)" fill="black"/>
<circle cx="6.5" cy="99.5" r="2.5" transform="rotate(-90 6.5 99.5)" fill="black"/>
<circle cx="6.5" cy="90.5" r="2.5" transform="rotate(-90 6.5 90.5)" fill="black"/>
<circle cx="6.5" cy="81.5" r="2.5" transform="rotate(-90 6.5 81.5)" fill="black"/>
<circle cx="6.5" cy="71.5" r="2.5" transform="rotate(-90 6.5 71.5)" fill="black"/>
<circle cx="6.5" cy="61.5" r="2.5" transform="rotate(-90 6.5 61.5)" fill="black"/>
<circle cx="6.5" cy="52.5" r="2.5" transform="rotate(-90 6.5 52.5)" fill="black"/>
<circle cx="6.5" cy="42.5" r="2.5" transform="rotate(-90 6.5 42.5)" fill="black"/>
<circle cx="6.5" cy="33.5" r="2.5" transform="rotate(-90 6.5 33.5)" fill="black"/>
<circle cx="6.5" cy="23.5" r="2.5" transform="rotate(-90 6.5 23.5)" fill="black"/>
<circle cx="6.5" cy="14.5" r="2.5" transform="rotate(-90 6.5 14.5)" fill="black"/>
<circle cx="6.5" cy="4.5" r="2.5" transform="rotate(-90 6.5 4.5)" fill="black"/>
<circle cx="15.5" cy="289.5" r="2.5" transform="rotate(-90 15.5 289.5)" fill="black"/>
<circle cx="15.5" cy="280.5" r="2.5" transform="rotate(-90 15.5 280.5)" fill="black"/>
<circle cx="15.5" cy="270.5" r="2.5" transform="rotate(-90 15.5 270.5)" fill="black"/>
<circle cx="15.5" cy="261.5" r="2.5" transform="rotate(-90 15.5 261.5)" fill="black"/>
<circle cx="15.5" cy="252.5" r="2.5" transform="rotate(-90 15.5 252.5)" fill="black"/>
<circle cx="15.5" cy="242.5" r="2.5" transform="rotate(-90 15.5 242.5)" fill="black"/>
<circle cx="15.5" cy="232.5" r="2.5" transform="rotate(-90 15.5 232.5)" fill="black"/>
<circle cx="15.5" cy="223.5" r="2.5" transform="rotate(-90 15.5 223.5)" fill="black"/>
<circle cx="15.5" cy="213.5" r="2.5" transform="rotate(-90 15.5 213.5)" fill="black"/>
<circle cx="15.5" cy="204.5" r="2.5" transform="rotate(-90 15.5 204.5)" fill="black"/>
<circle cx="15.5" cy="195.5" r="2.5" transform="rotate(-90 15.5 195.5)" fill="black"/>
<circle cx="15.5" cy="185.5" r="2.5" transform="rotate(-90 15.5 185.5)" fill="black"/>
<circle cx="15.5" cy="175.5" r="2.5" transform="rotate(-90 15.5 175.5)" fill="black"/>
<circle cx="15.5" cy="166.5" r="2.5" transform="rotate(-90 15.5 166.5)" fill="black"/>
<circle cx="15.5" cy="156.5" r="2.5" transform="rotate(-90 15.5 156.5)" fill="black"/>
<circle cx="15.5" cy="147.5" r="2.5" transform="rotate(-90 15.5 147.5)" fill="black"/>
<circle cx="15.5" cy="138.5" r="2.5" transform="rotate(-90 15.5 138.5)" fill="black"/>
<circle cx="15.5" cy="128.5" r="2.5" transform="rotate(-90 15.5 128.5)" fill="black"/>
<circle cx="15.5" cy="118.5" r="2.5" transform="rotate(-90 15.5 118.5)" fill="black"/>
<circle cx="15.5" cy="109.5" r="2.5" transform="rotate(-90 15.5 109.5)" fill="black"/>
<circle cx="15.5" cy="99.5" r="2.5" transform="rotate(-90 15.5 99.5)" fill="black"/>
<circle cx="15.5" cy="90.5" r="2.5" transform="rotate(-90 15.5 90.5)" fill="black"/>
<circle cx="15.5" cy="81.5" r="2.5" transform="rotate(-90 15.5 81.5)" fill="black"/>
<circle cx="15.5" cy="71.5" r="2.5" transform="rotate(-90 15.5 71.5)" fill="black"/>
<circle cx="15.5" cy="61.5" r="2.5" transform="rotate(-90 15.5 61.5)" fill="black"/>
<circle cx="15.5" cy="52.5" r="2.5" transform="rotate(-90 15.5 52.5)" fill="black"/>
<circle cx="15.5" cy="42.5" r="2.5" transform="rotate(-90 15.5 42.5)" fill="black"/>
<circle cx="15.5" cy="33.5" r="2.5" transform="rotate(-90 15.5 33.5)" fill="black"/>
<circle cx="15.5" cy="23.5" r="2.5" transform="rotate(-90 15.5 23.5)" fill="black"/>
<circle cx="15.5" cy="14.5" r="2.5" transform="rotate(-90 15.5 14.5)" fill="black"/>
<circle cx="15.5" cy="4.5" r="2.5" transform="rotate(-90 15.5 4.5)" fill="black"/>
<circle cx="25.5" cy="289.5" r="2.5" transform="rotate(-90 25.5 289.5)" fill="black"/>
<circle cx="25.5" cy="280.5" r="2.5" transform="rotate(-90 25.5 280.5)" fill="black"/>
<circle cx="25.5" cy="270.5" r="2.5" transform="rotate(-90 25.5 270.5)" fill="black"/>
<circle cx="25.5" cy="261.5" r="2.5" transform="rotate(-90 25.5 261.5)" fill="black"/>
<circle cx="25.5" cy="252.5" r="2.5" transform="rotate(-90 25.5 252.5)" fill="black"/>
<circle cx="25.5" cy="242.5" r="2.5" transform="rotate(-90 25.5 242.5)" fill="black"/>
<circle cx="25.5" cy="232.5" r="2.5" transform="rotate(-90 25.5 232.5)" fill="black"/>
<circle cx="25.5" cy="223.5" r="2.5" transform="rotate(-90 25.5 223.5)" fill="black"/>
<circle cx="25.5" cy="213.5" r="2.5" transform="rotate(-90 25.5 213.5)" fill="black"/>
<circle cx="25.5" cy="204.5" r="2.5" transform="rotate(-90 25.5 204.5)" fill="black"/>
<circle cx="25.5" cy="195.5" r="2.5" transform="rotate(-90 25.5 195.5)" fill="black"/>
<circle cx="25.5" cy="185.5" r="2.5" transform="rotate(-90 25.5 185.5)" fill="black"/>
<circle cx="25.5" cy="175.5" r="2.5" transform="rotate(-90 25.5 175.5)" fill="black"/>
<circle cx="25.5" cy="166.5" r="2.5" transform="rotate(-90 25.5 166.5)" fill="black"/>
<circle cx="25.5" cy="156.5" r="2.5" transform="rotate(-90 25.5 156.5)" fill="black"/>
<circle cx="25.5" cy="147.5" r="2.5" transform="rotate(-90 25.5 147.5)" fill="black"/>
<circle cx="25.5" cy="138.5" r="2.5" transform="rotate(-90 25.5 138.5)" fill="black"/>
<circle cx="25.5" cy="128.5" r="2.5" transform="rotate(-90 25.5 128.5)" fill="black"/>
<circle cx="25.5" cy="118.5" r="2.5" transform="rotate(-90 25.5 118.5)" fill="black"/>
<circle cx="25.5" cy="109.5" r="2.5" transform="rotate(-90 25.5 109.5)" fill="black"/>
<circle cx="25.5" cy="99.5" r="2.5" transform="rotate(-90 25.5 99.5)" fill="black"/>
<circle cx="25.5" cy="90.5" r="2.5" transform="rotate(-90 25.5 90.5)" fill="black"/>
<circle cx="25.5" cy="81.5" r="2.5" transform="rotate(-90 25.5 81.5)" fill="black"/>
<circle cx="25.5" cy="71.5" r="2.5" transform="rotate(-90 25.5 71.5)" fill="black"/>
<circle cx="25.5" cy="61.5" r="2.5" transform="rotate(-90 25.5 61.5)" fill="black"/>
<circle cx="25.5" cy="52.5" r="2.5" transform="rotate(-90 25.5 52.5)" fill="black"/>
<circle cx="25.5" cy="42.5" r="2.5" transform="rotate(-90 25.5 42.5)" fill="black"/>
<circle cx="25.5" cy="33.5" r="2.5" transform="rotate(-90 25.5 33.5)" fill="black"/>
<circle cx="25.5" cy="23.5" r="2.5" transform="rotate(-90 25.5 23.5)" fill="black"/>
<circle cx="25.5" cy="14.5" r="2.5" transform="rotate(-90 25.5 14.5)" fill="black"/>
<circle cx="25.5" cy="4.5" r="2.5" transform="rotate(-90 25.5 4.5)" fill="black"/>
<circle cx="34.5" cy="289.5" r="2.5" transform="rotate(-90 34.5 289.5)" fill="black"/>
<circle cx="34.5" cy="280.5" r="2.5" transform="rotate(-90 34.5 280.5)" fill="black"/>
<circle cx="34.5" cy="270.5" r="2.5" transform="rotate(-90 34.5 270.5)" fill="black"/>
<circle cx="34.5" cy="261.5" r="2.5" transform="rotate(-90 34.5 261.5)" fill="black"/>
<circle cx="34.5" cy="252.5" r="2.5" transform="rotate(-90 34.5 252.5)" fill="black"/>
<circle cx="34.5" cy="242.5" r="2.5" transform="rotate(-90 34.5 242.5)" fill="black"/>
<circle cx="34.5" cy="232.5" r="2.5" transform="rotate(-90 34.5 232.5)" fill="black"/>
<circle cx="34.5" cy="223.5" r="2.5" transform="rotate(-90 34.5 223.5)" fill="black"/>
<circle cx="34.5" cy="213.5" r="2.5" transform="rotate(-90 34.5 213.5)" fill="black"/>
<circle cx="34.5" cy="204.5" r="2.5" transform="rotate(-90 34.5 204.5)" fill="black"/>
<circle cx="34.5" cy="195.5" r="2.5" transform="rotate(-90 34.5 195.5)" fill="black"/>
<circle cx="34.5" cy="185.5" r="2.5" transform="rotate(-90 34.5 185.5)" fill="black"/>
<circle cx="34.5" cy="175.5" r="2.5" transform="rotate(-90 34.5 175.5)" fill="black"/>
<circle cx="34.5" cy="166.5" r="2.5" transform="rotate(-90 34.5 166.5)" fill="black"/>
<circle cx="34.5" cy="156.5" r="2.5" transform="rotate(-90 34.5 156.5)" fill="black"/>
<circle cx="34.5" cy="147.5" r="2.5" transform="rotate(-90 34.5 147.5)" fill="black"/>
<circle cx="34.5" cy="138.5" r="2.5" transform="rotate(-90 34.5 138.5)" fill="black"/>
<circle cx="34.5" cy="128.5" r="2.5" transform="rotate(-90 34.5 128.5)" fill="black"/>
<circle cx="34.5" cy="118.5" r="2.5" transform="rotate(-90 34.5 118.5)" fill="black"/>
<circle cx="34.5" cy="109.5" r="2.5" transform="rotate(-90 34.5 109.5)" fill="black"/>
<circle cx="34.5" cy="99.5" r="2.5" transform="rotate(-90 34.5 99.5)" fill="black"/>
<circle cx="34.5" cy="90.5" r="2.5" transform="rotate(-90 34.5 90.5)" fill="black"/>
<circle cx="34.5" cy="81.5" r="2.5" transform="rotate(-90 34.5 81.5)" fill="black"/>
<circle cx="34.5" cy="71.5" r="2.5" transform="rotate(-90 34.5 71.5)" fill="black"/>
<circle cx="34.5" cy="61.5" r="2.5" transform="rotate(-90 34.5 61.5)" fill="black"/>
<circle cx="34.5" cy="52.5" r="2.5" transform="rotate(-90 34.5 52.5)" fill="black"/>
<circle cx="34.5" cy="42.5" r="2.5" transform="rotate(-90 34.5 42.5)" fill="black"/>
<circle cx="34.5" cy="33.5" r="2.5" transform="rotate(-90 34.5 33.5)" fill="black"/>
<circle cx="34.5" cy="23.5" r="2.5" transform="rotate(-90 34.5 23.5)" fill="black"/>
<circle cx="34.5" cy="14.5" r="2.5" transform="rotate(-90 34.5 14.5)" fill="black"/>
<circle cx="34.5" cy="4.5" r="2.5" transform="rotate(-90 34.5 4.5)" fill="black"/>
<circle cx="44.5" cy="289.5" r="2.5" transform="rotate(-90 44.5 289.5)" fill="black"/>
<circle cx="44.5" cy="280.5" r="2.5" transform="rotate(-90 44.5 280.5)" fill="black"/>
<circle cx="44.5" cy="270.5" r="2.5" transform="rotate(-90 44.5 270.5)" fill="black"/>
<circle cx="44.5" cy="261.5" r="2.5" transform="rotate(-90 44.5 261.5)" fill="black"/>
<circle cx="44.5" cy="252.5" r="2.5" transform="rotate(-90 44.5 252.5)" fill="black"/>
<circle cx="44.5" cy="242.5" r="2.5" transform="rotate(-90 44.5 242.5)" fill="black"/>
<circle cx="44.5" cy="232.5" r="2.5" transform="rotate(-90 44.5 232.5)" fill="black"/>
<circle cx="44.5" cy="223.5" r="2.5" transform="rotate(-90 44.5 223.5)" fill="black"/>
<circle cx="44.5" cy="213.5" r="2.5" transform="rotate(-90 44.5 213.5)" fill="black"/>
<circle cx="44.5" cy="204.5" r="2.5" transform="rotate(-90 44.5 204.5)" fill="black"/>
<circle cx="44.5" cy="195.5" r="2.5" transform="rotate(-90 44.5 195.5)" fill="black"/>
<circle cx="44.5" cy="185.5" r="2.5" transform="rotate(-90 44.5 185.5)" fill="black"/>
<circle cx="44.5" cy="175.5" r="2.5" transform="rotate(-90 44.5 175.5)" fill="black"/>
<circle cx="44.5" cy="166.5" r="2.5" transform="rotate(-90 44.5 166.5)" fill="black"/>
<circle cx="44.5" cy="156.5" r="2.5" transform="rotate(-90 44.5 156.5)" fill="black"/>
<circle cx="44.5" cy="147.5" r="2.5" transform="rotate(-90 44.5 147.5)" fill="black"/>
<circle cx="44.5" cy="138.5" r="2.5" transform="rotate(-90 44.5 138.5)" fill="black"/>
<circle cx="44.5" cy="128.5" r="2.5" transform="rotate(-90 44.5 128.5)" fill="black"/>
<circle cx="44.5" cy="118.5" r="2.5" transform="rotate(-90 44.5 118.5)" fill="black"/>
<circle cx="44.5" cy="109.5" r="2.5" transform="rotate(-90 44.5 109.5)" fill="black"/>
<circle cx="44.5" cy="99.5" r="2.5" transform="rotate(-90 44.5 99.5)" fill="black"/>
<circle cx="44.5" cy="90.5" r="2.5" transform="rotate(-90 44.5 90.5)" fill="black"/>
<circle cx="44.5" cy="81.5" r="2.5" transform="rotate(-90 44.5 81.5)" fill="black"/>
<circle cx="44.5" cy="71.5" r="2.5" transform="rotate(-90 44.5 71.5)" fill="black"/>
<circle cx="44.5" cy="61.5" r="2.5" transform="rotate(-90 44.5 61.5)" fill="black"/>
<circle cx="44.5" cy="52.5" r="2.5" transform="rotate(-90 44.5 52.5)" fill="black"/>
<circle cx="44.5" cy="42.5" r="2.5" transform="rotate(-90 44.5 42.5)" fill="black"/>
<circle cx="44.5" cy="33.5" r="2.5" transform="rotate(-90 44.5 33.5)" fill="black"/>
<circle cx="44.5" cy="23.5" r="2.5" transform="rotate(-90 44.5 23.5)" fill="black"/>
<circle cx="44.5" cy="14.5" r="2.5" transform="rotate(-90 44.5 14.5)" fill="black"/>
<circle cx="44.5" cy="4.5" r="2.5" transform="rotate(-90 44.5 4.5)" fill="black"/>
<circle cx="53.5" cy="289.5" r="2.5" transform="rotate(-90 53.5 289.5)" fill="black"/>
<circle cx="53.5" cy="280.5" r="2.5" transform="rotate(-90 53.5 280.5)" fill="black"/>
<circle cx="53.5" cy="270.5" r="2.5" transform="rotate(-90 53.5 270.5)" fill="black"/>
<circle cx="53.5" cy="261.5" r="2.5" transform="rotate(-90 53.5 261.5)" fill="black"/>
<circle cx="53.5" cy="252.5" r="2.5" transform="rotate(-90 53.5 252.5)" fill="black"/>
<circle cx="53.5" cy="242.5" r="2.5" transform="rotate(-90 53.5 242.5)" fill="black"/>
<circle cx="53.5" cy="232.5" r="2.5" transform="rotate(-90 53.5 232.5)" fill="black"/>
<circle cx="53.5" cy="223.5" r="2.5" transform="rotate(-90 53.5 223.5)" fill="black"/>
<circle cx="53.5" cy="213.5" r="2.5" transform="rotate(-90 53.5 213.5)" fill="black"/>
<circle cx="53.5" cy="204.5" r="2.5" transform="rotate(-90 53.5 204.5)" fill="black"/>
<circle cx="53.5" cy="195.5" r="2.5" transform="rotate(-90 53.5 195.5)" fill="black"/>
<circle cx="53.5" cy="185.5" r="2.5" transform="rotate(-90 53.5 185.5)" fill="black"/>
<circle cx="53.5" cy="175.5" r="2.5" transform="rotate(-90 53.5 175.5)" fill="black"/>
<circle cx="53.5" cy="166.5" r="2.5" transform="rotate(-90 53.5 166.5)" fill="black"/>
<circle cx="53.5" cy="156.5" r="2.5" transform="rotate(-90 53.5 156.5)" fill="black"/>
<circle cx="53.5" cy="147.5" r="2.5" transform="rotate(-90 53.5 147.5)" fill="black"/>
<circle cx="53.5" cy="138.5" r="2.5" transform="rotate(-90 53.5 138.5)" fill="black"/>
<circle cx="53.5" cy="128.5" r="2.5" transform="rotate(-90 53.5 128.5)" fill="black"/>
<circle cx="53.5" cy="118.5" r="2.5" transform="rotate(-90 53.5 118.5)" fill="black"/>
<circle cx="53.5" cy="109.5" r="2.5" transform="rotate(-90 53.5 109.5)" fill="black"/>
<circle cx="53.5" cy="99.5" r="2.5" transform="rotate(-90 53.5 99.5)" fill="black"/>
<circle cx="53.5" cy="90.5" r="2.5" transform="rotate(-90 53.5 90.5)" fill="black"/>
<circle cx="53.5" cy="81.5" r="2.5" transform="rotate(-90 53.5 81.5)" fill="black"/>
<circle cx="53.5" cy="71.5" r="2.5" transform="rotate(-90 53.5 71.5)" fill="black"/>
<circle cx="53.5" cy="61.5" r="2.5" transform="rotate(-90 53.5 61.5)" fill="black"/>
<circle cx="53.5" cy="52.5" r="2.5" transform="rotate(-90 53.5 52.5)" fill="black"/>
<circle cx="53.5" cy="42.5" r="2.5" transform="rotate(-90 53.5 42.5)" fill="black"/>
<circle cx="53.5" cy="33.5" r="2.5" transform="rotate(-90 53.5 33.5)" fill="black"/>
<circle cx="53.5" cy="23.5" r="2.5" transform="rotate(-90 53.5 23.5)" fill="black"/>
<circle cx="53.5" cy="14.5" r="2.5" transform="rotate(-90 53.5 14.5)" fill="black"/>
<circle cx="53.5" cy="4.5" r="2.5" transform="rotate(-90 53.5 4.5)" fill="black"/>
<circle cx="63.5" cy="289.5" r="2.5" transform="rotate(-90 63.5 289.5)" fill="black"/>
<circle cx="63.5" cy="280.5" r="2.5" transform="rotate(-90 63.5 280.5)" fill="black"/>
<circle cx="63.5" cy="270.5" r="2.5" transform="rotate(-90 63.5 270.5)" fill="black"/>
<circle cx="63.5" cy="261.5" r="2.5" transform="rotate(-90 63.5 261.5)" fill="black"/>
<circle cx="63.5" cy="252.5" r="2.5" transform="rotate(-90 63.5 252.5)" fill="black"/>
<circle cx="63.5" cy="242.5" r="2.5" transform="rotate(-90 63.5 242.5)" fill="black"/>
<circle cx="63.5" cy="232.5" r="2.5" transform="rotate(-90 63.5 232.5)" fill="black"/>
<circle cx="63.5" cy="223.5" r="2.5" transform="rotate(-90 63.5 223.5)" fill="black"/>
<circle cx="63.5" cy="213.5" r="2.5" transform="rotate(-90 63.5 213.5)" fill="black"/>
<circle cx="63.5" cy="204.5" r="2.5" transform="rotate(-90 63.5 204.5)" fill="black"/>
<circle cx="63.5" cy="195.5" r="2.5" transform="rotate(-90 63.5 195.5)" fill="black"/>
<circle cx="63.5" cy="185.5" r="2.5" transform="rotate(-90 63.5 185.5)" fill="black"/>
<circle cx="63.5" cy="175.5" r="2.5" transform="rotate(-90 63.5 175.5)" fill="black"/>
<circle cx="63.5" cy="166.5" r="2.5" transform="rotate(-90 63.5 166.5)" fill="black"/>
<circle cx="63.5" cy="156.5" r="2.5" transform="rotate(-90 63.5 156.5)" fill="black"/>
<circle cx="63.5" cy="147.5" r="2.5" transform="rotate(-90 63.5 147.5)" fill="black"/>
<circle cx="63.5" cy="138.5" r="2.5" transform="rotate(-90 63.5 138.5)" fill="black"/>
<circle cx="63.5" cy="128.5" r="2.5" transform="rotate(-90 63.5 128.5)" fill="black"/>
<circle cx="63.5" cy="118.5" r="2.5" transform="rotate(-90 63.5 118.5)" fill="black"/>
<circle cx="63.5" cy="109.5" r="2.5" transform="rotate(-90 63.5 109.5)" fill="black"/>
<circle cx="63.5" cy="99.5" r="2.5" transform="rotate(-90 63.5 99.5)" fill="black"/>
<circle cx="63.5" cy="90.5" r="2.5" transform="rotate(-90 63.5 90.5)" fill="black"/>
<circle cx="63.5" cy="81.5" r="2.5" transform="rotate(-90 63.5 81.5)" fill="black"/>
<circle cx="63.5" cy="71.5" r="2.5" transform="rotate(-90 63.5 71.5)" fill="black"/>
<circle cx="63.5" cy="61.5" r="2.5" transform="rotate(-90 63.5 61.5)" fill="black"/>
<circle cx="63.5" cy="52.5" r="2.5" transform="rotate(-90 63.5 52.5)" fill="black"/>
<circle cx="63.5" cy="42.5" r="2.5" transform="rotate(-90 63.5 42.5)" fill="black"/>
<circle cx="63.5" cy="33.5" r="2.5" transform="rotate(-90 63.5 33.5)" fill="black"/>
<circle cx="63.5" cy="23.5" r="2.5" transform="rotate(-90 63.5 23.5)" fill="black"/>
<circle cx="63.5" cy="14.5" r="2.5" transform="rotate(-90 63.5 14.5)" fill="black"/>
<circle cx="63.5" cy="4.5" r="2.5" transform="rotate(-90 63.5 4.5)" fill="black"/>
<circle cx="72.5" cy="289.5" r="2.5" transform="rotate(-90 72.5 289.5)" fill="black"/>
<circle cx="72.5" cy="280.5" r="2.5" transform="rotate(-90 72.5 280.5)" fill="black"/>
<circle cx="72.5" cy="270.5" r="2.5" transform="rotate(-90 72.5 270.5)" fill="black"/>
<circle cx="72.5" cy="261.5" r="2.5" transform="rotate(-90 72.5 261.5)" fill="black"/>
<circle cx="72.5" cy="252.5" r="2.5" transform="rotate(-90 72.5 252.5)" fill="black"/>
<circle cx="72.5" cy="242.5" r="2.5" transform="rotate(-90 72.5 242.5)" fill="black"/>
<circle cx="72.5" cy="232.5" r="2.5" transform="rotate(-90 72.5 232.5)" fill="black"/>
<circle cx="72.5" cy="223.5" r="2.5" transform="rotate(-90 72.5 223.5)" fill="black"/>
<circle cx="72.5" cy="213.5" r="2.5" transform="rotate(-90 72.5 213.5)" fill="black"/>
<circle cx="72.5" cy="204.5" r="2.5" transform="rotate(-90 72.5 204.5)" fill="black"/>
<circle cx="72.5" cy="195.5" r="2.5" transform="rotate(-90 72.5 195.5)" fill="black"/>
<circle cx="72.5" cy="185.5" r="2.5" transform="rotate(-90 72.5 185.5)" fill="black"/>
<circle cx="72.5" cy="175.5" r="2.5" transform="rotate(-90 72.5 175.5)" fill="black"/>
<circle cx="72.5" cy="166.5" r="2.5" transform="rotate(-90 72.5 166.5)" fill="black"/>
<circle cx="72.5" cy="156.5" r="2.5" transform="rotate(-90 72.5 156.5)" fill="black"/>
<circle cx="72.5" cy="147.5" r="2.5" transform="rotate(-90 72.5 147.5)" fill="black"/>
<circle cx="72.5" cy="138.5" r="2.5" transform="rotate(-90 72.5 138.5)" fill="black"/>
<circle cx="72.5" cy="128.5" r="2.5" transform="rotate(-90 72.5 128.5)" fill="black"/>
<circle cx="72.5" cy="118.5" r="2.5" transform="rotate(-90 72.5 118.5)" fill="black"/>
<circle cx="72.5" cy="109.5" r="2.5" transform="rotate(-90 72.5 109.5)" fill="black"/>
<circle cx="72.5" cy="99.5" r="2.5" transform="rotate(-90 72.5 99.5)" fill="black"/>
<circle cx="72.5" cy="90.5" r="2.5" transform="rotate(-90 72.5 90.5)" fill="black"/>
<circle cx="72.5" cy="81.5" r="2.5" transform="rotate(-90 72.5 81.5)" fill="black"/>
<circle cx="72.5" cy="71.5" r="2.5" transform="rotate(-90 72.5 71.5)" fill="black"/>
<circle cx="72.5" cy="61.5" r="2.5" transform="rotate(-90 72.5 61.5)" fill="black"/>
<circle cx="72.5" cy="52.5" r="2.5" transform="rotate(-90 72.5 52.5)" fill="black"/>
<circle cx="72.5" cy="42.5" r="2.5" transform="rotate(-90 72.5 42.5)" fill="black"/>
<circle cx="72.5" cy="33.5" r="2.5" transform="rotate(-90 72.5 33.5)" fill="black"/>
<circle cx="72.5" cy="23.5" r="2.5" transform="rotate(-90 72.5 23.5)" fill="black"/>
<circle cx="72.5" cy="14.5" r="2.5" transform="rotate(-90 72.5 14.5)" fill="black"/>
<circle cx="72.5" cy="4.5" r="2.5" transform="rotate(-90 72.5 4.5)" fill="black"/>
<circle cx="82.5" cy="289.5" r="2.5" transform="rotate(-90 82.5 289.5)" fill="black"/>
<circle cx="82.5" cy="280.5" r="2.5" transform="rotate(-90 82.5 280.5)" fill="black"/>
<circle cx="82.5" cy="270.5" r="2.5" transform="rotate(-90 82.5 270.5)" fill="black"/>
<circle cx="82.5" cy="261.5" r="2.5" transform="rotate(-90 82.5 261.5)" fill="black"/>
<circle cx="82.5" cy="252.5" r="2.5" transform="rotate(-90 82.5 252.5)" fill="black"/>
<circle cx="82.5" cy="242.5" r="2.5" transform="rotate(-90 82.5 242.5)" fill="black"/>
<circle cx="82.5" cy="232.5" r="2.5" transform="rotate(-90 82.5 232.5)" fill="black"/>
<circle cx="82.5" cy="223.5" r="2.5" transform="rotate(-90 82.5 223.5)" fill="black"/>
<circle cx="82.5" cy="213.5" r="2.5" transform="rotate(-90 82.5 213.5)" fill="black"/>
<circle cx="82.5" cy="204.5" r="2.5" transform="rotate(-90 82.5 204.5)" fill="black"/>
<circle cx="82.5" cy="195.5" r="2.5" transform="rotate(-90 82.5 195.5)" fill="black"/>
<circle cx="82.5" cy="185.5" r="2.5" transform="rotate(-90 82.5 185.5)" fill="black"/>
<circle cx="82.5" cy="175.5" r="2.5" transform="rotate(-90 82.5 175.5)" fill="black"/>
<circle cx="82.5" cy="166.5" r="2.5" transform="rotate(-90 82.5 166.5)" fill="black"/>
<circle cx="82.5" cy="156.5" r="2.5" transform="rotate(-90 82.5 156.5)" fill="black"/>
<circle cx="82.5" cy="147.5" r="2.5" transform="rotate(-90 82.5 147.5)" fill="black"/>
<circle cx="82.5" cy="138.5" r="2.5" transform="rotate(-90 82.5 138.5)" fill="black"/>
<circle cx="82.5" cy="128.5" r="2.5" transform="rotate(-90 82.5 128.5)" fill="black"/>
<circle cx="82.5" cy="118.5" r="2.5" transform="rotate(-90 82.5 118.5)" fill="black"/>
<circle cx="82.5" cy="109.5" r="2.5" transform="rotate(-90 82.5 109.5)" fill="black"/>
<circle cx="82.5" cy="99.5" r="2.5" transform="rotate(-90 82.5 99.5)" fill="black"/>
<circle cx="82.5" cy="90.5" r="2.5" transform="rotate(-90 82.5 90.5)" fill="black"/>
<circle cx="82.5" cy="81.5" r="2.5" transform="rotate(-90 82.5 81.5)" fill="black"/>
<circle cx="82.5" cy="71.5" r="2.5" transform="rotate(-90 82.5 71.5)" fill="black"/>
<circle cx="82.5" cy="61.5" r="2.5" transform="rotate(-90 82.5 61.5)" fill="black"/>
<circle cx="82.5" cy="52.5" r="2.5" transform="rotate(-90 82.5 52.5)" fill="black"/>
<circle cx="82.5" cy="42.5" r="2.5" transform="rotate(-90 82.5 42.5)" fill="black"/>
<circle cx="82.5" cy="33.5" r="2.5" transform="rotate(-90 82.5 33.5)" fill="black"/>
<circle cx="82.5" cy="23.5" r="2.5" transform="rotate(-90 82.5 23.5)" fill="black"/>
<circle cx="82.5" cy="14.5" r="2.5" transform="rotate(-90 82.5 14.5)" fill="black"/>
<circle cx="82.5" cy="4.5" r="2.5" transform="rotate(-90 82.5 4.5)" fill="black"/>
<circle cx="91.5" cy="289.5" r="2.5" transform="rotate(-90 91.5 289.5)" fill="black"/>
<circle cx="91.5" cy="280.5" r="2.5" transform="rotate(-90 91.5 280.5)" fill="black"/>
<circle cx="91.5" cy="270.5" r="2.5" transform="rotate(-90 91.5 270.5)" fill="black"/>
<circle cx="91.5" cy="261.5" r="2.5" transform="rotate(-90 91.5 261.5)" fill="black"/>
<circle cx="91.5" cy="252.5" r="2.5" transform="rotate(-90 91.5 252.5)" fill="black"/>
<circle cx="91.5" cy="242.5" r="2.5" transform="rotate(-90 91.5 242.5)" fill="black"/>
<circle cx="91.5" cy="232.5" r="2.5" transform="rotate(-90 91.5 232.5)" fill="black"/>
<circle cx="91.5" cy="223.5" r="2.5" transform="rotate(-90 91.5 223.5)" fill="black"/>
<circle cx="91.5" cy="213.5" r="2.5" transform="rotate(-90 91.5 213.5)" fill="black"/>
<circle cx="91.5" cy="204.5" r="2.5" transform="rotate(-90 91.5 204.5)" fill="black"/>
<circle cx="91.5" cy="195.5" r="2.5" transform="rotate(-90 91.5 195.5)" fill="black"/>
<circle cx="91.5" cy="185.5" r="2.5" transform="rotate(-90 91.5 185.5)" fill="black"/>
<circle cx="91.5" cy="175.5" r="2.5" transform="rotate(-90 91.5 175.5)" fill="black"/>
<circle cx="91.5" cy="166.5" r="2.5" transform="rotate(-90 91.5 166.5)" fill="black"/>
<circle cx="91.5" cy="156.5" r="2.5" transform="rotate(-90 91.5 156.5)" fill="black"/>
<circle cx="91.5" cy="147.5" r="2.5" transform="rotate(-90 91.5 147.5)" fill="black"/>
<circle cx="91.5" cy="138.5" r="2.5" transform="rotate(-90 91.5 138.5)" fill="black"/>
<circle cx="91.5" cy="128.5" r="2.5" transform="rotate(-90 91.5 128.5)" fill="black"/>
<circle cx="91.5" cy="118.5" r="2.5" transform="rotate(-90 91.5 118.5)" fill="black"/>
<circle cx="91.5" cy="109.5" r="2.5" transform="rotate(-90 91.5 109.5)" fill="black"/>
<circle cx="91.5" cy="99.5" r="2.5" transform="rotate(-90 91.5 99.5)" fill="black"/>
<circle cx="91.5" cy="90.5" r="2.5" transform="rotate(-90 91.5 90.5)" fill="black"/>
<circle cx="91.5" cy="81.5" r="2.5" transform="rotate(-90 91.5 81.5)" fill="black"/>
<circle cx="91.5" cy="71.5" r="2.5" transform="rotate(-90 91.5 71.5)" fill="black"/>
<circle cx="91.5" cy="61.5" r="2.5" transform="rotate(-90 91.5 61.5)" fill="black"/>
<circle cx="91.5" cy="52.5" r="2.5" transform="rotate(-90 91.5 52.5)" fill="black"/>
<circle cx="91.5" cy="42.5" r="2.5" transform="rotate(-90 91.5 42.5)" fill="black"/>
<circle cx="91.5" cy="33.5" r="2.5" transform="rotate(-90 91.5 33.5)" fill="black"/>
<circle cx="91.5" cy="23.5" r="2.5" transform="rotate(-90 91.5 23.5)" fill="black"/>
<circle cx="91.5" cy="14.5" r="2.5" transform="rotate(-90 91.5 14.5)" fill="black"/>
<circle cx="91.5" cy="4.5" r="2.5" transform="rotate(-90 91.5 4.5)" fill="black"/>
<circle cx="101.5" cy="289.5" r="2.5" transform="rotate(-90 101.5 289.5)" fill="black"/>
<circle cx="101.5" cy="280.5" r="2.5" transform="rotate(-90 101.5 280.5)" fill="black"/>
<circle cx="101.5" cy="270.5" r="2.5" transform="rotate(-90 101.5 270.5)" fill="black"/>
<circle cx="101.5" cy="261.5" r="2.5" transform="rotate(-90 101.5 261.5)" fill="black"/>
<circle cx="101.5" cy="252.5" r="2.5" transform="rotate(-90 101.5 252.5)" fill="black"/>
<circle cx="101.5" cy="242.5" r="2.5" transform="rotate(-90 101.5 242.5)" fill="black"/>
<circle cx="101.5" cy="232.5" r="2.5" transform="rotate(-90 101.5 232.5)" fill="black"/>
<circle cx="101.5" cy="223.5" r="2.5" transform="rotate(-90 101.5 223.5)" fill="black"/>
<circle cx="101.5" cy="213.5" r="2.5" transform="rotate(-90 101.5 213.5)" fill="black"/>
<circle cx="101.5" cy="204.5" r="2.5" transform="rotate(-90 101.5 204.5)" fill="black"/>
<circle cx="101.5" cy="195.5" r="2.5" transform="rotate(-90 101.5 195.5)" fill="black"/>
<circle cx="101.5" cy="185.5" r="2.5" transform="rotate(-90 101.5 185.5)" fill="black"/>
<circle cx="101.5" cy="175.5" r="2.5" transform="rotate(-90 101.5 175.5)" fill="black"/>
<circle cx="101.5" cy="166.5" r="2.5" transform="rotate(-90 101.5 166.5)" fill="black"/>
<circle cx="101.5" cy="156.5" r="2.5" transform="rotate(-90 101.5 156.5)" fill="black"/>
<circle cx="101.5" cy="147.5" r="2.5" transform="rotate(-90 101.5 147.5)" fill="black"/>
<circle cx="101.5" cy="138.5" r="2.5" transform="rotate(-90 101.5 138.5)" fill="black"/>
<circle cx="101.5" cy="128.5" r="2.5" transform="rotate(-90 101.5 128.5)" fill="black"/>
<circle cx="101.5" cy="118.5" r="2.5" transform="rotate(-90 101.5 118.5)" fill="black"/>
<circle cx="101.5" cy="109.5" r="2.5" transform="rotate(-90 101.5 109.5)" fill="black"/>
<circle cx="101.5" cy="99.5" r="2.5" transform="rotate(-90 101.5 99.5)" fill="black"/>
<circle cx="101.5" cy="90.5" r="2.5" transform="rotate(-90 101.5 90.5)" fill="black"/>
<circle cx="101.5" cy="81.5" r="2.5" transform="rotate(-90 101.5 81.5)" fill="black"/>
<circle cx="101.5" cy="71.5" r="2.5" transform="rotate(-90 101.5 71.5)" fill="black"/>
<circle cx="101.5" cy="61.5" r="2.5" transform="rotate(-90 101.5 61.5)" fill="black"/>
<circle cx="101.5" cy="52.5" r="2.5" transform="rotate(-90 101.5 52.5)" fill="black"/>
<circle cx="101.5" cy="42.5" r="2.5" transform="rotate(-90 101.5 42.5)" fill="black"/>
<circle cx="101.5" cy="33.5" r="2.5" transform="rotate(-90 101.5 33.5)" fill="black"/>
<circle cx="101.5" cy="23.5" r="2.5" transform="rotate(-90 101.5 23.5)" fill="black"/>
<circle cx="101.5" cy="14.5" r="2.5" transform="rotate(-90 101.5 14.5)" fill="black"/>
<circle cx="101.5" cy="4.5" r="2.5" transform="rotate(-90 101.5 4.5)" fill="black"/>
<circle cx="110.5" cy="289.5" r="2.5" transform="rotate(-90 110.5 289.5)" fill="black"/>
<circle cx="110.5" cy="280.5" r="2.5" transform="rotate(-90 110.5 280.5)" fill="black"/>
<circle cx="110.5" cy="270.5" r="2.5" transform="rotate(-90 110.5 270.5)" fill="black"/>
<circle cx="110.5" cy="261.5" r="2.5" transform="rotate(-90 110.5 261.5)" fill="black"/>
<circle cx="110.5" cy="252.5" r="2.5" transform="rotate(-90 110.5 252.5)" fill="black"/>
<circle cx="110.5" cy="242.5" r="2.5" transform="rotate(-90 110.5 242.5)" fill="black"/>
<circle cx="110.5" cy="232.5" r="2.5" transform="rotate(-90 110.5 232.5)" fill="black"/>
<circle cx="110.5" cy="223.5" r="2.5" transform="rotate(-90 110.5 223.5)" fill="black"/>
<circle cx="110.5" cy="213.5" r="2.5" transform="rotate(-90 110.5 213.5)" fill="black"/>
<circle cx="110.5" cy="204.5" r="2.5" transform="rotate(-90 110.5 204.5)" fill="black"/>
<circle cx="110.5" cy="195.5" r="2.5" transform="rotate(-90 110.5 195.5)" fill="black"/>
<circle cx="110.5" cy="185.5" r="2.5" transform="rotate(-90 110.5 185.5)" fill="black"/>
<circle cx="110.5" cy="175.5" r="2.5" transform="rotate(-90 110.5 175.5)" fill="black"/>
<circle cx="110.5" cy="166.5" r="2.5" transform="rotate(-90 110.5 166.5)" fill="black"/>
<circle cx="110.5" cy="156.5" r="2.5" transform="rotate(-90 110.5 156.5)" fill="black"/>
<circle cx="110.5" cy="147.5" r="2.5" transform="rotate(-90 110.5 147.5)" fill="black"/>
<circle cx="110.5" cy="138.5" r="2.5" transform="rotate(-90 110.5 138.5)" fill="black"/>
<circle cx="110.5" cy="128.5" r="2.5" transform="rotate(-90 110.5 128.5)" fill="black"/>
<circle cx="110.5" cy="118.5" r="2.5" transform="rotate(-90 110.5 118.5)" fill="black"/>
<circle cx="110.5" cy="109.5" r="2.5" transform="rotate(-90 110.5 109.5)" fill="black"/>
<circle cx="110.5" cy="99.5" r="2.5" transform="rotate(-90 110.5 99.5)" fill="black"/>
<circle cx="110.5" cy="90.5" r="2.5" transform="rotate(-90 110.5 90.5)" fill="black"/>
<circle cx="110.5" cy="81.5" r="2.5" transform="rotate(-90 110.5 81.5)" fill="black"/>
<circle cx="110.5" cy="71.5" r="2.5" transform="rotate(-90 110.5 71.5)" fill="black"/>
<circle cx="110.5" cy="61.5" r="2.5" transform="rotate(-90 110.5 61.5)" fill="black"/>
<circle cx="110.5" cy="52.5" r="2.5" transform="rotate(-90 110.5 52.5)" fill="black"/>
<circle cx="110.5" cy="42.5" r="2.5" transform="rotate(-90 110.5 42.5)" fill="black"/>
<circle cx="110.5" cy="33.5" r="2.5" transform="rotate(-90 110.5 33.5)" fill="black"/>
<circle cx="110.5" cy="23.5" r="2.5" transform="rotate(-90 110.5 23.5)" fill="black"/>
<circle cx="110.5" cy="14.5" r="2.5" transform="rotate(-90 110.5 14.5)" fill="black"/>
<circle cx="110.5" cy="4.5" r="2.5" transform="rotate(-90 110.5 4.5)" fill="black"/>
<circle cx="119.5" cy="289.5" r="2.5" transform="rotate(-90 119.5 289.5)" fill="black"/>
<circle cx="119.5" cy="280.5" r="2.5" transform="rotate(-90 119.5 280.5)" fill="black"/>
<circle cx="119.5" cy="270.5" r="2.5" transform="rotate(-90 119.5 270.5)" fill="black"/>
<circle cx="119.5" cy="261.5" r="2.5" transform="rotate(-90 119.5 261.5)" fill="black"/>
<circle cx="119.5" cy="252.5" r="2.5" transform="rotate(-90 119.5 252.5)" fill="black"/>
<circle cx="119.5" cy="242.5" r="2.5" transform="rotate(-90 119.5 242.5)" fill="black"/>
<circle cx="119.5" cy="232.5" r="2.5" transform="rotate(-90 119.5 232.5)" fill="black"/>
<circle cx="119.5" cy="223.5" r="2.5" transform="rotate(-90 119.5 223.5)" fill="black"/>
<circle cx="119.5" cy="213.5" r="2.5" transform="rotate(-90 119.5 213.5)" fill="black"/>
<circle cx="119.5" cy="204.5" r="2.5" transform="rotate(-90 119.5 204.5)" fill="black"/>
<circle cx="119.5" cy="195.5" r="2.5" transform="rotate(-90 119.5 195.5)" fill="black"/>
<circle cx="119.5" cy="185.5" r="2.5" transform="rotate(-90 119.5 185.5)" fill="black"/>
<circle cx="119.5" cy="175.5" r="2.5" transform="rotate(-90 119.5 175.5)" fill="black"/>
<circle cx="119.5" cy="166.5" r="2.5" transform="rotate(-90 119.5 166.5)" fill="black"/>
<circle cx="119.5" cy="156.5" r="2.5" transform="rotate(-90 119.5 156.5)" fill="black"/>
<circle cx="119.5" cy="147.5" r="2.5" transform="rotate(-90 119.5 147.5)" fill="black"/>
<circle cx="119.5" cy="138.5" r="2.5" transform="rotate(-90 119.5 138.5)" fill="black"/>
<circle cx="119.5" cy="128.5" r="2.5" transform="rotate(-90 119.5 128.5)" fill="black"/>
<circle cx="119.5" cy="118.5" r="2.5" transform="rotate(-90 119.5 118.5)" fill="black"/>
<circle cx="119.5" cy="109.5" r="2.5" transform="rotate(-90 119.5 109.5)" fill="black"/>
<circle cx="119.5" cy="99.5" r="2.5" transform="rotate(-90 119.5 99.5)" fill="black"/>
<circle cx="119.5" cy="90.5" r="2.5" transform="rotate(-90 119.5 90.5)" fill="black"/>
<circle cx="119.5" cy="81.5" r="2.5" transform="rotate(-90 119.5 81.5)" fill="black"/>
<circle cx="119.5" cy="71.5" r="2.5" transform="rotate(-90 119.5 71.5)" fill="black"/>
<circle cx="119.5" cy="61.5" r="2.5" transform="rotate(-90 119.5 61.5)" fill="black"/>
<circle cx="119.5" cy="52.5" r="2.5" transform="rotate(-90 119.5 52.5)" fill="black"/>
<circle cx="119.5" cy="42.5" r="2.5" transform="rotate(-90 119.5 42.5)" fill="black"/>
<circle cx="119.5" cy="33.5" r="2.5" transform="rotate(-90 119.5 33.5)" fill="black"/>
<circle cx="119.5" cy="23.5" r="2.5" transform="rotate(-90 119.5 23.5)" fill="black"/>
<circle cx="119.5" cy="14.5" r="2.5" transform="rotate(-90 119.5 14.5)" fill="black"/>
<circle cx="119.5" cy="4.5" r="2.5" transform="rotate(-90 119.5 4.5)" fill="black"/>
<circle cx="129.5" cy="289.5" r="2.5" transform="rotate(-90 129.5 289.5)" fill="black"/>
<circle cx="129.5" cy="280.5" r="2.5" transform="rotate(-90 129.5 280.5)" fill="black"/>
<circle cx="129.5" cy="270.5" r="2.5" transform="rotate(-90 129.5 270.5)" fill="black"/>
<circle cx="129.5" cy="261.5" r="2.5" transform="rotate(-90 129.5 261.5)" fill="black"/>
<circle cx="129.5" cy="252.5" r="2.5" transform="rotate(-90 129.5 252.5)" fill="black"/>
<circle cx="129.5" cy="242.5" r="2.5" transform="rotate(-90 129.5 242.5)" fill="black"/>
<circle cx="129.5" cy="232.5" r="2.5" transform="rotate(-90 129.5 232.5)" fill="black"/>
<circle cx="129.5" cy="223.5" r="2.5" transform="rotate(-90 129.5 223.5)" fill="black"/>
<circle cx="129.5" cy="213.5" r="2.5" transform="rotate(-90 129.5 213.5)" fill="black"/>
<circle cx="129.5" cy="204.5" r="2.5" transform="rotate(-90 129.5 204.5)" fill="black"/>
<circle cx="129.5" cy="195.5" r="2.5" transform="rotate(-90 129.5 195.5)" fill="black"/>
<circle cx="129.5" cy="185.5" r="2.5" transform="rotate(-90 129.5 185.5)" fill="black"/>
<circle cx="129.5" cy="175.5" r="2.5" transform="rotate(-90 129.5 175.5)" fill="black"/>
<circle cx="129.5" cy="166.5" r="2.5" transform="rotate(-90 129.5 166.5)" fill="black"/>
<circle cx="129.5" cy="156.5" r="2.5" transform="rotate(-90 129.5 156.5)" fill="black"/>
<circle cx="129.5" cy="147.5" r="2.5" transform="rotate(-90 129.5 147.5)" fill="black"/>
<circle cx="129.5" cy="138.5" r="2.5" transform="rotate(-90 129.5 138.5)" fill="black"/>
<circle cx="129.5" cy="128.5" r="2.5" transform="rotate(-90 129.5 128.5)" fill="black"/>
<circle cx="129.5" cy="118.5" r="2.5" transform="rotate(-90 129.5 118.5)" fill="black"/>
<circle cx="129.5" cy="109.5" r="2.5" transform="rotate(-90 129.5 109.5)" fill="black"/>
<circle cx="129.5" cy="99.5" r="2.5" transform="rotate(-90 129.5 99.5)" fill="black"/>
<circle cx="129.5" cy="90.5" r="2.5" transform="rotate(-90 129.5 90.5)" fill="black"/>
<circle cx="129.5" cy="81.5" r="2.5" transform="rotate(-90 129.5 81.5)" fill="black"/>
<circle cx="129.5" cy="71.5" r="2.5" transform="rotate(-90 129.5 71.5)" fill="black"/>
<circle cx="129.5" cy="61.5" r="2.5" transform="rotate(-90 129.5 61.5)" fill="black"/>
<circle cx="129.5" cy="52.5" r="2.5" transform="rotate(-90 129.5 52.5)" fill="black"/>
<circle cx="129.5" cy="42.5" r="2.5" transform="rotate(-90 129.5 42.5)" fill="black"/>
<circle cx="129.5" cy="33.5" r="2.5" transform="rotate(-90 129.5 33.5)" fill="black"/>
<circle cx="129.5" cy="23.5" r="2.5" transform="rotate(-90 129.5 23.5)" fill="black"/>
<circle cx="129.5" cy="14.5" r="2.5" transform="rotate(-90 129.5 14.5)" fill="black"/>
<circle cx="129.5" cy="4.5" r="2.5" transform="rotate(-90 129.5 4.5)" fill="black"/>
<circle cx="139.5" cy="289.5" r="2.5" transform="rotate(-90 139.5 289.5)" fill="black"/>
<circle cx="139.5" cy="280.5" r="2.5" transform="rotate(-90 139.5 280.5)" fill="black"/>
<circle cx="139.5" cy="270.5" r="2.5" transform="rotate(-90 139.5 270.5)" fill="black"/>
<circle cx="139.5" cy="261.5" r="2.5" transform="rotate(-90 139.5 261.5)" fill="black"/>
<circle cx="139.5" cy="252.5" r="2.5" transform="rotate(-90 139.5 252.5)" fill="black"/>
<circle cx="139.5" cy="242.5" r="2.5" transform="rotate(-90 139.5 242.5)" fill="black"/>
<circle cx="139.5" cy="232.5" r="2.5" transform="rotate(-90 139.5 232.5)" fill="black"/>
<circle cx="139.5" cy="223.5" r="2.5" transform="rotate(-90 139.5 223.5)" fill="black"/>
<circle cx="139.5" cy="213.5" r="2.5" transform="rotate(-90 139.5 213.5)" fill="black"/>
<circle cx="139.5" cy="204.5" r="2.5" transform="rotate(-90 139.5 204.5)" fill="black"/>
<circle cx="139.5" cy="195.5" r="2.5" transform="rotate(-90 139.5 195.5)" fill="black"/>
<circle cx="139.5" cy="185.5" r="2.5" transform="rotate(-90 139.5 185.5)" fill="black"/>
<circle cx="139.5" cy="175.5" r="2.5" transform="rotate(-90 139.5 175.5)" fill="black"/>
<circle cx="139.5" cy="166.5" r="2.5" transform="rotate(-90 139.5 166.5)" fill="black"/>
<circle cx="139.5" cy="156.5" r="2.5" transform="rotate(-90 139.5 156.5)" fill="black"/>
<circle cx="139.5" cy="147.5" r="2.5" transform="rotate(-90 139.5 147.5)" fill="black"/>
<circle cx="139.5" cy="138.5" r="2.5" transform="rotate(-90 139.5 138.5)" fill="black"/>
<circle cx="139.5" cy="128.5" r="2.5" transform="rotate(-90 139.5 128.5)" fill="black"/>
<circle cx="139.5" cy="118.5" r="2.5" transform="rotate(-90 139.5 118.5)" fill="black"/>
<circle cx="139.5" cy="109.5" r="2.5" transform="rotate(-90 139.5 109.5)" fill="black"/>
<circle cx="139.5" cy="99.5" r="2.5" transform="rotate(-90 139.5 99.5)" fill="black"/>
<circle cx="139.5" cy="90.5" r="2.5" transform="rotate(-90 139.5 90.5)" fill="black"/>
<circle cx="139.5" cy="81.5" r="2.5" transform="rotate(-90 139.5 81.5)" fill="black"/>
<circle cx="139.5" cy="71.5" r="2.5" transform="rotate(-90 139.5 71.5)" fill="black"/>
<circle cx="139.5" cy="61.5" r="2.5" transform="rotate(-90 139.5 61.5)" fill="black"/>
<circle cx="139.5" cy="52.5" r="2.5" transform="rotate(-90 139.5 52.5)" fill="black"/>
<circle cx="139.5" cy="42.5" r="2.5" transform="rotate(-90 139.5 42.5)" fill="black"/>
<circle cx="139.5" cy="33.5" r="2.5" transform="rotate(-90 139.5 33.5)" fill="black"/>
<circle cx="139.5" cy="23.5" r="2.5" transform="rotate(-90 139.5 23.5)" fill="black"/>
<circle cx="139.5" cy="14.5" r="2.5" transform="rotate(-90 139.5 14.5)" fill="black"/>
<circle cx="139.5" cy="4.5" r="2.5" transform="rotate(-90 139.5 4.5)" fill="black"/>
<circle cx="148.5" cy="289.5" r="2.5" transform="rotate(-90 148.5 289.5)" fill="black"/>
<circle cx="148.5" cy="280.5" r="2.5" transform="rotate(-90 148.5 280.5)" fill="black"/>
<circle cx="148.5" cy="270.5" r="2.5" transform="rotate(-90 148.5 270.5)" fill="black"/>
<circle cx="148.5" cy="261.5" r="2.5" transform="rotate(-90 148.5 261.5)" fill="black"/>
<circle cx="148.5" cy="252.5" r="2.5" transform="rotate(-90 148.5 252.5)" fill="black"/>
<circle cx="148.5" cy="242.5" r="2.5" transform="rotate(-90 148.5 242.5)" fill="black"/>
<circle cx="148.5" cy="232.5" r="2.5" transform="rotate(-90 148.5 232.5)" fill="black"/>
<circle cx="148.5" cy="223.5" r="2.5" transform="rotate(-90 148.5 223.5)" fill="black"/>
<circle cx="148.5" cy="213.5" r="2.5" transform="rotate(-90 148.5 213.5)" fill="black"/>
<circle cx="148.5" cy="204.5" r="2.5" transform="rotate(-90 148.5 204.5)" fill="black"/>
<circle cx="148.5" cy="195.5" r="2.5" transform="rotate(-90 148.5 195.5)" fill="black"/>
<circle cx="148.5" cy="185.5" r="2.5" transform="rotate(-90 148.5 185.5)" fill="black"/>
<circle cx="148.5" cy="175.5" r="2.5" transform="rotate(-90 148.5 175.5)" fill="black"/>
<circle cx="148.5" cy="166.5" r="2.5" transform="rotate(-90 148.5 166.5)" fill="black"/>
<circle cx="148.5" cy="156.5" r="2.5" transform="rotate(-90 148.5 156.5)" fill="black"/>
<circle cx="148.5" cy="147.5" r="2.5" transform="rotate(-90 148.5 147.5)" fill="black"/>
<circle cx="148.5" cy="138.5" r="2.5" transform="rotate(-90 148.5 138.5)" fill="black"/>
<circle cx="148.5" cy="128.5" r="2.5" transform="rotate(-90 148.5 128.5)" fill="black"/>
<circle cx="148.5" cy="118.5" r="2.5" transform="rotate(-90 148.5 118.5)" fill="black"/>
<circle cx="148.5" cy="109.5" r="2.5" transform="rotate(-90 148.5 109.5)" fill="black"/>
<circle cx="148.5" cy="99.5" r="2.5" transform="rotate(-90 148.5 99.5)" fill="black"/>
<circle cx="148.5" cy="90.5" r="2.5" transform="rotate(-90 148.5 90.5)" fill="black"/>
<circle cx="148.5" cy="81.5" r="2.5" transform="rotate(-90 148.5 81.5)" fill="black"/>
<circle cx="148.5" cy="71.5" r="2.5" transform="rotate(-90 148.5 71.5)" fill="black"/>
<circle cx="148.5" cy="61.5" r="2.5" transform="rotate(-90 148.5 61.5)" fill="black"/>
<circle cx="148.5" cy="52.5" r="2.5" transform="rotate(-90 148.5 52.5)" fill="black"/>
<circle cx="148.5" cy="42.5" r="2.5" transform="rotate(-90 148.5 42.5)" fill="black"/>
<circle cx="148.5" cy="33.5" r="2.5" transform="rotate(-90 148.5 33.5)" fill="black"/>
<circle cx="148.5" cy="23.5" r="2.5" transform="rotate(-90 148.5 23.5)" fill="black"/>
<circle cx="148.5" cy="14.5" r="2.5" transform="rotate(-90 148.5 14.5)" fill="black"/>
<circle cx="148.5" cy="4.5" r="2.5" transform="rotate(-90 148.5 4.5)" fill="black"/>
<circle cx="158.5" cy="289.5" r="2.5" transform="rotate(-90 158.5 289.5)" fill="black"/>
<circle cx="158.5" cy="280.5" r="2.5" transform="rotate(-90 158.5 280.5)" fill="black"/>
<circle cx="158.5" cy="270.5" r="2.5" transform="rotate(-90 158.5 270.5)" fill="black"/>
<circle cx="158.5" cy="261.5" r="2.5" transform="rotate(-90 158.5 261.5)" fill="black"/>
<circle cx="158.5" cy="252.5" r="2.5" transform="rotate(-90 158.5 252.5)" fill="black"/>
<circle cx="158.5" cy="242.5" r="2.5" transform="rotate(-90 158.5 242.5)" fill="black"/>
<circle cx="158.5" cy="232.5" r="2.5" transform="rotate(-90 158.5 232.5)" fill="black"/>
<circle cx="158.5" cy="223.5" r="2.5" transform="rotate(-90 158.5 223.5)" fill="black"/>
<circle cx="158.5" cy="213.5" r="2.5" transform="rotate(-90 158.5 213.5)" fill="black"/>
<circle cx="158.5" cy="204.5" r="2.5" transform="rotate(-90 158.5 204.5)" fill="black"/>
<circle cx="158.5" cy="195.5" r="2.5" transform="rotate(-90 158.5 195.5)" fill="black"/>
<circle cx="158.5" cy="185.5" r="2.5" transform="rotate(-90 158.5 185.5)" fill="black"/>
<circle cx="158.5" cy="175.5" r="2.5" transform="rotate(-90 158.5 175.5)" fill="black"/>
<circle cx="158.5" cy="166.5" r="2.5" transform="rotate(-90 158.5 166.5)" fill="black"/>
<circle cx="158.5" cy="156.5" r="2.5" transform="rotate(-90 158.5 156.5)" fill="black"/>
<circle cx="158.5" cy="147.5" r="2.5" transform="rotate(-90 158.5 147.5)" fill="black"/>
<circle cx="158.5" cy="138.5" r="2.5" transform="rotate(-90 158.5 138.5)" fill="black"/>
<circle cx="158.5" cy="128.5" r="2.5" transform="rotate(-90 158.5 128.5)" fill="black"/>
<circle cx="158.5" cy="118.5" r="2.5" transform="rotate(-90 158.5 118.5)" fill="black"/>
<circle cx="158.5" cy="109.5" r="2.5" transform="rotate(-90 158.5 109.5)" fill="black"/>
<circle cx="158.5" cy="99.5" r="2.5" transform="rotate(-90 158.5 99.5)" fill="black"/>
<circle cx="158.5" cy="90.5" r="2.5" transform="rotate(-90 158.5 90.5)" fill="black"/>
<circle cx="158.5" cy="81.5" r="2.5" transform="rotate(-90 158.5 81.5)" fill="black"/>
<circle cx="158.5" cy="71.5" r="2.5" transform="rotate(-90 158.5 71.5)" fill="black"/>
<circle cx="158.5" cy="61.5" r="2.5" transform="rotate(-90 158.5 61.5)" fill="black"/>
<circle cx="158.5" cy="52.5" r="2.5" transform="rotate(-90 158.5 52.5)" fill="black"/>
<circle cx="158.5" cy="42.5" r="2.5" transform="rotate(-90 158.5 42.5)" fill="black"/>
<circle cx="158.5" cy="33.5" r="2.5" transform="rotate(-90 158.5 33.5)" fill="black"/>
<circle cx="158.5" cy="23.5" r="2.5" transform="rotate(-90 158.5 23.5)" fill="black"/>
<circle cx="158.5" cy="14.5" r="2.5" transform="rotate(-90 158.5 14.5)" fill="black"/>
<circle cx="158.5" cy="4.5" r="2.5" transform="rotate(-90 158.5 4.5)" fill="black"/>
<circle cx="167.5" cy="289.5" r="2.5" transform="rotate(-90 167.5 289.5)" fill="black"/>
<circle cx="167.5" cy="280.5" r="2.5" transform="rotate(-90 167.5 280.5)" fill="black"/>
<circle cx="167.5" cy="270.5" r="2.5" transform="rotate(-90 167.5 270.5)" fill="black"/>
<circle cx="167.5" cy="261.5" r="2.5" transform="rotate(-90 167.5 261.5)" fill="black"/>
<circle cx="167.5" cy="252.5" r="2.5" transform="rotate(-90 167.5 252.5)" fill="black"/>
<circle cx="167.5" cy="242.5" r="2.5" transform="rotate(-90 167.5 242.5)" fill="black"/>
<circle cx="167.5" cy="232.5" r="2.5" transform="rotate(-90 167.5 232.5)" fill="black"/>
<circle cx="167.5" cy="223.5" r="2.5" transform="rotate(-90 167.5 223.5)" fill="black"/>
<circle cx="167.5" cy="213.5" r="2.5" transform="rotate(-90 167.5 213.5)" fill="black"/>
<circle cx="167.5" cy="204.5" r="2.5" transform="rotate(-90 167.5 204.5)" fill="black"/>
<circle cx="167.5" cy="195.5" r="2.5" transform="rotate(-90 167.5 195.5)" fill="black"/>
<circle cx="167.5" cy="185.5" r="2.5" transform="rotate(-90 167.5 185.5)" fill="black"/>
<circle cx="167.5" cy="175.5" r="2.5" transform="rotate(-90 167.5 175.5)" fill="black"/>
<circle cx="167.5" cy="166.5" r="2.5" transform="rotate(-90 167.5 166.5)" fill="black"/>
<circle cx="167.5" cy="156.5" r="2.5" transform="rotate(-90 167.5 156.5)" fill="black"/>
<circle cx="167.5" cy="147.5" r="2.5" transform="rotate(-90 167.5 147.5)" fill="black"/>
<circle cx="167.5" cy="138.5" r="2.5" transform="rotate(-90 167.5 138.5)" fill="black"/>
<circle cx="167.5" cy="128.5" r="2.5" transform="rotate(-90 167.5 128.5)" fill="black"/>
<circle cx="167.5" cy="118.5" r="2.5" transform="rotate(-90 167.5 118.5)" fill="black"/>
<circle cx="167.5" cy="109.5" r="2.5" transform="rotate(-90 167.5 109.5)" fill="black"/>
<circle cx="167.5" cy="99.5" r="2.5" transform="rotate(-90 167.5 99.5)" fill="black"/>
<circle cx="167.5" cy="90.5" r="2.5" transform="rotate(-90 167.5 90.5)" fill="black"/>
<circle cx="167.5" cy="81.5" r="2.5" transform="rotate(-90 167.5 81.5)" fill="black"/>
<circle cx="167.5" cy="71.5" r="2.5" transform="rotate(-90 167.5 71.5)" fill="black"/>
<circle cx="167.5" cy="61.5" r="2.5" transform="rotate(-90 167.5 61.5)" fill="black"/>
<circle cx="167.5" cy="52.5" r="2.5" transform="rotate(-90 167.5 52.5)" fill="black"/>
<circle cx="167.5" cy="42.5" r="2.5" transform="rotate(-90 167.5 42.5)" fill="black"/>
<circle cx="167.5" cy="33.5" r="2.5" transform="rotate(-90 167.5 33.5)" fill="black"/>
<circle cx="167.5" cy="23.5" r="2.5" transform="rotate(-90 167.5 23.5)" fill="black"/>
<circle cx="167.5" cy="14.5" r="2.5" transform="rotate(-90 167.5 14.5)" fill="black"/>
<circle cx="167.5" cy="4.5" r="2.5" transform="rotate(-90 167.5 4.5)" fill="black"/>
<circle cx="176.5" cy="289.5" r="2.5" transform="rotate(-90 176.5 289.5)" fill="black"/>
<circle cx="176.5" cy="280.5" r="2.5" transform="rotate(-90 176.5 280.5)" fill="black"/>
<circle cx="176.5" cy="270.5" r="2.5" transform="rotate(-90 176.5 270.5)" fill="black"/>
<circle cx="176.5" cy="261.5" r="2.5" transform="rotate(-90 176.5 261.5)" fill="black"/>
<circle cx="176.5" cy="252.5" r="2.5" transform="rotate(-90 176.5 252.5)" fill="black"/>
<circle cx="176.5" cy="242.5" r="2.5" transform="rotate(-90 176.5 242.5)" fill="black"/>
<circle cx="176.5" cy="232.5" r="2.5" transform="rotate(-90 176.5 232.5)" fill="black"/>
<circle cx="176.5" cy="223.5" r="2.5" transform="rotate(-90 176.5 223.5)" fill="black"/>
<circle cx="176.5" cy="213.5" r="2.5" transform="rotate(-90 176.5 213.5)" fill="black"/>
<circle cx="176.5" cy="204.5" r="2.5" transform="rotate(-90 176.5 204.5)" fill="black"/>
<circle cx="176.5" cy="195.5" r="2.5" transform="rotate(-90 176.5 195.5)" fill="black"/>
<circle cx="176.5" cy="185.5" r="2.5" transform="rotate(-90 176.5 185.5)" fill="black"/>
<circle cx="176.5" cy="175.5" r="2.5" transform="rotate(-90 176.5 175.5)" fill="black"/>
<circle cx="176.5" cy="166.5" r="2.5" transform="rotate(-90 176.5 166.5)" fill="black"/>
<circle cx="176.5" cy="156.5" r="2.5" transform="rotate(-90 176.5 156.5)" fill="black"/>
<circle cx="176.5" cy="147.5" r="2.5" transform="rotate(-90 176.5 147.5)" fill="black"/>
<circle cx="176.5" cy="138.5" r="2.5" transform="rotate(-90 176.5 138.5)" fill="black"/>
<circle cx="176.5" cy="128.5" r="2.5" transform="rotate(-90 176.5 128.5)" fill="black"/>
<circle cx="176.5" cy="118.5" r="2.5" transform="rotate(-90 176.5 118.5)" fill="black"/>
<circle cx="176.5" cy="109.5" r="2.5" transform="rotate(-90 176.5 109.5)" fill="black"/>
<circle cx="176.5" cy="99.5" r="2.5" transform="rotate(-90 176.5 99.5)" fill="black"/>
<circle cx="176.5" cy="90.5" r="2.5" transform="rotate(-90 176.5 90.5)" fill="black"/>
<circle cx="176.5" cy="81.5" r="2.5" transform="rotate(-90 176.5 81.5)" fill="black"/>
<circle cx="176.5" cy="71.5" r="2.5" transform="rotate(-90 176.5 71.5)" fill="black"/>
<circle cx="176.5" cy="61.5" r="2.5" transform="rotate(-90 176.5 61.5)" fill="black"/>
<circle cx="176.5" cy="52.5" r="2.5" transform="rotate(-90 176.5 52.5)" fill="black"/>
<circle cx="176.5" cy="42.5" r="2.5" transform="rotate(-90 176.5 42.5)" fill="black"/>
<circle cx="176.5" cy="33.5" r="2.5" transform="rotate(-90 176.5 33.5)" fill="black"/>
<circle cx="176.5" cy="23.5" r="2.5" transform="rotate(-90 176.5 23.5)" fill="black"/>
<circle cx="176.5" cy="14.5" r="2.5" transform="rotate(-90 176.5 14.5)" fill="black"/>
<circle cx="176.5" cy="4.5" r="2.5" transform="rotate(-90 176.5 4.5)" fill="black"/>
<circle cx="186.5" cy="289.5" r="2.5" transform="rotate(-90 186.5 289.5)" fill="black"/>
<circle cx="186.5" cy="280.5" r="2.5" transform="rotate(-90 186.5 280.5)" fill="black"/>
<circle cx="186.5" cy="270.5" r="2.5" transform="rotate(-90 186.5 270.5)" fill="black"/>
<circle cx="186.5" cy="261.5" r="2.5" transform="rotate(-90 186.5 261.5)" fill="black"/>
<circle cx="186.5" cy="252.5" r="2.5" transform="rotate(-90 186.5 252.5)" fill="black"/>
<circle cx="186.5" cy="242.5" r="2.5" transform="rotate(-90 186.5 242.5)" fill="black"/>
<circle cx="186.5" cy="232.5" r="2.5" transform="rotate(-90 186.5 232.5)" fill="black"/>
<circle cx="186.5" cy="223.5" r="2.5" transform="rotate(-90 186.5 223.5)" fill="black"/>
<circle cx="186.5" cy="213.5" r="2.5" transform="rotate(-90 186.5 213.5)" fill="black"/>
<circle cx="186.5" cy="204.5" r="2.5" transform="rotate(-90 186.5 204.5)" fill="black"/>
<circle cx="186.5" cy="195.5" r="2.5" transform="rotate(-90 186.5 195.5)" fill="black"/>
<circle cx="186.5" cy="185.5" r="2.5" transform="rotate(-90 186.5 185.5)" fill="black"/>
<circle cx="186.5" cy="175.5" r="2.5" transform="rotate(-90 186.5 175.5)" fill="black"/>
<circle cx="186.5" cy="166.5" r="2.5" transform="rotate(-90 186.5 166.5)" fill="black"/>
<circle cx="186.5" cy="156.5" r="2.5" transform="rotate(-90 186.5 156.5)" fill="black"/>
<circle cx="186.5" cy="147.5" r="2.5" transform="rotate(-90 186.5 147.5)" fill="black"/>
<circle cx="186.5" cy="138.5" r="2.5" transform="rotate(-90 186.5 138.5)" fill="black"/>
<circle cx="186.5" cy="128.5" r="2.5" transform="rotate(-90 186.5 128.5)" fill="black"/>
<circle cx="186.5" cy="118.5" r="2.5" transform="rotate(-90 186.5 118.5)" fill="black"/>
<circle cx="186.5" cy="109.5" r="2.5" transform="rotate(-90 186.5 109.5)" fill="black"/>
<circle cx="186.5" cy="99.5" r="2.5" transform="rotate(-90 186.5 99.5)" fill="black"/>
<circle cx="186.5" cy="90.5" r="2.5" transform="rotate(-90 186.5 90.5)" fill="black"/>
<circle cx="186.5" cy="81.5" r="2.5" transform="rotate(-90 186.5 81.5)" fill="black"/>
<circle cx="186.5" cy="71.5" r="2.5" transform="rotate(-90 186.5 71.5)" fill="black"/>
<circle cx="186.5" cy="61.5" r="2.5" transform="rotate(-90 186.5 61.5)" fill="black"/>
<circle cx="186.5" cy="52.5" r="2.5" transform="rotate(-90 186.5 52.5)" fill="black"/>
<circle cx="186.5" cy="42.5" r="2.5" transform="rotate(-90 186.5 42.5)" fill="black"/>
<circle cx="186.5" cy="33.5" r="2.5" transform="rotate(-90 186.5 33.5)" fill="black"/>
<circle cx="186.5" cy="23.5" r="2.5" transform="rotate(-90 186.5 23.5)" fill="black"/>
<circle cx="186.5" cy="14.5" r="2.5" transform="rotate(-90 186.5 14.5)" fill="black"/>
<circle cx="186.5" cy="4.5" r="2.5" transform="rotate(-90 186.5 4.5)" fill="black"/>
<circle cx="195.5" cy="289.5" r="2.5" transform="rotate(-90 195.5 289.5)" fill="black"/>
<circle cx="195.5" cy="280.5" r="2.5" transform="rotate(-90 195.5 280.5)" fill="black"/>
<circle cx="195.5" cy="270.5" r="2.5" transform="rotate(-90 195.5 270.5)" fill="black"/>
<circle cx="195.5" cy="261.5" r="2.5" transform="rotate(-90 195.5 261.5)" fill="black"/>
<circle cx="195.5" cy="252.5" r="2.5" transform="rotate(-90 195.5 252.5)" fill="black"/>
<circle cx="195.5" cy="242.5" r="2.5" transform="rotate(-90 195.5 242.5)" fill="black"/>
<circle cx="195.5" cy="232.5" r="2.5" transform="rotate(-90 195.5 232.5)" fill="black"/>
<circle cx="195.5" cy="223.5" r="2.5" transform="rotate(-90 195.5 223.5)" fill="black"/>
<circle cx="195.5" cy="213.5" r="2.5" transform="rotate(-90 195.5 213.5)" fill="black"/>
<circle cx="195.5" cy="204.5" r="2.5" transform="rotate(-90 195.5 204.5)" fill="black"/>
<circle cx="195.5" cy="195.5" r="2.5" transform="rotate(-90 195.5 195.5)" fill="black"/>
<circle cx="195.5" cy="185.5" r="2.5" transform="rotate(-90 195.5 185.5)" fill="black"/>
<circle cx="195.5" cy="175.5" r="2.5" transform="rotate(-90 195.5 175.5)" fill="black"/>
<circle cx="195.5" cy="166.5" r="2.5" transform="rotate(-90 195.5 166.5)" fill="black"/>
<circle cx="195.5" cy="156.5" r="2.5" transform="rotate(-90 195.5 156.5)" fill="black"/>
<circle cx="195.5" cy="147.5" r="2.5" transform="rotate(-90 195.5 147.5)" fill="black"/>
<circle cx="195.5" cy="138.5" r="2.5" transform="rotate(-90 195.5 138.5)" fill="black"/>
<circle cx="195.5" cy="128.5" r="2.5" transform="rotate(-90 195.5 128.5)" fill="black"/>
<circle cx="195.5" cy="118.5" r="2.5" transform="rotate(-90 195.5 118.5)" fill="black"/>
<circle cx="195.5" cy="109.5" r="2.5" transform="rotate(-90 195.5 109.5)" fill="black"/>
<circle cx="195.5" cy="99.5" r="2.5" transform="rotate(-90 195.5 99.5)" fill="black"/>
<circle cx="195.5" cy="90.5" r="2.5" transform="rotate(-90 195.5 90.5)" fill="black"/>
<circle cx="195.5" cy="81.5" r="2.5" transform="rotate(-90 195.5 81.5)" fill="black"/>
<circle cx="195.5" cy="71.5" r="2.5" transform="rotate(-90 195.5 71.5)" fill="black"/>
<circle cx="195.5" cy="61.5" r="2.5" transform="rotate(-90 195.5 61.5)" fill="black"/>
<circle cx="195.5" cy="52.5" r="2.5" transform="rotate(-90 195.5 52.5)" fill="black"/>
<circle cx="195.5" cy="42.5" r="2.5" transform="rotate(-90 195.5 42.5)" fill="black"/>
<circle cx="195.5" cy="33.5" r="2.5" transform="rotate(-90 195.5 33.5)" fill="black"/>
<circle cx="195.5" cy="23.5" r="2.5" transform="rotate(-90 195.5 23.5)" fill="black"/>
<circle cx="195.5" cy="14.5" r="2.5" transform="rotate(-90 195.5 14.5)" fill="black"/>
<circle cx="195.5" cy="4.5" r="2.5" transform="rotate(-90 195.5 4.5)" fill="black"/>
<circle cx="205.5" cy="289.5" r="2.5" transform="rotate(-90 205.5 289.5)" fill="black"/>
<circle cx="205.5" cy="280.5" r="2.5" transform="rotate(-90 205.5 280.5)" fill="black"/>
<circle cx="205.5" cy="270.5" r="2.5" transform="rotate(-90 205.5 270.5)" fill="black"/>
<circle cx="205.5" cy="261.5" r="2.5" transform="rotate(-90 205.5 261.5)" fill="black"/>
<circle cx="205.5" cy="252.5" r="2.5" transform="rotate(-90 205.5 252.5)" fill="black"/>
<circle cx="205.5" cy="242.5" r="2.5" transform="rotate(-90 205.5 242.5)" fill="black"/>
<circle cx="205.5" cy="232.5" r="2.5" transform="rotate(-90 205.5 232.5)" fill="black"/>
<circle cx="205.5" cy="223.5" r="2.5" transform="rotate(-90 205.5 223.5)" fill="black"/>
<circle cx="205.5" cy="213.5" r="2.5" transform="rotate(-90 205.5 213.5)" fill="black"/>
<circle cx="205.5" cy="204.5" r="2.5" transform="rotate(-90 205.5 204.5)" fill="black"/>
<circle cx="205.5" cy="195.5" r="2.5" transform="rotate(-90 205.5 195.5)" fill="black"/>
<circle cx="205.5" cy="185.5" r="2.5" transform="rotate(-90 205.5 185.5)" fill="black"/>
<circle cx="205.5" cy="175.5" r="2.5" transform="rotate(-90 205.5 175.5)" fill="black"/>
<circle cx="205.5" cy="166.5" r="2.5" transform="rotate(-90 205.5 166.5)" fill="black"/>
<circle cx="205.5" cy="156.5" r="2.5" transform="rotate(-90 205.5 156.5)" fill="black"/>
<circle cx="205.5" cy="147.5" r="2.5" transform="rotate(-90 205.5 147.5)" fill="black"/>
<circle cx="205.5" cy="138.5" r="2.5" transform="rotate(-90 205.5 138.5)" fill="black"/>
<circle cx="205.5" cy="128.5" r="2.5" transform="rotate(-90 205.5 128.5)" fill="black"/>
<circle cx="205.5" cy="118.5" r="2.5" transform="rotate(-90 205.5 118.5)" fill="black"/>
<circle cx="205.5" cy="109.5" r="2.5" transform="rotate(-90 205.5 109.5)" fill="black"/>
<circle cx="205.5" cy="99.5" r="2.5" transform="rotate(-90 205.5 99.5)" fill="black"/>
<circle cx="205.5" cy="90.5" r="2.5" transform="rotate(-90 205.5 90.5)" fill="black"/>
<circle cx="205.5" cy="81.5" r="2.5" transform="rotate(-90 205.5 81.5)" fill="black"/>
<circle cx="205.5" cy="71.5" r="2.5" transform="rotate(-90 205.5 71.5)" fill="black"/>
<circle cx="205.5" cy="61.5" r="2.5" transform="rotate(-90 205.5 61.5)" fill="black"/>
<circle cx="205.5" cy="52.5" r="2.5" transform="rotate(-90 205.5 52.5)" fill="black"/>
<circle cx="205.5" cy="42.5" r="2.5" transform="rotate(-90 205.5 42.5)" fill="black"/>
<circle cx="205.5" cy="33.5" r="2.5" transform="rotate(-90 205.5 33.5)" fill="black"/>
<circle cx="205.5" cy="23.5" r="2.5" transform="rotate(-90 205.5 23.5)" fill="black"/>
<circle cx="205.5" cy="14.5" r="2.5" transform="rotate(-90 205.5 14.5)" fill="black"/>
<circle cx="205.5" cy="4.5" r="2.5" transform="rotate(-90 205.5 4.5)" fill="black"/>
<circle cx="215.5" cy="289.5" r="2.5" transform="rotate(-90 215.5 289.5)" fill="black"/>
<circle cx="215.5" cy="280.5" r="2.5" transform="rotate(-90 215.5 280.5)" fill="black"/>
<circle cx="215.5" cy="270.5" r="2.5" transform="rotate(-90 215.5 270.5)" fill="black"/>
<circle cx="215.5" cy="261.5" r="2.5" transform="rotate(-90 215.5 261.5)" fill="black"/>
<circle cx="215.5" cy="252.5" r="2.5" transform="rotate(-90 215.5 252.5)" fill="black"/>
<circle cx="215.5" cy="242.5" r="2.5" transform="rotate(-90 215.5 242.5)" fill="black"/>
<circle cx="215.5" cy="232.5" r="2.5" transform="rotate(-90 215.5 232.5)" fill="black"/>
<circle cx="215.5" cy="223.5" r="2.5" transform="rotate(-90 215.5 223.5)" fill="black"/>
<circle cx="215.5" cy="213.5" r="2.5" transform="rotate(-90 215.5 213.5)" fill="black"/>
<circle cx="215.5" cy="204.5" r="2.5" transform="rotate(-90 215.5 204.5)" fill="black"/>
<circle cx="215.5" cy="195.5" r="2.5" transform="rotate(-90 215.5 195.5)" fill="black"/>
<circle cx="215.5" cy="185.5" r="2.5" transform="rotate(-90 215.5 185.5)" fill="black"/>
<circle cx="215.5" cy="175.5" r="2.5" transform="rotate(-90 215.5 175.5)" fill="black"/>
<circle cx="215.5" cy="166.5" r="2.5" transform="rotate(-90 215.5 166.5)" fill="black"/>
<circle cx="215.5" cy="156.5" r="2.5" transform="rotate(-90 215.5 156.5)" fill="black"/>
<circle cx="215.5" cy="147.5" r="2.5" transform="rotate(-90 215.5 147.5)" fill="black"/>
<circle cx="215.5" cy="138.5" r="2.5" transform="rotate(-90 215.5 138.5)" fill="black"/>
<circle cx="215.5" cy="128.5" r="2.5" transform="rotate(-90 215.5 128.5)" fill="black"/>
<circle cx="215.5" cy="118.5" r="2.5" transform="rotate(-90 215.5 118.5)" fill="black"/>
<circle cx="215.5" cy="109.5" r="2.5" transform="rotate(-90 215.5 109.5)" fill="black"/>
<circle cx="215.5" cy="99.5" r="2.5" transform="rotate(-90 215.5 99.5)" fill="black"/>
<circle cx="215.5" cy="90.5" r="2.5" transform="rotate(-90 215.5 90.5)" fill="black"/>
<circle cx="215.5" cy="81.5" r="2.5" transform="rotate(-90 215.5 81.5)" fill="black"/>
<circle cx="215.5" cy="71.5" r="2.5" transform="rotate(-90 215.5 71.5)" fill="black"/>
<circle cx="215.5" cy="61.5" r="2.5" transform="rotate(-90 215.5 61.5)" fill="black"/>
<circle cx="215.5" cy="52.5" r="2.5" transform="rotate(-90 215.5 52.5)" fill="black"/>
<circle cx="215.5" cy="42.5" r="2.5" transform="rotate(-90 215.5 42.5)" fill="black"/>
<circle cx="215.5" cy="33.5" r="2.5" transform="rotate(-90 215.5 33.5)" fill="black"/>
<circle cx="215.5" cy="23.5" r="2.5" transform="rotate(-90 215.5 23.5)" fill="black"/>
<circle cx="215.5" cy="14.5" r="2.5" transform="rotate(-90 215.5 14.5)" fill="black"/>
<circle cx="215.5" cy="4.5" r="2.5" transform="rotate(-90 215.5 4.5)" fill="black"/>
<circle cx="224.5" cy="289.5" r="2.5" transform="rotate(-90 224.5 289.5)" fill="black"/>
<circle cx="224.5" cy="280.5" r="2.5" transform="rotate(-90 224.5 280.5)" fill="black"/>
<circle cx="224.5" cy="270.5" r="2.5" transform="rotate(-90 224.5 270.5)" fill="black"/>
<circle cx="224.5" cy="261.5" r="2.5" transform="rotate(-90 224.5 261.5)" fill="black"/>
<circle cx="224.5" cy="252.5" r="2.5" transform="rotate(-90 224.5 252.5)" fill="black"/>
<circle cx="224.5" cy="242.5" r="2.5" transform="rotate(-90 224.5 242.5)" fill="black"/>
<circle cx="224.5" cy="232.5" r="2.5" transform="rotate(-90 224.5 232.5)" fill="black"/>
<circle cx="224.5" cy="223.5" r="2.5" transform="rotate(-90 224.5 223.5)" fill="black"/>
<circle cx="224.5" cy="213.5" r="2.5" transform="rotate(-90 224.5 213.5)" fill="black"/>
<circle cx="224.5" cy="204.5" r="2.5" transform="rotate(-90 224.5 204.5)" fill="black"/>
<circle cx="224.5" cy="195.5" r="2.5" transform="rotate(-90 224.5 195.5)" fill="black"/>
<circle cx="224.5" cy="185.5" r="2.5" transform="rotate(-90 224.5 185.5)" fill="black"/>
<circle cx="224.5" cy="175.5" r="2.5" transform="rotate(-90 224.5 175.5)" fill="black"/>
<circle cx="224.5" cy="166.5" r="2.5" transform="rotate(-90 224.5 166.5)" fill="black"/>
<circle cx="224.5" cy="156.5" r="2.5" transform="rotate(-90 224.5 156.5)" fill="black"/>
<circle cx="224.5" cy="147.5" r="2.5" transform="rotate(-90 224.5 147.5)" fill="black"/>
<circle cx="224.5" cy="138.5" r="2.5" transform="rotate(-90 224.5 138.5)" fill="black"/>
<circle cx="224.5" cy="128.5" r="2.5" transform="rotate(-90 224.5 128.5)" fill="black"/>
<circle cx="224.5" cy="118.5" r="2.5" transform="rotate(-90 224.5 118.5)" fill="black"/>
<circle cx="224.5" cy="109.5" r="2.5" transform="rotate(-90 224.5 109.5)" fill="black"/>
<circle cx="224.5" cy="99.5" r="2.5" transform="rotate(-90 224.5 99.5)" fill="black"/>
<circle cx="224.5" cy="90.5" r="2.5" transform="rotate(-90 224.5 90.5)" fill="black"/>
<circle cx="224.5" cy="81.5" r="2.5" transform="rotate(-90 224.5 81.5)" fill="black"/>
<circle cx="224.5" cy="71.5" r="2.5" transform="rotate(-90 224.5 71.5)" fill="black"/>
<circle cx="224.5" cy="61.5" r="2.5" transform="rotate(-90 224.5 61.5)" fill="black"/>
<circle cx="224.5" cy="52.5" r="2.5" transform="rotate(-90 224.5 52.5)" fill="black"/>
<circle cx="224.5" cy="42.5" r="2.5" transform="rotate(-90 224.5 42.5)" fill="black"/>
<circle cx="224.5" cy="33.5" r="2.5" transform="rotate(-90 224.5 33.5)" fill="black"/>
<circle cx="224.5" cy="23.5" r="2.5" transform="rotate(-90 224.5 23.5)" fill="black"/>
<circle cx="224.5" cy="14.5" r="2.5" transform="rotate(-90 224.5 14.5)" fill="black"/>
<circle cx="224.5" cy="4.5" r="2.5" transform="rotate(-90 224.5 4.5)" fill="black"/>
<circle cx="233.5" cy="289.5" r="2.5" transform="rotate(-90 233.5 289.5)" fill="black"/>
<circle cx="233.5" cy="280.5" r="2.5" transform="rotate(-90 233.5 280.5)" fill="black"/>
<circle cx="233.5" cy="270.5" r="2.5" transform="rotate(-90 233.5 270.5)" fill="black"/>
<circle cx="233.5" cy="261.5" r="2.5" transform="rotate(-90 233.5 261.5)" fill="black"/>
<circle cx="233.5" cy="252.5" r="2.5" transform="rotate(-90 233.5 252.5)" fill="black"/>
<circle cx="233.5" cy="242.5" r="2.5" transform="rotate(-90 233.5 242.5)" fill="black"/>
<circle cx="233.5" cy="232.5" r="2.5" transform="rotate(-90 233.5 232.5)" fill="black"/>
<circle cx="233.5" cy="223.5" r="2.5" transform="rotate(-90 233.5 223.5)" fill="black"/>
<circle cx="233.5" cy="213.5" r="2.5" transform="rotate(-90 233.5 213.5)" fill="black"/>
<circle cx="233.5" cy="204.5" r="2.5" transform="rotate(-90 233.5 204.5)" fill="black"/>
<circle cx="233.5" cy="195.5" r="2.5" transform="rotate(-90 233.5 195.5)" fill="black"/>
<circle cx="233.5" cy="185.5" r="2.5" transform="rotate(-90 233.5 185.5)" fill="black"/>
<circle cx="233.5" cy="175.5" r="2.5" transform="rotate(-90 233.5 175.5)" fill="black"/>
<circle cx="233.5" cy="166.5" r="2.5" transform="rotate(-90 233.5 166.5)" fill="black"/>
<circle cx="233.5" cy="156.5" r="2.5" transform="rotate(-90 233.5 156.5)" fill="black"/>
<circle cx="233.5" cy="147.5" r="2.5" transform="rotate(-90 233.5 147.5)" fill="black"/>
<circle cx="233.5" cy="138.5" r="2.5" transform="rotate(-90 233.5 138.5)" fill="black"/>
<circle cx="233.5" cy="128.5" r="2.5" transform="rotate(-90 233.5 128.5)" fill="black"/>
<circle cx="233.5" cy="118.5" r="2.5" transform="rotate(-90 233.5 118.5)" fill="black"/>
<circle cx="233.5" cy="109.5" r="2.5" transform="rotate(-90 233.5 109.5)" fill="black"/>
<circle cx="233.5" cy="99.5" r="2.5" transform="rotate(-90 233.5 99.5)" fill="black"/>
<circle cx="233.5" cy="90.5" r="2.5" transform="rotate(-90 233.5 90.5)" fill="black"/>
<circle cx="233.5" cy="81.5" r="2.5" transform="rotate(-90 233.5 81.5)" fill="black"/>
<circle cx="233.5" cy="71.5" r="2.5" transform="rotate(-90 233.5 71.5)" fill="black"/>
<circle cx="233.5" cy="61.5" r="2.5" transform="rotate(-90 233.5 61.5)" fill="black"/>
<circle cx="233.5" cy="52.5" r="2.5" transform="rotate(-90 233.5 52.5)" fill="black"/>
<circle cx="233.5" cy="42.5" r="2.5" transform="rotate(-90 233.5 42.5)" fill="black"/>
<circle cx="233.5" cy="33.5" r="2.5" transform="rotate(-90 233.5 33.5)" fill="black"/>
<circle cx="233.5" cy="23.5" r="2.5" transform="rotate(-90 233.5 23.5)" fill="black"/>
<circle cx="233.5" cy="14.5" r="2.5" transform="rotate(-90 233.5 14.5)" fill="black"/>
<circle cx="233.5" cy="4.5" r="2.5" transform="rotate(-90 233.5 4.5)" fill="black"/>
<circle cx="243.5" cy="289.5" r="2.5" transform="rotate(-90 243.5 289.5)" fill="black"/>
<circle cx="243.5" cy="280.5" r="2.5" transform="rotate(-90 243.5 280.5)" fill="black"/>
<circle cx="243.5" cy="270.5" r="2.5" transform="rotate(-90 243.5 270.5)" fill="black"/>
<circle cx="243.5" cy="261.5" r="2.5" transform="rotate(-90 243.5 261.5)" fill="black"/>
<circle cx="243.5" cy="252.5" r="2.5" transform="rotate(-90 243.5 252.5)" fill="black"/>
<circle cx="243.5" cy="242.5" r="2.5" transform="rotate(-90 243.5 242.5)" fill="black"/>
<circle cx="243.5" cy="232.5" r="2.5" transform="rotate(-90 243.5 232.5)" fill="black"/>
<circle cx="243.5" cy="223.5" r="2.5" transform="rotate(-90 243.5 223.5)" fill="black"/>
<circle cx="243.5" cy="213.5" r="2.5" transform="rotate(-90 243.5 213.5)" fill="black"/>
<circle cx="243.5" cy="204.5" r="2.5" transform="rotate(-90 243.5 204.5)" fill="black"/>
<circle cx="243.5" cy="195.5" r="2.5" transform="rotate(-90 243.5 195.5)" fill="black"/>
<circle cx="243.5" cy="185.5" r="2.5" transform="rotate(-90 243.5 185.5)" fill="black"/>
<circle cx="243.5" cy="175.5" r="2.5" transform="rotate(-90 243.5 175.5)" fill="black"/>
<circle cx="243.5" cy="166.5" r="2.5" transform="rotate(-90 243.5 166.5)" fill="black"/>
<circle cx="243.5" cy="156.5" r="2.5" transform="rotate(-90 243.5 156.5)" fill="black"/>
<circle cx="243.5" cy="147.5" r="2.5" transform="rotate(-90 243.5 147.5)" fill="black"/>
<circle cx="243.5" cy="138.5" r="2.5" transform="rotate(-90 243.5 138.5)" fill="black"/>
<circle cx="243.5" cy="128.5" r="2.5" transform="rotate(-90 243.5 128.5)" fill="black"/>
<circle cx="243.5" cy="118.5" r="2.5" transform="rotate(-90 243.5 118.5)" fill="black"/>
<circle cx="243.5" cy="109.5" r="2.5" transform="rotate(-90 243.5 109.5)" fill="black"/>
<circle cx="243.5" cy="99.5" r="2.5" transform="rotate(-90 243.5 99.5)" fill="black"/>
<circle cx="243.5" cy="90.5" r="2.5" transform="rotate(-90 243.5 90.5)" fill="black"/>
<circle cx="243.5" cy="81.5" r="2.5" transform="rotate(-90 243.5 81.5)" fill="black"/>
<circle cx="243.5" cy="71.5" r="2.5" transform="rotate(-90 243.5 71.5)" fill="black"/>
<circle cx="243.5" cy="61.5" r="2.5" transform="rotate(-90 243.5 61.5)" fill="black"/>
<circle cx="243.5" cy="52.5" r="2.5" transform="rotate(-90 243.5 52.5)" fill="black"/>
<circle cx="243.5" cy="42.5" r="2.5" transform="rotate(-90 243.5 42.5)" fill="black"/>
<circle cx="243.5" cy="33.5" r="2.5" transform="rotate(-90 243.5 33.5)" fill="black"/>
<circle cx="243.5" cy="23.5" r="2.5" transform="rotate(-90 243.5 23.5)" fill="black"/>
<circle cx="243.5" cy="14.5" r="2.5" transform="rotate(-90 243.5 14.5)" fill="black"/>
<circle cx="243.5" cy="4.5" r="2.5" transform="rotate(-90 243.5 4.5)" fill="black"/>
<circle cx="252.5" cy="289.5" r="2.5" transform="rotate(-90 252.5 289.5)" fill="black"/>
<circle cx="252.5" cy="280.5" r="2.5" transform="rotate(-90 252.5 280.5)" fill="black"/>
<circle cx="252.5" cy="270.5" r="2.5" transform="rotate(-90 252.5 270.5)" fill="black"/>
<circle cx="252.5" cy="261.5" r="2.5" transform="rotate(-90 252.5 261.5)" fill="black"/>
<circle cx="252.5" cy="252.5" r="2.5" transform="rotate(-90 252.5 252.5)" fill="black"/>
<circle cx="252.5" cy="242.5" r="2.5" transform="rotate(-90 252.5 242.5)" fill="black"/>
<circle cx="252.5" cy="232.5" r="2.5" transform="rotate(-90 252.5 232.5)" fill="black"/>
<circle cx="252.5" cy="223.5" r="2.5" transform="rotate(-90 252.5 223.5)" fill="black"/>
<circle cx="252.5" cy="213.5" r="2.5" transform="rotate(-90 252.5 213.5)" fill="black"/>
<circle cx="252.5" cy="204.5" r="2.5" transform="rotate(-90 252.5 204.5)" fill="black"/>
<circle cx="252.5" cy="195.5" r="2.5" transform="rotate(-90 252.5 195.5)" fill="black"/>
<circle cx="252.5" cy="185.5" r="2.5" transform="rotate(-90 252.5 185.5)" fill="black"/>
<circle cx="252.5" cy="175.5" r="2.5" transform="rotate(-90 252.5 175.5)" fill="black"/>
<circle cx="252.5" cy="166.5" r="2.5" transform="rotate(-90 252.5 166.5)" fill="black"/>
<circle cx="252.5" cy="156.5" r="2.5" transform="rotate(-90 252.5 156.5)" fill="black"/>
<circle cx="252.5" cy="147.5" r="2.5" transform="rotate(-90 252.5 147.5)" fill="black"/>
<circle cx="252.5" cy="138.5" r="2.5" transform="rotate(-90 252.5 138.5)" fill="black"/>
<circle cx="252.5" cy="128.5" r="2.5" transform="rotate(-90 252.5 128.5)" fill="black"/>
<circle cx="252.5" cy="118.5" r="2.5" transform="rotate(-90 252.5 118.5)" fill="black"/>
<circle cx="252.5" cy="109.5" r="2.5" transform="rotate(-90 252.5 109.5)" fill="black"/>
<circle cx="252.5" cy="99.5" r="2.5" transform="rotate(-90 252.5 99.5)" fill="black"/>
<circle cx="252.5" cy="90.5" r="2.5" transform="rotate(-90 252.5 90.5)" fill="black"/>
<circle cx="252.5" cy="81.5" r="2.5" transform="rotate(-90 252.5 81.5)" fill="black"/>
<circle cx="252.5" cy="71.5" r="2.5" transform="rotate(-90 252.5 71.5)" fill="black"/>
<circle cx="252.5" cy="61.5" r="2.5" transform="rotate(-90 252.5 61.5)" fill="black"/>
<circle cx="252.5" cy="52.5" r="2.5" transform="rotate(-90 252.5 52.5)" fill="black"/>
<circle cx="252.5" cy="42.5" r="2.5" transform="rotate(-90 252.5 42.5)" fill="black"/>
<circle cx="252.5" cy="33.5" r="2.5" transform="rotate(-90 252.5 33.5)" fill="black"/>
<circle cx="252.5" cy="23.5" r="2.5" transform="rotate(-90 252.5 23.5)" fill="black"/>
<circle cx="252.5" cy="14.5" r="2.5" transform="rotate(-90 252.5 14.5)" fill="black"/>
<circle cx="252.5" cy="4.5" r="2.5" transform="rotate(-90 252.5 4.5)" fill="black"/>
<circle cx="262.5" cy="289.5" r="2.5" transform="rotate(-90 262.5 289.5)" fill="black"/>
<circle cx="262.5" cy="280.5" r="2.5" transform="rotate(-90 262.5 280.5)" fill="black"/>
<circle cx="262.5" cy="270.5" r="2.5" transform="rotate(-90 262.5 270.5)" fill="black"/>
<circle cx="262.5" cy="261.5" r="2.5" transform="rotate(-90 262.5 261.5)" fill="black"/>
<circle cx="262.5" cy="252.5" r="2.5" transform="rotate(-90 262.5 252.5)" fill="black"/>
<circle cx="262.5" cy="242.5" r="2.5" transform="rotate(-90 262.5 242.5)" fill="black"/>
<circle cx="262.5" cy="232.5" r="2.5" transform="rotate(-90 262.5 232.5)" fill="black"/>
<circle cx="262.5" cy="223.5" r="2.5" transform="rotate(-90 262.5 223.5)" fill="black"/>
<circle cx="262.5" cy="213.5" r="2.5" transform="rotate(-90 262.5 213.5)" fill="black"/>
<circle cx="262.5" cy="204.5" r="2.5" transform="rotate(-90 262.5 204.5)" fill="black"/>
<circle cx="262.5" cy="195.5" r="2.5" transform="rotate(-90 262.5 195.5)" fill="black"/>
<circle cx="262.5" cy="185.5" r="2.5" transform="rotate(-90 262.5 185.5)" fill="black"/>
<circle cx="262.5" cy="175.5" r="2.5" transform="rotate(-90 262.5 175.5)" fill="black"/>
<circle cx="262.5" cy="166.5" r="2.5" transform="rotate(-90 262.5 166.5)" fill="black"/>
<circle cx="262.5" cy="156.5" r="2.5" transform="rotate(-90 262.5 156.5)" fill="black"/>
<circle cx="262.5" cy="147.5" r="2.5" transform="rotate(-90 262.5 147.5)" fill="black"/>
<circle cx="262.5" cy="138.5" r="2.5" transform="rotate(-90 262.5 138.5)" fill="black"/>
<circle cx="262.5" cy="128.5" r="2.5" transform="rotate(-90 262.5 128.5)" fill="black"/>
<circle cx="262.5" cy="118.5" r="2.5" transform="rotate(-90 262.5 118.5)" fill="black"/>
<circle cx="262.5" cy="109.5" r="2.5" transform="rotate(-90 262.5 109.5)" fill="black"/>
<circle cx="262.5" cy="99.5" r="2.5" transform="rotate(-90 262.5 99.5)" fill="black"/>
<circle cx="262.5" cy="90.5" r="2.5" transform="rotate(-90 262.5 90.5)" fill="black"/>
<circle cx="262.5" cy="81.5" r="2.5" transform="rotate(-90 262.5 81.5)" fill="black"/>
<circle cx="262.5" cy="71.5" r="2.5" transform="rotate(-90 262.5 71.5)" fill="black"/>
<circle cx="262.5" cy="61.5" r="2.5" transform="rotate(-90 262.5 61.5)" fill="black"/>
<circle cx="262.5" cy="52.5" r="2.5" transform="rotate(-90 262.5 52.5)" fill="black"/>
<circle cx="262.5" cy="42.5" r="2.5" transform="rotate(-90 262.5 42.5)" fill="black"/>
<circle cx="262.5" cy="33.5" r="2.5" transform="rotate(-90 262.5 33.5)" fill="black"/>
<circle cx="262.5" cy="23.5" r="2.5" transform="rotate(-90 262.5 23.5)" fill="black"/>
<circle cx="262.5" cy="14.5" r="2.5" transform="rotate(-90 262.5 14.5)" fill="black"/>
<circle cx="262.5" cy="4.5" r="2.5" transform="rotate(-90 262.5 4.5)" fill="black"/>
<circle cx="271.5" cy="289.5" r="2.5" transform="rotate(-90 271.5 289.5)" fill="black"/>
<circle cx="271.5" cy="280.5" r="2.5" transform="rotate(-90 271.5 280.5)" fill="black"/>
<circle cx="271.5" cy="270.5" r="2.5" transform="rotate(-90 271.5 270.5)" fill="black"/>
<circle cx="271.5" cy="261.5" r="2.5" transform="rotate(-90 271.5 261.5)" fill="black"/>
<circle cx="271.5" cy="252.5" r="2.5" transform="rotate(-90 271.5 252.5)" fill="black"/>
<circle cx="271.5" cy="242.5" r="2.5" transform="rotate(-90 271.5 242.5)" fill="black"/>
<circle cx="271.5" cy="232.5" r="2.5" transform="rotate(-90 271.5 232.5)" fill="black"/>
<circle cx="271.5" cy="223.5" r="2.5" transform="rotate(-90 271.5 223.5)" fill="black"/>
<circle cx="271.5" cy="213.5" r="2.5" transform="rotate(-90 271.5 213.5)" fill="black"/>
<circle cx="271.5" cy="204.5" r="2.5" transform="rotate(-90 271.5 204.5)" fill="black"/>
<circle cx="271.5" cy="195.5" r="2.5" transform="rotate(-90 271.5 195.5)" fill="black"/>
<circle cx="271.5" cy="185.5" r="2.5" transform="rotate(-90 271.5 185.5)" fill="black"/>
<circle cx="271.5" cy="175.5" r="2.5" transform="rotate(-90 271.5 175.5)" fill="black"/>
<circle cx="271.5" cy="166.5" r="2.5" transform="rotate(-90 271.5 166.5)" fill="black"/>
<circle cx="271.5" cy="156.5" r="2.5" transform="rotate(-90 271.5 156.5)" fill="black"/>
<circle cx="271.5" cy="147.5" r="2.5" transform="rotate(-90 271.5 147.5)" fill="black"/>
<circle cx="271.5" cy="138.5" r="2.5" transform="rotate(-90 271.5 138.5)" fill="black"/>
<circle cx="271.5" cy="128.5" r="2.5" transform="rotate(-90 271.5 128.5)" fill="black"/>
<circle cx="271.5" cy="118.5" r="2.5" transform="rotate(-90 271.5 118.5)" fill="black"/>
<circle cx="271.5" cy="109.5" r="2.5" transform="rotate(-90 271.5 109.5)" fill="black"/>
<circle cx="271.5" cy="99.5" r="2.5" transform="rotate(-90 271.5 99.5)" fill="black"/>
<circle cx="271.5" cy="90.5" r="2.5" transform="rotate(-90 271.5 90.5)" fill="black"/>
<circle cx="271.5" cy="81.5" r="2.5" transform="rotate(-90 271.5 81.5)" fill="black"/>
<circle cx="271.5" cy="71.5" r="2.5" transform="rotate(-90 271.5 71.5)" fill="black"/>
<circle cx="271.5" cy="61.5" r="2.5" transform="rotate(-90 271.5 61.5)" fill="black"/>
<circle cx="271.5" cy="52.5" r="2.5" transform="rotate(-90 271.5 52.5)" fill="black"/>
<circle cx="271.5" cy="42.5" r="2.5" transform="rotate(-90 271.5 42.5)" fill="black"/>
<circle cx="271.5" cy="33.5" r="2.5" transform="rotate(-90 271.5 33.5)" fill="black"/>
<circle cx="271.5" cy="23.5" r="2.5" transform="rotate(-90 271.5 23.5)" fill="black"/>
<circle cx="271.5" cy="14.5" r="2.5" transform="rotate(-90 271.5 14.5)" fill="black"/>
<circle cx="271.5" cy="4.5" r="2.5" transform="rotate(-90 271.5 4.5)" fill="black"/>
<circle cx="280.5" cy="289.5" r="2.5" transform="rotate(-90 280.5 289.5)" fill="black"/>
<circle cx="280.5" cy="280.5" r="2.5" transform="rotate(-90 280.5 280.5)" fill="black"/>
<circle cx="280.5" cy="270.5" r="2.5" transform="rotate(-90 280.5 270.5)" fill="black"/>
<circle cx="280.5" cy="261.5" r="2.5" transform="rotate(-90 280.5 261.5)" fill="black"/>
<circle cx="280.5" cy="252.5" r="2.5" transform="rotate(-90 280.5 252.5)" fill="black"/>
<circle cx="280.5" cy="242.5" r="2.5" transform="rotate(-90 280.5 242.5)" fill="black"/>
<circle cx="280.5" cy="232.5" r="2.5" transform="rotate(-90 280.5 232.5)" fill="black"/>
<circle cx="280.5" cy="223.5" r="2.5" transform="rotate(-90 280.5 223.5)" fill="black"/>
<circle cx="280.5" cy="213.5" r="2.5" transform="rotate(-90 280.5 213.5)" fill="black"/>
<circle cx="280.5" cy="204.5" r="2.5" transform="rotate(-90 280.5 204.5)" fill="black"/>
<circle cx="280.5" cy="195.5" r="2.5" transform="rotate(-90 280.5 195.5)" fill="black"/>
<circle cx="280.5" cy="185.5" r="2.5" transform="rotate(-90 280.5 185.5)" fill="black"/>
<circle cx="280.5" cy="175.5" r="2.5" transform="rotate(-90 280.5 175.5)" fill="black"/>
<circle cx="280.5" cy="166.5" r="2.5" transform="rotate(-90 280.5 166.5)" fill="black"/>
<circle cx="280.5" cy="156.5" r="2.5" transform="rotate(-90 280.5 156.5)" fill="black"/>
<circle cx="280.5" cy="147.5" r="2.5" transform="rotate(-90 280.5 147.5)" fill="black"/>
<circle cx="280.5" cy="138.5" r="2.5" transform="rotate(-90 280.5 138.5)" fill="black"/>
<circle cx="280.5" cy="128.5" r="2.5" transform="rotate(-90 280.5 128.5)" fill="black"/>
<circle cx="280.5" cy="118.5" r="2.5" transform="rotate(-90 280.5 118.5)" fill="black"/>
<circle cx="280.5" cy="109.5" r="2.5" transform="rotate(-90 280.5 109.5)" fill="black"/>
<circle cx="280.5" cy="99.5" r="2.5" transform="rotate(-90 280.5 99.5)" fill="black"/>
<circle cx="280.5" cy="90.5" r="2.5" transform="rotate(-90 280.5 90.5)" fill="black"/>
<circle cx="280.5" cy="81.5" r="2.5" transform="rotate(-90 280.5 81.5)" fill="black"/>
<circle cx="280.5" cy="71.5" r="2.5" transform="rotate(-90 280.5 71.5)" fill="black"/>
<circle cx="280.5" cy="61.5" r="2.5" transform="rotate(-90 280.5 61.5)" fill="black"/>
<circle cx="280.5" cy="52.5" r="2.5" transform="rotate(-90 280.5 52.5)" fill="black"/>
<circle cx="280.5" cy="42.5" r="2.5" transform="rotate(-90 280.5 42.5)" fill="black"/>
<circle cx="280.5" cy="33.5" r="2.5" transform="rotate(-90 280.5 33.5)" fill="black"/>
<circle cx="280.5" cy="23.5" r="2.5" transform="rotate(-90 280.5 23.5)" fill="black"/>
<circle cx="280.5" cy="14.5" r="2.5" transform="rotate(-90 280.5 14.5)" fill="black"/>
<circle cx="280.5" cy="4.5" r="2.5" transform="rotate(-90 280.5 4.5)" fill="black"/>
<circle cx="290.5" cy="289.5" r="2.5" transform="rotate(-90 290.5 289.5)" fill="black"/>
<circle cx="290.5" cy="280.5" r="2.5" transform="rotate(-90 290.5 280.5)" fill="black"/>
<circle cx="290.5" cy="270.5" r="2.5" transform="rotate(-90 290.5 270.5)" fill="black"/>
<circle cx="290.5" cy="261.5" r="2.5" transform="rotate(-90 290.5 261.5)" fill="black"/>
<circle cx="290.5" cy="252.5" r="2.5" transform="rotate(-90 290.5 252.5)" fill="black"/>
<circle cx="290.5" cy="242.5" r="2.5" transform="rotate(-90 290.5 242.5)" fill="black"/>
<circle cx="290.5" cy="232.5" r="2.5" transform="rotate(-90 290.5 232.5)" fill="black"/>
<circle cx="290.5" cy="223.5" r="2.5" transform="rotate(-90 290.5 223.5)" fill="black"/>
<circle cx="290.5" cy="213.5" r="2.5" transform="rotate(-90 290.5 213.5)" fill="black"/>
<circle cx="290.5" cy="204.5" r="2.5" transform="rotate(-90 290.5 204.5)" fill="black"/>
<circle cx="290.5" cy="195.5" r="2.5" transform="rotate(-90 290.5 195.5)" fill="black"/>
<circle cx="290.5" cy="185.5" r="2.5" transform="rotate(-90 290.5 185.5)" fill="black"/>
<circle cx="290.5" cy="175.5" r="2.5" transform="rotate(-90 290.5 175.5)" fill="black"/>
<circle cx="290.5" cy="166.5" r="2.5" transform="rotate(-90 290.5 166.5)" fill="black"/>
<circle cx="290.5" cy="156.5" r="2.5" transform="rotate(-90 290.5 156.5)" fill="black"/>
<circle cx="290.5" cy="147.5" r="2.5" transform="rotate(-90 290.5 147.5)" fill="black"/>
<circle cx="290.5" cy="138.5" r="2.5" transform="rotate(-90 290.5 138.5)" fill="black"/>
<circle cx="290.5" cy="128.5" r="2.5" transform="rotate(-90 290.5 128.5)" fill="black"/>
<circle cx="290.5" cy="118.5" r="2.5" transform="rotate(-90 290.5 118.5)" fill="black"/>
<circle cx="290.5" cy="109.5" r="2.5" transform="rotate(-90 290.5 109.5)" fill="black"/>
<circle cx="290.5" cy="99.5" r="2.5" transform="rotate(-90 290.5 99.5)" fill="black"/>
<circle cx="290.5" cy="90.5" r="2.5" transform="rotate(-90 290.5 90.5)" fill="black"/>
<circle cx="290.5" cy="81.5" r="2.5" transform="rotate(-90 290.5 81.5)" fill="black"/>
<circle cx="290.5" cy="71.5" r="2.5" transform="rotate(-90 290.5 71.5)" fill="black"/>
<circle cx="290.5" cy="61.5" r="2.5" transform="rotate(-90 290.5 61.5)" fill="black"/>
<circle cx="290.5" cy="52.5" r="2.5" transform="rotate(-90 290.5 52.5)" fill="black"/>
<circle cx="290.5" cy="42.5" r="2.5" transform="rotate(-90 290.5 42.5)" fill="black"/>
<circle cx="290.5" cy="33.5" r="2.5" transform="rotate(-90 290.5 33.5)" fill="black"/>
<circle cx="290.5" cy="23.5" r="2.5" transform="rotate(-90 290.5 23.5)" fill="black"/>
<circle cx="290.5" cy="14.5" r="2.5" transform="rotate(-90 290.5 14.5)" fill="black"/>
<circle cx="290.5" cy="4.5" r="2.5" transform="rotate(-90 290.5 4.5)" fill="black"/>
<circle cx="300.5" cy="289.5" r="2.5" transform="rotate(-90 300.5 289.5)" fill="black"/>
<circle cx="300.5" cy="280.5" r="2.5" transform="rotate(-90 300.5 280.5)" fill="black"/>
<circle cx="300.5" cy="270.5" r="2.5" transform="rotate(-90 300.5 270.5)" fill="black"/>
<circle cx="300.5" cy="261.5" r="2.5" transform="rotate(-90 300.5 261.5)" fill="black"/>
<circle cx="300.5" cy="252.5" r="2.5" transform="rotate(-90 300.5 252.5)" fill="black"/>
<circle cx="300.5" cy="242.5" r="2.5" transform="rotate(-90 300.5 242.5)" fill="black"/>
<circle cx="300.5" cy="232.5" r="2.5" transform="rotate(-90 300.5 232.5)" fill="black"/>
<circle cx="300.5" cy="223.5" r="2.5" transform="rotate(-90 300.5 223.5)" fill="black"/>
<circle cx="300.5" cy="213.5" r="2.5" transform="rotate(-90 300.5 213.5)" fill="black"/>
<circle cx="300.5" cy="204.5" r="2.5" transform="rotate(-90 300.5 204.5)" fill="black"/>
<circle cx="300.5" cy="195.5" r="2.5" transform="rotate(-90 300.5 195.5)" fill="black"/>
<circle cx="300.5" cy="185.5" r="2.5" transform="rotate(-90 300.5 185.5)" fill="black"/>
<circle cx="300.5" cy="175.5" r="2.5" transform="rotate(-90 300.5 175.5)" fill="black"/>
<circle cx="300.5" cy="166.5" r="2.5" transform="rotate(-90 300.5 166.5)" fill="black"/>
<circle cx="300.5" cy="156.5" r="2.5" transform="rotate(-90 300.5 156.5)" fill="black"/>
<circle cx="300.5" cy="147.5" r="2.5" transform="rotate(-90 300.5 147.5)" fill="black"/>
<circle cx="300.5" cy="138.5" r="2.5" transform="rotate(-90 300.5 138.5)" fill="black"/>
<circle cx="300.5" cy="128.5" r="2.5" transform="rotate(-90 300.5 128.5)" fill="black"/>
<circle cx="300.5" cy="118.5" r="2.5" transform="rotate(-90 300.5 118.5)" fill="black"/>
<circle cx="300.5" cy="109.5" r="2.5" transform="rotate(-90 300.5 109.5)" fill="black"/>
<circle cx="300.5" cy="99.5" r="2.5" transform="rotate(-90 300.5 99.5)" fill="black"/>
<circle cx="300.5" cy="90.5" r="2.5" transform="rotate(-90 300.5 90.5)" fill="black"/>
<circle cx="300.5" cy="81.5" r="2.5" transform="rotate(-90 300.5 81.5)" fill="black"/>
<circle cx="300.5" cy="71.5" r="2.5" transform="rotate(-90 300.5 71.5)" fill="black"/>
<circle cx="300.5" cy="61.5" r="2.5" transform="rotate(-90 300.5 61.5)" fill="black"/>
<circle cx="300.5" cy="52.5" r="2.5" transform="rotate(-90 300.5 52.5)" fill="black"/>
<circle cx="300.5" cy="42.5" r="2.5" transform="rotate(-90 300.5 42.5)" fill="black"/>
<circle cx="300.5" cy="33.5" r="2.5" transform="rotate(-90 300.5 33.5)" fill="black"/>
<circle cx="300.5" cy="23.5" r="2.5" transform="rotate(-90 300.5 23.5)" fill="black"/>
<circle cx="300.5" cy="14.5" r="2.5" transform="rotate(-90 300.5 14.5)" fill="black"/>
<circle cx="300.5" cy="4.5" r="2.5" transform="rotate(-90 300.5 4.5)" fill="black"/>
<circle cx="309.5" cy="289.5" r="2.5" transform="rotate(-90 309.5 289.5)" fill="black"/>
<circle cx="309.5" cy="280.5" r="2.5" transform="rotate(-90 309.5 280.5)" fill="black"/>
<circle cx="309.5" cy="270.5" r="2.5" transform="rotate(-90 309.5 270.5)" fill="black"/>
<circle cx="309.5" cy="261.5" r="2.5" transform="rotate(-90 309.5 261.5)" fill="black"/>
<circle cx="309.5" cy="252.5" r="2.5" transform="rotate(-90 309.5 252.5)" fill="black"/>
<circle cx="309.5" cy="242.5" r="2.5" transform="rotate(-90 309.5 242.5)" fill="black"/>
<circle cx="309.5" cy="232.5" r="2.5" transform="rotate(-90 309.5 232.5)" fill="black"/>
<circle cx="309.5" cy="223.5" r="2.5" transform="rotate(-90 309.5 223.5)" fill="black"/>
<circle cx="309.5" cy="213.5" r="2.5" transform="rotate(-90 309.5 213.5)" fill="black"/>
<circle cx="309.5" cy="204.5" r="2.5" transform="rotate(-90 309.5 204.5)" fill="black"/>
<circle cx="309.5" cy="195.5" r="2.5" transform="rotate(-90 309.5 195.5)" fill="black"/>
<circle cx="309.5" cy="185.5" r="2.5" transform="rotate(-90 309.5 185.5)" fill="black"/>
<circle cx="309.5" cy="175.5" r="2.5" transform="rotate(-90 309.5 175.5)" fill="black"/>
<circle cx="309.5" cy="166.5" r="2.5" transform="rotate(-90 309.5 166.5)" fill="black"/>
<circle cx="309.5" cy="156.5" r="2.5" transform="rotate(-90 309.5 156.5)" fill="black"/>
<circle cx="309.5" cy="147.5" r="2.5" transform="rotate(-90 309.5 147.5)" fill="black"/>
<circle cx="309.5" cy="138.5" r="2.5" transform="rotate(-90 309.5 138.5)" fill="black"/>
<circle cx="309.5" cy="128.5" r="2.5" transform="rotate(-90 309.5 128.5)" fill="black"/>
<circle cx="309.5" cy="118.5" r="2.5" transform="rotate(-90 309.5 118.5)" fill="black"/>
<circle cx="309.5" cy="109.5" r="2.5" transform="rotate(-90 309.5 109.5)" fill="black"/>
<circle cx="309.5" cy="99.5" r="2.5" transform="rotate(-90 309.5 99.5)" fill="black"/>
<circle cx="309.5" cy="90.5" r="2.5" transform="rotate(-90 309.5 90.5)" fill="black"/>
<circle cx="309.5" cy="81.5" r="2.5" transform="rotate(-90 309.5 81.5)" fill="black"/>
<circle cx="309.5" cy="71.5" r="2.5" transform="rotate(-90 309.5 71.5)" fill="black"/>
<circle cx="309.5" cy="61.5" r="2.5" transform="rotate(-90 309.5 61.5)" fill="black"/>
<circle cx="309.5" cy="52.5" r="2.5" transform="rotate(-90 309.5 52.5)" fill="black"/>
<circle cx="309.5" cy="42.5" r="2.5" transform="rotate(-90 309.5 42.5)" fill="black"/>
<circle cx="309.5" cy="33.5" r="2.5" transform="rotate(-90 309.5 33.5)" fill="black"/>
<circle cx="309.5" cy="23.5" r="2.5" transform="rotate(-90 309.5 23.5)" fill="black"/>
<circle cx="309.5" cy="14.5" r="2.5" transform="rotate(-90 309.5 14.5)" fill="black"/>
<circle cx="309.5" cy="4.5" r="2.5" transform="rotate(-90 309.5 4.5)" fill="black"/>
</g>
</svg>
