<svg width="992" height="1000" viewBox="0 0 992 1000" fill="none" xmlns="http://www.w3.org/2000/svg">
<path d="M82.666 0V1000" stroke="black" stroke-width="8"/>
<path d="M578.666 0V1000" stroke="black" stroke-width="8"/>
<path d="M165.334 0V1000" stroke="black" stroke-width="8"/>
<path d="M661.334 0V1000" stroke="black" stroke-width="8"/>
<path d="M248 0V1000" stroke="black" stroke-width="8"/>
<path d="M744 0V1000" stroke="black" stroke-width="8"/>
<path d="M330.666 0V1000" stroke="black" stroke-width="8"/>
<path d="M826.666 0V1000" stroke="black" stroke-width="8"/>
<path d="M413.334 0V1000" stroke="black" stroke-width="8"/>
<path d="M909.334 0V1000" stroke="black" stroke-width="8"/>
<path d="M496 0V1000" stroke="black" stroke-width="8"/>
<path d="M992 83.3359L6.41942e-05 83.3359" stroke="black" stroke-width="8"/>
<path d="M992 583.336L6.41942e-05 583.336" stroke="black" stroke-width="8"/>
<path d="M992 166.664L6.41942e-05 166.664" stroke="black" stroke-width="8"/>
<path d="M992 666.664L6.41942e-05 666.664" stroke="black" stroke-width="8"/>
<path d="M992 250L6.41942e-05 250" stroke="black" stroke-width="8"/>
<path d="M992 750L6.41942e-05 750" stroke="black" stroke-width="8"/>
<path d="M992 333.336L6.41942e-05 333.336" stroke="black" stroke-width="8"/>
<path d="M992 833.336L6.41942e-05 833.336" stroke="black" stroke-width="8"/>
<path d="M992 416.664L6.41942e-05 416.664" stroke="black" stroke-width="8"/>
<path d="M992 916.664L6.41942e-05 916.664" stroke="black" stroke-width="8"/>
<path d="M992 500L0.00011702 500" stroke="black" stroke-width="8"/>
</svg>
