<svg width="1560" height="150" viewBox="0 0 1560 150" fill="none" xmlns="http://www.w3.org/2000/svg">
<mask id="path-1-outside-1_160_146695" maskUnits="userSpaceOnUse" x="282" y="37" width="54" height="75" fill="black">
<rect fill="white" x="282" y="37" width="54" height="75"/>
<path d="M284.392 111V104.608L323.597 46.0852H283.966V38.2727H334.108V44.6648L294.903 103.188H334.534V111H284.392Z"/>
</mask>
<path d="M284.392 111V104.608L323.597 46.0852H283.966V38.2727H334.108V44.6648L294.903 103.188H334.534V111H284.392Z" fill="black"/>
<path d="M284.392 111H283.392V112H284.392V111ZM284.392 104.608L283.561 104.051L283.392 104.304V104.608H284.392ZM323.597 46.0852L324.427 46.6418L325.47 45.0852H323.597V46.0852ZM283.966 46.0852H282.966V47.0852H283.966V46.0852ZM283.966 38.2727V37.2727H282.966V38.2727H283.966ZM334.108 38.2727H335.108V37.2727H334.108V38.2727ZM334.108 44.6648L334.939 45.2213L335.108 44.9688V44.6648H334.108ZM294.903 103.188L294.073 102.631L293.03 104.188H294.903V103.188ZM334.534 103.188H335.534V102.188H334.534V103.188ZM334.534 111V112H335.534V111H334.534ZM285.392 111V104.608H283.392V111H285.392ZM285.223 105.165L324.427 46.6418L322.766 45.5287L283.561 104.051L285.223 105.165ZM323.597 45.0852H283.966V47.0852H323.597V45.0852ZM284.966 46.0852V38.2727H282.966V46.0852H284.966ZM283.966 39.2727H334.108V37.2727H283.966V39.2727ZM333.108 38.2727V44.6648H335.108V38.2727H333.108ZM333.277 44.1082L294.073 102.631L295.734 103.744L334.939 45.2213L333.277 44.1082ZM294.903 104.188H334.534V102.188H294.903V104.188ZM333.534 103.188V111H335.534V103.188H333.534ZM334.534 110H284.392V112H334.534V110Z" fill="black" mask="url(#path-1-outside-1_160_146695)"/>
<mask id="path-3-outside-2_160_146695" maskUnits="userSpaceOnUse" x="4" y="36" width="250" height="77" fill="black">
<rect fill="white" x="4" y="36" width="250" height="77"/>
<path d="M67.3295 61H58.5227C58.0019 58.4669 57.0904 56.2415 55.7884 54.3239C54.5099 52.4062 52.9474 50.7964 51.1009 49.4943C49.2779 48.1686 47.2538 47.1742 45.0284 46.5114C42.803 45.8485 40.483 45.517 38.0682 45.517C33.6648 45.517 29.6757 46.6297 26.1009 48.8551C22.5497 51.0805 19.7206 54.3594 17.6136 58.6918C15.5303 63.0241 14.4886 68.339 14.4886 74.6364C14.4886 80.9337 15.5303 86.2486 17.6136 90.581C19.7206 94.9134 22.5497 98.1922 26.1009 100.418C29.6757 102.643 33.6648 103.756 38.0682 103.756C40.483 103.756 42.803 103.424 45.0284 102.761C47.2538 102.098 49.2779 101.116 51.1009 99.8139C52.9474 98.4882 54.5099 96.8665 55.7884 94.9489C57.0904 93.0076 58.0019 90.7822 58.5227 88.2727H67.3295C66.6667 91.9896 65.4593 95.3158 63.7074 98.2514C61.9555 101.187 59.7775 103.685 57.1733 105.744C54.5691 107.78 51.6454 109.331 48.402 110.396C45.1823 111.462 41.7377 111.994 38.0682 111.994C31.8655 111.994 26.3494 110.479 21.5199 107.449C16.6903 104.419 12.8906 100.11 10.1207 94.5227C7.35085 88.9356 5.96591 82.3068 5.96591 74.6364C5.96591 66.9659 7.35085 60.3371 10.1207 54.75C12.8906 49.1629 16.6903 44.8542 21.5199 41.8239C26.3494 38.7936 31.8655 37.2784 38.0682 37.2784C41.7377 37.2784 45.1823 37.8111 48.402 38.8764C51.6454 39.9418 54.5691 41.5043 57.1733 43.5639C59.7775 45.5999 61.9555 48.0857 63.7074 51.0213C65.4593 53.9332 66.6667 57.2595 67.3295 61ZM77.5835 46.0852V38.2727H132.129V46.0852H109.26V111H100.453V46.0852H77.5835ZM145.721 111V38.2727H170.295C175.977 38.2727 180.64 39.2434 184.286 41.1847C187.932 43.1023 190.631 45.7419 192.383 49.1037C194.135 52.4654 195.011 56.2888 195.011 60.5739C195.011 64.8589 194.135 68.6586 192.383 71.973C190.631 75.2874 187.944 77.8916 184.322 79.7855C180.7 81.6558 176.071 82.5909 170.437 82.5909H150.55V74.6364H170.153C174.035 74.6364 177.16 74.0682 179.528 72.9318C181.919 71.7955 183.647 70.1856 184.712 68.1023C185.801 65.9953 186.346 63.4858 186.346 60.5739C186.346 57.6619 185.801 55.1169 184.712 52.9389C183.623 50.7609 181.883 49.08 179.492 47.8963C177.101 46.6889 173.941 46.0852 170.011 46.0852H154.528V111H145.721ZM179.954 78.3295L197.852 111H187.624L170.011 78.3295H179.954ZM209.686 111V38.2727H218.493V103.188H252.299V111H209.686Z"/>
</mask>
<path d="M67.3295 61H58.5227C58.0019 58.4669 57.0904 56.2415 55.7884 54.3239C54.5099 52.4062 52.9474 50.7964 51.1009 49.4943C49.2779 48.1686 47.2538 47.1742 45.0284 46.5114C42.803 45.8485 40.483 45.517 38.0682 45.517C33.6648 45.517 29.6757 46.6297 26.1009 48.8551C22.5497 51.0805 19.7206 54.3594 17.6136 58.6918C15.5303 63.0241 14.4886 68.339 14.4886 74.6364C14.4886 80.9337 15.5303 86.2486 17.6136 90.581C19.7206 94.9134 22.5497 98.1922 26.1009 100.418C29.6757 102.643 33.6648 103.756 38.0682 103.756C40.483 103.756 42.803 103.424 45.0284 102.761C47.2538 102.098 49.2779 101.116 51.1009 99.8139C52.9474 98.4882 54.5099 96.8665 55.7884 94.9489C57.0904 93.0076 58.0019 90.7822 58.5227 88.2727H67.3295C66.6667 91.9896 65.4593 95.3158 63.7074 98.2514C61.9555 101.187 59.7775 103.685 57.1733 105.744C54.5691 107.78 51.6454 109.331 48.402 110.396C45.1823 111.462 41.7377 111.994 38.0682 111.994C31.8655 111.994 26.3494 110.479 21.5199 107.449C16.6903 104.419 12.8906 100.11 10.1207 94.5227C7.35085 88.9356 5.96591 82.3068 5.96591 74.6364C5.96591 66.9659 7.35085 60.3371 10.1207 54.75C12.8906 49.1629 16.6903 44.8542 21.5199 41.8239C26.3494 38.7936 31.8655 37.2784 38.0682 37.2784C41.7377 37.2784 45.1823 37.8111 48.402 38.8764C51.6454 39.9418 54.5691 41.5043 57.1733 43.5639C59.7775 45.5999 61.9555 48.0857 63.7074 51.0213C65.4593 53.9332 66.6667 57.2595 67.3295 61ZM77.5835 46.0852V38.2727H132.129V46.0852H109.26V111H100.453V46.0852H77.5835ZM145.721 111V38.2727H170.295C175.977 38.2727 180.64 39.2434 184.286 41.1847C187.932 43.1023 190.631 45.7419 192.383 49.1037C194.135 52.4654 195.011 56.2888 195.011 60.5739C195.011 64.8589 194.135 68.6586 192.383 71.973C190.631 75.2874 187.944 77.8916 184.322 79.7855C180.7 81.6558 176.071 82.5909 170.437 82.5909H150.55V74.6364H170.153C174.035 74.6364 177.16 74.0682 179.528 72.9318C181.919 71.7955 183.647 70.1856 184.712 68.1023C185.801 65.9953 186.346 63.4858 186.346 60.5739C186.346 57.6619 185.801 55.1169 184.712 52.9389C183.623 50.7609 181.883 49.08 179.492 47.8963C177.101 46.6889 173.941 46.0852 170.011 46.0852H154.528V111H145.721ZM179.954 78.3295L197.852 111H187.624L170.011 78.3295H179.954ZM209.686 111V38.2727H218.493V103.188H252.299V111H209.686Z" fill="black"/>
<path d="M67.3295 61V62H68.5223L68.3142 60.8255L67.3295 61ZM58.5227 61L57.5432 61.2014L57.7074 62H58.5227V61ZM55.7884 54.3239L54.9563 54.8786L54.961 54.8856L55.7884 54.3239ZM51.1009 49.4943L50.5127 50.3031L50.5186 50.3074L50.5246 50.3116L51.1009 49.4943ZM45.0284 46.5114L44.7429 47.4697L44.7429 47.4697L45.0284 46.5114ZM26.1009 48.8551L25.5724 48.0062L25.5698 48.0077L26.1009 48.8551ZM17.6136 58.6918L16.7143 58.2544L16.7124 58.2584L17.6136 58.6918ZM17.6136 90.581L16.7124 91.0143L16.7144 91.0183L17.6136 90.581ZM26.1009 100.418L25.5698 101.265L25.5724 101.267L26.1009 100.418ZM45.0284 102.761L44.7429 101.803L44.7429 101.803L45.0284 102.761ZM51.1009 99.8139L51.6821 100.628L51.6841 100.626L51.1009 99.8139ZM55.7884 94.9489L54.9579 94.3918L54.9563 94.3942L55.7884 94.9489ZM58.5227 88.2727V87.2727H57.709L57.5436 88.0695L58.5227 88.2727ZM67.3295 88.2727L68.314 88.4483L68.5237 87.2727H67.3295V88.2727ZM63.7074 98.2514L62.8487 97.739L62.8487 97.739L63.7074 98.2514ZM57.1733 105.744L57.7892 106.532L57.7936 106.529L57.1733 105.744ZM48.402 110.396L48.0899 109.446L48.0879 109.447L48.402 110.396ZM21.5199 107.449L20.9884 108.296L20.9884 108.296L21.5199 107.449ZM10.1207 94.5227L11.0167 94.0786L11.0167 94.0786L10.1207 94.5227ZM48.402 38.8764L48.0879 39.8258L48.0899 39.8265L48.402 38.8764ZM57.1733 43.5639L56.553 44.3483L56.5574 44.3517L57.1733 43.5639ZM63.7074 51.0213L62.8487 51.5338L62.8505 51.5368L63.7074 51.0213ZM67.3295 60H58.5227V62H67.3295V60ZM59.5022 60.7986C58.958 58.1514 57.9998 55.8006 56.6157 53.7621L54.961 54.8856C56.1811 56.6824 57.0458 58.7823 57.5432 61.2014L59.5022 60.7986ZM56.6204 53.7692C55.275 51.7511 53.6265 50.0516 51.6771 48.6771L50.5246 50.3116C52.2684 51.5412 53.7449 53.0614 54.9563 54.8786L56.6204 53.7692ZM51.689 48.6856C49.7717 47.2911 47.6446 46.2472 45.3139 45.553L44.7429 47.4697C46.863 48.1013 48.7842 49.046 50.5127 50.3031L51.689 48.6856ZM45.3139 45.553C42.9922 44.8614 40.5757 44.517 38.0682 44.517V46.517C40.3902 46.517 42.6139 46.8356 44.7429 47.4697L45.3139 45.553ZM38.0682 44.517C33.4869 44.517 29.3132 45.6774 25.5724 48.0062L26.6293 49.7041C30.0381 47.582 33.8426 46.517 38.0682 46.517V44.517ZM25.5698 48.0077C21.8373 50.3468 18.8908 53.7793 16.7144 58.2544L18.5129 59.1291C20.5505 54.9395 23.2621 51.8142 26.6319 49.7025L25.5698 48.0077ZM16.7124 58.2584C14.5472 62.7611 13.4886 68.2336 13.4886 74.6364H15.4886C15.4886 68.4444 16.5134 63.2872 18.5149 59.1251L16.7124 58.2584ZM13.4886 74.6364C13.4886 81.0391 14.5472 86.5116 16.7124 91.0143L18.5149 90.1476C16.5134 85.9856 15.4886 80.8283 15.4886 74.6364H13.4886ZM16.7144 91.0183C18.8908 95.4934 21.8373 98.9259 25.5698 101.265L26.6319 99.5703C23.2621 97.4585 20.5505 94.3333 18.5129 90.1436L16.7144 91.0183ZM25.5724 101.267C29.3132 103.595 33.4869 104.756 38.0682 104.756V102.756C33.8426 102.756 30.0381 101.691 26.6293 99.5687L25.5724 101.267ZM38.0682 104.756C40.5757 104.756 42.9922 104.411 45.3139 103.72L44.7429 101.803C42.6139 102.437 40.3902 102.756 38.0682 102.756V104.756ZM45.3139 103.72C47.6413 103.026 49.766 101.996 51.6821 100.628L50.5196 99.0002C48.7899 100.236 46.8663 101.17 44.7429 101.803L45.3139 103.72ZM51.6841 100.626C53.6298 99.2293 55.2762 97.5199 56.6204 95.5036L54.9563 94.3942C53.7437 96.213 52.2651 97.747 50.5176 99.0016L51.6841 100.626ZM56.6188 95.5059C57.9995 93.4475 58.9573 91.0996 59.5019 88.4759L57.5436 88.0695C57.0465 90.4648 56.1814 92.5677 54.9579 94.3918L56.6188 95.5059ZM58.5227 89.2727H67.3295V87.2727H58.5227V89.2727ZM66.3451 88.0972C65.7012 91.7074 64.5325 94.9174 62.8487 97.739L64.5661 98.7639C66.3861 95.7142 67.6321 92.2717 68.314 88.4483L66.3451 88.0972ZM62.8487 97.739C61.1572 100.573 59.059 102.978 56.553 104.96L57.7936 106.529C60.496 104.391 62.7538 101.801 64.5661 98.7639L62.8487 97.739ZM56.5574 104.957C54.0473 106.919 51.227 108.416 48.0899 109.446L48.7141 111.346C52.0637 110.246 55.0909 108.642 57.7892 106.532L56.5574 104.957ZM48.0879 109.447C44.9775 110.476 41.6397 110.994 38.0682 110.994V112.994C41.8357 112.994 45.3871 112.447 48.7161 111.346L48.0879 109.447ZM38.0682 110.994C32.0364 110.994 26.7077 109.523 22.0514 106.602L20.9884 108.296C25.9911 111.435 31.6947 112.994 38.0682 112.994V110.994ZM22.0514 106.602C17.3927 103.679 13.7125 99.5164 11.0167 94.0786L9.2248 94.9669C12.0687 100.703 15.988 105.158 20.9884 108.296L22.0514 106.602ZM11.0167 94.0786C8.32918 88.6576 6.96591 82.1875 6.96591 74.6364H4.96591C4.96591 82.4261 6.37253 89.2136 9.2248 94.9669L11.0167 94.0786ZM6.96591 74.6364C6.96591 67.0852 8.32918 60.6151 11.0167 55.1942L9.2248 54.3058C6.37253 60.0591 4.96591 66.8466 4.96591 74.6364H6.96591ZM11.0167 55.1942C13.7125 49.7564 17.3927 45.594 22.0514 42.6709L20.9884 40.9768C15.988 44.1143 12.0687 48.5694 9.2248 54.3058L11.0167 55.1942ZM22.0514 42.6709C26.7077 39.7493 32.0364 38.2784 38.0682 38.2784V36.2784C31.6947 36.2784 25.9911 37.8378 20.9884 40.9768L22.0514 42.6709ZM38.0682 38.2784C41.6397 38.2784 44.9775 38.7966 48.0879 39.8258L48.7161 37.927C45.3871 36.8255 41.8357 36.2784 38.0682 36.2784V38.2784ZM48.0899 39.8265C51.2248 40.8562 54.0436 42.3636 56.553 44.3483L57.7936 42.7796C55.0946 40.6449 52.0659 39.0273 48.7141 37.9264L48.0899 39.8265ZM56.5574 44.3517C59.061 46.3091 61.1578 48.7004 62.8487 51.5338L64.5661 50.5088C62.7532 47.4709 60.4939 44.8907 57.7892 42.7761L56.5574 44.3517ZM62.8505 51.5368C64.5323 54.3322 65.7009 57.5404 66.3449 61.1745L68.3142 60.8255C67.6325 56.9786 66.3863 53.5343 64.5643 50.5058L62.8505 51.5368ZM77.5835 46.0852H76.5835V47.0852H77.5835V46.0852ZM77.5835 38.2727V37.2727H76.5835V38.2727H77.5835ZM132.129 38.2727H133.129V37.2727H132.129V38.2727ZM132.129 46.0852V47.0852H133.129V46.0852H132.129ZM109.26 46.0852V45.0852H108.26V46.0852H109.26ZM109.26 111V112H110.26V111H109.26ZM100.453 111H99.4528V112H100.453V111ZM100.453 46.0852H101.453V45.0852H100.453V46.0852ZM78.5835 46.0852V38.2727H76.5835V46.0852H78.5835ZM77.5835 39.2727H132.129V37.2727H77.5835V39.2727ZM131.129 38.2727V46.0852H133.129V38.2727H131.129ZM132.129 45.0852H109.26V47.0852H132.129V45.0852ZM108.26 46.0852V111H110.26V46.0852H108.26ZM109.26 110H100.453V112H109.26V110ZM101.453 111V46.0852H99.4528V111H101.453ZM100.453 45.0852H77.5835V47.0852H100.453V45.0852ZM145.721 111H144.721V112H145.721V111ZM145.721 38.2727V37.2727H144.721V38.2727H145.721ZM184.286 41.1847L183.816 42.0673L183.821 42.0697L184.286 41.1847ZM192.383 49.1037L191.496 49.5658L191.496 49.5658L192.383 49.1037ZM192.383 71.973L191.499 71.5057L191.499 71.5057L192.383 71.973ZM184.322 79.7855L184.781 80.6741L184.785 80.6717L184.322 79.7855ZM150.55 82.5909H149.55V83.5909H150.55V82.5909ZM150.55 74.6364V73.6364H149.55V74.6364H150.55ZM179.528 72.9318L179.098 72.0286L179.095 72.0303L179.528 72.9318ZM184.712 68.1023L183.824 67.6431L183.822 67.647L184.712 68.1023ZM179.492 47.8963L179.041 48.789L179.049 48.7925L179.492 47.8963ZM154.528 46.0852V45.0852H153.528V46.0852H154.528ZM154.528 111V112H155.528V111H154.528ZM179.954 78.3295L180.831 77.8491L180.546 77.3295H179.954V78.3295ZM197.852 111V112H199.54L198.729 110.52L197.852 111ZM187.624 111L186.744 111.475L187.027 112H187.624V111ZM170.011 78.3295V77.3295H168.335L169.13 78.8041L170.011 78.3295ZM146.721 111V38.2727H144.721V111H146.721ZM145.721 39.2727H170.295V37.2727H145.721V39.2727ZM170.295 39.2727C175.871 39.2727 180.359 40.2265 183.816 42.0673L184.756 40.302C180.922 38.2602 176.082 37.2727 170.295 37.2727V39.2727ZM183.821 42.0697C187.303 43.9011 189.846 46.4004 191.496 49.5658L193.27 48.6416C191.415 45.0835 188.561 42.3034 184.752 40.2996L183.821 42.0697ZM191.496 49.5658C193.164 52.7672 194.011 56.4285 194.011 60.5739H196.011C196.011 56.1491 195.105 52.1637 193.27 48.6416L191.496 49.5658ZM194.011 60.5739C194.011 64.7195 193.164 68.3547 191.499 71.5057L193.267 72.4403C195.105 68.9625 196.011 64.9983 196.011 60.5739H194.011ZM191.499 71.5057C189.85 74.6249 187.318 77.0903 183.858 78.8993L184.785 80.6717C188.57 78.6928 191.412 75.9499 193.267 72.4403L191.499 71.5057ZM183.863 78.897C180.426 80.6714 175.969 81.5909 170.437 81.5909V83.5909C176.173 83.5909 180.973 82.6401 184.781 80.6741L183.863 78.897ZM170.437 81.5909H150.55V83.5909H170.437V81.5909ZM151.55 82.5909V74.6364H149.55V82.5909H151.55ZM150.55 75.6364H170.153V73.6364H150.55V75.6364ZM170.153 75.6364C174.119 75.6364 177.409 75.058 179.96 73.8333L179.095 72.0303C176.911 73.0784 173.951 73.6364 170.153 73.6364V75.6364ZM179.957 73.835C182.519 72.6172 184.424 70.8623 185.603 68.5576L183.822 67.647C182.87 69.5089 181.318 70.9737 179.098 72.0286L179.957 73.835ZM185.601 68.5614C186.778 66.2837 187.346 63.6097 187.346 60.5739H185.346C185.346 63.3619 184.825 65.7068 183.824 67.6431L185.601 68.5614ZM187.346 60.5739C187.346 57.5368 186.778 54.8332 185.607 52.4917L183.818 53.3861C184.825 55.4007 185.346 57.7871 185.346 60.5739H187.346ZM185.607 52.4917C184.411 50.1001 182.502 48.2706 179.936 47.0001L179.049 48.7925C181.264 49.8894 182.836 51.4217 183.818 53.3861L185.607 52.4917ZM179.943 47.0037C177.362 45.7005 174.03 45.0852 170.011 45.0852V47.0852C173.852 47.0852 176.84 47.6773 179.041 48.789L179.943 47.0037ZM170.011 45.0852H154.528V47.0852H170.011V45.0852ZM153.528 46.0852V111H155.528V46.0852H153.528ZM154.528 110H145.721V112H154.528V110ZM179.077 78.81L196.975 111.48L198.729 110.52L180.831 77.8491L179.077 78.81ZM197.852 110H187.624V112H197.852V110ZM188.505 110.525L170.891 77.855L169.13 78.8041L186.744 111.475L188.505 110.525ZM170.011 79.3295H179.954V77.3295H170.011V79.3295ZM209.686 111H208.686V112H209.686V111ZM209.686 38.2727V37.2727H208.686V38.2727H209.686ZM218.493 38.2727H219.493V37.2727H218.493V38.2727ZM218.493 103.188H217.493V104.188H218.493V103.188ZM252.299 103.188H253.299V102.188H252.299V103.188ZM252.299 111V112H253.299V111H252.299ZM210.686 111V38.2727H208.686V111H210.686ZM209.686 39.2727H218.493V37.2727H209.686V39.2727ZM217.493 38.2727V103.188H219.493V38.2727H217.493ZM218.493 104.188H252.299V102.188H218.493V104.188ZM251.299 103.188V111H253.299V103.188H251.299ZM252.299 110H209.686V112H252.299V110Z" fill="black" mask="url(#path-3-outside-2_160_146695)"/>
<path d="M256 42L286 59.3205V24.6795L256 42ZM318 39H283V45H318V39Z" fill="black"/>
<path d="M360 107L330 89.6795V124.321L360 107ZM298 110H333V104H298V110Z" fill="black"/>
<mask id="path-7-outside-3_160_146695" maskUnits="userSpaceOnUse" x="1082" y="37" width="54" height="75" fill="black">
<rect fill="white" x="1082" y="37" width="54" height="75"/>
<path d="M1084.39 111V104.608L1123.6 46.0852H1083.97V38.2727H1134.11V44.6648L1094.9 103.188H1134.53V111H1084.39Z"/>
</mask>
<path d="M1084.39 111V104.608L1123.6 46.0852H1083.97V38.2727H1134.11V44.6648L1094.9 103.188H1134.53V111H1084.39Z" fill="black"/>
<path d="M1084.39 111H1083.39V112H1084.39V111ZM1084.39 104.608L1083.56 104.051L1083.39 104.304V104.608H1084.39ZM1123.6 46.0852L1124.43 46.6418L1125.47 45.0852H1123.6V46.0852ZM1083.97 46.0852H1082.97V47.0852H1083.97V46.0852ZM1083.97 38.2727V37.2727H1082.97V38.2727H1083.97ZM1134.11 38.2727H1135.11V37.2727H1134.11V38.2727ZM1134.11 44.6648L1134.94 45.2213L1135.11 44.9688V44.6648H1134.11ZM1094.9 103.188L1094.07 102.631L1093.03 104.188H1094.9V103.188ZM1134.53 103.188H1135.53V102.188H1134.53V103.188ZM1134.53 111V112H1135.53V111H1134.53ZM1085.39 111V104.608H1083.39V111H1085.39ZM1085.22 105.165L1124.43 46.6418L1122.77 45.5287L1083.56 104.051L1085.22 105.165ZM1123.6 45.0852H1083.97V47.0852H1123.6V45.0852ZM1084.97 46.0852V38.2727H1082.97V46.0852H1084.97ZM1083.97 39.2727H1134.11V37.2727H1083.97V39.2727ZM1133.11 38.2727V44.6648H1135.11V38.2727H1133.11ZM1133.28 44.1082L1094.07 102.631L1095.73 103.744L1134.94 45.2213L1133.28 44.1082ZM1094.9 104.188H1134.53V102.188H1094.9V104.188ZM1133.53 103.188V111H1135.53V103.188H1133.53ZM1134.53 110H1084.39V112H1134.53V110Z" fill="black" mask="url(#path-7-outside-3_160_146695)"/>
<mask id="path-9-outside-4_160_146695" maskUnits="userSpaceOnUse" x="804" y="36" width="250" height="77" fill="black">
<rect fill="white" x="804" y="36" width="250" height="77"/>
<path d="M867.33 61H858.523C858.002 58.4669 857.09 56.2415 855.788 54.3239C854.51 52.4062 852.947 50.7964 851.101 49.4943C849.278 48.1686 847.254 47.1742 845.028 46.5114C842.803 45.8485 840.483 45.517 838.068 45.517C833.665 45.517 829.676 46.6297 826.101 48.8551C822.55 51.0805 819.721 54.3594 817.614 58.6918C815.53 63.0241 814.489 68.339 814.489 74.6364C814.489 80.9337 815.53 86.2486 817.614 90.581C819.721 94.9134 822.55 98.1922 826.101 100.418C829.676 102.643 833.665 103.756 838.068 103.756C840.483 103.756 842.803 103.424 845.028 102.761C847.254 102.098 849.278 101.116 851.101 99.8139C852.947 98.4882 854.51 96.8665 855.788 94.9489C857.09 93.0076 858.002 90.7822 858.523 88.2727H867.33C866.667 91.9896 865.459 95.3158 863.707 98.2514C861.955 101.187 859.777 103.685 857.173 105.744C854.569 107.78 851.645 109.331 848.402 110.396C845.182 111.462 841.738 111.994 838.068 111.994C831.866 111.994 826.349 110.479 821.52 107.449C816.69 104.419 812.891 100.11 810.121 94.5227C807.351 88.9356 805.966 82.3068 805.966 74.6364C805.966 66.9659 807.351 60.3371 810.121 54.75C812.891 49.1629 816.69 44.8542 821.52 41.8239C826.349 38.7936 831.866 37.2784 838.068 37.2784C841.738 37.2784 845.182 37.8111 848.402 38.8764C851.645 39.9418 854.569 41.5043 857.173 43.5639C859.777 45.5999 861.955 48.0857 863.707 51.0213C865.459 53.9332 866.667 57.2595 867.33 61ZM877.583 46.0852V38.2727H932.129V46.0852H909.26V111H900.453V46.0852H877.583ZM945.721 111V38.2727H970.295C975.977 38.2727 980.64 39.2434 984.286 41.1847C987.932 43.1023 990.631 45.7419 992.383 49.1037C994.135 52.4654 995.011 56.2888 995.011 60.5739C995.011 64.8589 994.135 68.6586 992.383 71.973C990.631 75.2874 987.944 77.8916 984.322 79.7855C980.7 81.6558 976.071 82.5909 970.437 82.5909H950.55V74.6364H970.153C974.035 74.6364 977.16 74.0682 979.528 72.9318C981.919 71.7955 983.647 70.1856 984.712 68.1023C985.801 65.9953 986.346 63.4858 986.346 60.5739C986.346 57.6619 985.801 55.1169 984.712 52.9389C983.623 50.7609 981.883 49.08 979.492 47.8963C977.101 46.6889 973.941 46.0852 970.011 46.0852H954.528V111H945.721ZM979.954 78.3295L997.852 111H987.624L970.011 78.3295H979.954ZM1009.69 111V38.2727H1018.49V103.188H1052.3V111H1009.69Z"/>
</mask>
<path d="M867.33 61H858.523C858.002 58.4669 857.09 56.2415 855.788 54.3239C854.51 52.4062 852.947 50.7964 851.101 49.4943C849.278 48.1686 847.254 47.1742 845.028 46.5114C842.803 45.8485 840.483 45.517 838.068 45.517C833.665 45.517 829.676 46.6297 826.101 48.8551C822.55 51.0805 819.721 54.3594 817.614 58.6918C815.53 63.0241 814.489 68.339 814.489 74.6364C814.489 80.9337 815.53 86.2486 817.614 90.581C819.721 94.9134 822.55 98.1922 826.101 100.418C829.676 102.643 833.665 103.756 838.068 103.756C840.483 103.756 842.803 103.424 845.028 102.761C847.254 102.098 849.278 101.116 851.101 99.8139C852.947 98.4882 854.51 96.8665 855.788 94.9489C857.09 93.0076 858.002 90.7822 858.523 88.2727H867.33C866.667 91.9896 865.459 95.3158 863.707 98.2514C861.955 101.187 859.777 103.685 857.173 105.744C854.569 107.78 851.645 109.331 848.402 110.396C845.182 111.462 841.738 111.994 838.068 111.994C831.866 111.994 826.349 110.479 821.52 107.449C816.69 104.419 812.891 100.11 810.121 94.5227C807.351 88.9356 805.966 82.3068 805.966 74.6364C805.966 66.9659 807.351 60.3371 810.121 54.75C812.891 49.1629 816.69 44.8542 821.52 41.8239C826.349 38.7936 831.866 37.2784 838.068 37.2784C841.738 37.2784 845.182 37.8111 848.402 38.8764C851.645 39.9418 854.569 41.5043 857.173 43.5639C859.777 45.5999 861.955 48.0857 863.707 51.0213C865.459 53.9332 866.667 57.2595 867.33 61ZM877.583 46.0852V38.2727H932.129V46.0852H909.26V111H900.453V46.0852H877.583ZM945.721 111V38.2727H970.295C975.977 38.2727 980.64 39.2434 984.286 41.1847C987.932 43.1023 990.631 45.7419 992.383 49.1037C994.135 52.4654 995.011 56.2888 995.011 60.5739C995.011 64.8589 994.135 68.6586 992.383 71.973C990.631 75.2874 987.944 77.8916 984.322 79.7855C980.7 81.6558 976.071 82.5909 970.437 82.5909H950.55V74.6364H970.153C974.035 74.6364 977.16 74.0682 979.528 72.9318C981.919 71.7955 983.647 70.1856 984.712 68.1023C985.801 65.9953 986.346 63.4858 986.346 60.5739C986.346 57.6619 985.801 55.1169 984.712 52.9389C983.623 50.7609 981.883 49.08 979.492 47.8963C977.101 46.6889 973.941 46.0852 970.011 46.0852H954.528V111H945.721ZM979.954 78.3295L997.852 111H987.624L970.011 78.3295H979.954ZM1009.69 111V38.2727H1018.49V103.188H1052.3V111H1009.69Z" fill="black"/>
<path d="M867.33 61V62H868.522L868.314 60.8255L867.33 61ZM858.523 61L857.543 61.2014L857.707 62H858.523V61ZM855.788 54.3239L854.956 54.8786L854.961 54.8856L855.788 54.3239ZM851.101 49.4943L850.513 50.3031L850.519 50.3074L850.525 50.3116L851.101 49.4943ZM845.028 46.5114L844.743 47.4697L844.743 47.4697L845.028 46.5114ZM826.101 48.8551L825.572 48.0062L825.57 48.0077L826.101 48.8551ZM817.614 58.6918L816.714 58.2544L816.712 58.2584L817.614 58.6918ZM817.614 90.581L816.712 91.0143L816.714 91.0183L817.614 90.581ZM826.101 100.418L825.57 101.265L825.572 101.267L826.101 100.418ZM845.028 102.761L844.743 101.803L844.743 101.803L845.028 102.761ZM851.101 99.8139L851.682 100.628L851.684 100.626L851.101 99.8139ZM855.788 94.9489L854.958 94.3918L854.956 94.3942L855.788 94.9489ZM858.523 88.2727V87.2727H857.709L857.544 88.0695L858.523 88.2727ZM867.33 88.2727L868.314 88.4483L868.524 87.2727H867.33V88.2727ZM863.707 98.2514L862.849 97.739L862.849 97.739L863.707 98.2514ZM857.173 105.744L857.789 106.532L857.794 106.529L857.173 105.744ZM848.402 110.396L848.09 109.446L848.088 109.447L848.402 110.396ZM821.52 107.449L820.988 108.296L820.988 108.296L821.52 107.449ZM810.121 94.5227L811.017 94.0786L811.017 94.0786L810.121 94.5227ZM848.402 38.8764L848.088 39.8258L848.09 39.8265L848.402 38.8764ZM857.173 43.5639L856.553 44.3483L856.557 44.3517L857.173 43.5639ZM863.707 51.0213L862.849 51.5338L862.851 51.5368L863.707 51.0213ZM867.33 60H858.523V62H867.33V60ZM859.502 60.7986C858.958 58.1514 858 55.8006 856.616 53.7621L854.961 54.8856C856.181 56.6824 857.046 58.7823 857.543 61.2014L859.502 60.7986ZM856.62 53.7692C855.275 51.7511 853.626 50.0516 851.677 48.6771L850.525 50.3116C852.268 51.5412 853.745 53.0614 854.956 54.8786L856.62 53.7692ZM851.689 48.6856C849.772 47.2911 847.645 46.2472 845.314 45.553L844.743 47.4697C846.863 48.1013 848.784 49.046 850.513 50.3031L851.689 48.6856ZM845.314 45.553C842.992 44.8614 840.576 44.517 838.068 44.517V46.517C840.39 46.517 842.614 46.8356 844.743 47.4697L845.314 45.553ZM838.068 44.517C833.487 44.517 829.313 45.6774 825.572 48.0062L826.629 49.7041C830.038 47.582 833.843 46.517 838.068 46.517V44.517ZM825.57 48.0077C821.837 50.3468 818.891 53.7793 816.714 58.2544L818.513 59.1291C820.551 54.9395 823.262 51.8142 826.632 49.7025L825.57 48.0077ZM816.712 58.2584C814.547 62.7611 813.489 68.2336 813.489 74.6364H815.489C815.489 68.4444 816.513 63.2872 818.515 59.1251L816.712 58.2584ZM813.489 74.6364C813.489 81.0391 814.547 86.5116 816.712 91.0143L818.515 90.1476C816.513 85.9856 815.489 80.8283 815.489 74.6364H813.489ZM816.714 91.0183C818.891 95.4934 821.837 98.9259 825.57 101.265L826.632 99.5703C823.262 97.4585 820.551 94.3333 818.513 90.1436L816.714 91.0183ZM825.572 101.267C829.313 103.595 833.487 104.756 838.068 104.756V102.756C833.843 102.756 830.038 101.691 826.629 99.5687L825.572 101.267ZM838.068 104.756C840.576 104.756 842.992 104.411 845.314 103.72L844.743 101.803C842.614 102.437 840.39 102.756 838.068 102.756V104.756ZM845.314 103.72C847.641 103.026 849.766 101.996 851.682 100.628L850.52 99.0002C848.79 100.236 846.866 101.17 844.743 101.803L845.314 103.72ZM851.684 100.626C853.63 99.2293 855.276 97.5199 856.62 95.5036L854.956 94.3942C853.744 96.213 852.265 97.747 850.518 99.0016L851.684 100.626ZM856.619 95.5059C858 93.4475 858.957 91.0996 859.502 88.4759L857.544 88.0695C857.046 90.4648 856.181 92.5677 854.958 94.3918L856.619 95.5059ZM858.523 89.2727H867.33V87.2727H858.523V89.2727ZM866.345 88.0972C865.701 91.7074 864.532 94.9174 862.849 97.739L864.566 98.7639C866.386 95.7142 867.632 92.2717 868.314 88.4483L866.345 88.0972ZM862.849 97.739C861.157 100.573 859.059 102.978 856.553 104.96L857.794 106.529C860.496 104.391 862.754 101.801 864.566 98.7639L862.849 97.739ZM856.557 104.957C854.047 106.919 851.227 108.416 848.09 109.446L848.714 111.346C852.064 110.246 855.091 108.642 857.789 106.532L856.557 104.957ZM848.088 109.447C844.977 110.476 841.64 110.994 838.068 110.994V112.994C841.836 112.994 845.387 112.447 848.716 111.346L848.088 109.447ZM838.068 110.994C832.036 110.994 826.708 109.523 822.051 106.602L820.988 108.296C825.991 111.435 831.695 112.994 838.068 112.994V110.994ZM822.051 106.602C817.393 103.679 813.713 99.5164 811.017 94.0786L809.225 94.9669C812.069 100.703 815.988 105.158 820.988 108.296L822.051 106.602ZM811.017 94.0786C808.329 88.6576 806.966 82.1875 806.966 74.6364H804.966C804.966 82.4261 806.373 89.2136 809.225 94.9669L811.017 94.0786ZM806.966 74.6364C806.966 67.0852 808.329 60.6151 811.017 55.1942L809.225 54.3058C806.373 60.0591 804.966 66.8466 804.966 74.6364H806.966ZM811.017 55.1942C813.713 49.7564 817.393 45.594 822.051 42.6709L820.988 40.9768C815.988 44.1143 812.069 48.5694 809.225 54.3058L811.017 55.1942ZM822.051 42.6709C826.708 39.7493 832.036 38.2784 838.068 38.2784V36.2784C831.695 36.2784 825.991 37.8378 820.988 40.9768L822.051 42.6709ZM838.068 38.2784C841.64 38.2784 844.977 38.7966 848.088 39.8258L848.716 37.927C845.387 36.8255 841.836 36.2784 838.068 36.2784V38.2784ZM848.09 39.8265C851.225 40.8562 854.044 42.3636 856.553 44.3483L857.794 42.7796C855.095 40.6449 852.066 39.0273 848.714 37.9264L848.09 39.8265ZM856.557 44.3517C859.061 46.3091 861.158 48.7004 862.849 51.5338L864.566 50.5088C862.753 47.4709 860.494 44.8907 857.789 42.7761L856.557 44.3517ZM862.851 51.5368C864.532 54.3322 865.701 57.5404 866.345 61.1745L868.314 60.8255C867.632 56.9786 866.386 53.5343 864.564 50.5058L862.851 51.5368ZM877.583 46.0852H876.583V47.0852H877.583V46.0852ZM877.583 38.2727V37.2727H876.583V38.2727H877.583ZM932.129 38.2727H933.129V37.2727H932.129V38.2727ZM932.129 46.0852V47.0852H933.129V46.0852H932.129ZM909.26 46.0852V45.0852H908.26V46.0852H909.26ZM909.26 111V112H910.26V111H909.26ZM900.453 111H899.453V112H900.453V111ZM900.453 46.0852H901.453V45.0852H900.453V46.0852ZM878.583 46.0852V38.2727H876.583V46.0852H878.583ZM877.583 39.2727H932.129V37.2727H877.583V39.2727ZM931.129 38.2727V46.0852H933.129V38.2727H931.129ZM932.129 45.0852H909.26V47.0852H932.129V45.0852ZM908.26 46.0852V111H910.26V46.0852H908.26ZM909.26 110H900.453V112H909.26V110ZM901.453 111V46.0852H899.453V111H901.453ZM900.453 45.0852H877.583V47.0852H900.453V45.0852ZM945.721 111H944.721V112H945.721V111ZM945.721 38.2727V37.2727H944.721V38.2727H945.721ZM984.286 41.1847L983.816 42.0673L983.821 42.0697L984.286 41.1847ZM992.383 49.1037L991.496 49.5658L991.496 49.5658L992.383 49.1037ZM992.383 71.973L991.499 71.5057L991.499 71.5057L992.383 71.973ZM984.322 79.7855L984.781 80.6741L984.785 80.6717L984.322 79.7855ZM950.55 82.5909H949.55V83.5909H950.55V82.5909ZM950.55 74.6364V73.6364H949.55V74.6364H950.55ZM979.528 72.9318L979.098 72.0286L979.095 72.0303L979.528 72.9318ZM984.712 68.1023L983.824 67.6431L983.822 67.647L984.712 68.1023ZM979.492 47.8963L979.041 48.789L979.049 48.7925L979.492 47.8963ZM954.528 46.0852V45.0852H953.528V46.0852H954.528ZM954.528 111V112H955.528V111H954.528ZM979.954 78.3295L980.831 77.8491L980.546 77.3295H979.954V78.3295ZM997.852 111V112H999.54L998.729 110.52L997.852 111ZM987.624 111L986.744 111.475L987.027 112H987.624V111ZM970.011 78.3295V77.3295H968.335L969.13 78.8041L970.011 78.3295ZM946.721 111V38.2727H944.721V111H946.721ZM945.721 39.2727H970.295V37.2727H945.721V39.2727ZM970.295 39.2727C975.871 39.2727 980.359 40.2265 983.816 42.0673L984.756 40.302C980.922 38.2602 976.082 37.2727 970.295 37.2727V39.2727ZM983.821 42.0697C987.303 43.9011 989.846 46.4004 991.496 49.5658L993.27 48.6416C991.415 45.0835 988.561 42.3034 984.752 40.2996L983.821 42.0697ZM991.496 49.5658C993.164 52.7672 994.011 56.4285 994.011 60.5739H996.011C996.011 56.1491 995.105 52.1637 993.27 48.6416L991.496 49.5658ZM994.011 60.5739C994.011 64.7195 993.164 68.3547 991.499 71.5057L993.267 72.4403C995.105 68.9625 996.011 64.9983 996.011 60.5739H994.011ZM991.499 71.5057C989.85 74.6249 987.318 77.0903 983.858 78.8993L984.785 80.6717C988.57 78.6928 991.412 75.9499 993.267 72.4403L991.499 71.5057ZM983.863 78.897C980.426 80.6714 975.969 81.5909 970.437 81.5909V83.5909C976.173 83.5909 980.973 82.6401 984.781 80.6741L983.863 78.897ZM970.437 81.5909H950.55V83.5909H970.437V81.5909ZM951.55 82.5909V74.6364H949.55V82.5909H951.55ZM950.55 75.6364H970.153V73.6364H950.55V75.6364ZM970.153 75.6364C974.119 75.6364 977.409 75.058 979.96 73.8333L979.095 72.0303C976.911 73.0784 973.951 73.6364 970.153 73.6364V75.6364ZM979.957 73.835C982.519 72.6172 984.424 70.8623 985.603 68.5576L983.822 67.647C982.87 69.5089 981.318 70.9737 979.098 72.0286L979.957 73.835ZM985.601 68.5614C986.778 66.2837 987.346 63.6097 987.346 60.5739H985.346C985.346 63.3619 984.825 65.7068 983.824 67.6431L985.601 68.5614ZM987.346 60.5739C987.346 57.5368 986.778 54.8332 985.607 52.4917L983.818 53.3861C984.825 55.4007 985.346 57.7871 985.346 60.5739H987.346ZM985.607 52.4917C984.411 50.1001 982.502 48.2706 979.936 47.0001L979.049 48.7925C981.264 49.8894 982.836 51.4217 983.818 53.3861L985.607 52.4917ZM979.943 47.0037C977.362 45.7005 974.03 45.0852 970.011 45.0852V47.0852C973.852 47.0852 976.84 47.6773 979.041 48.789L979.943 47.0037ZM970.011 45.0852H954.528V47.0852H970.011V45.0852ZM953.528 46.0852V111H955.528V46.0852H953.528ZM954.528 110H945.721V112H954.528V110ZM979.077 78.81L996.975 111.48L998.729 110.52L980.831 77.8491L979.077 78.81ZM997.852 110H987.624V112H997.852V110ZM988.505 110.525L970.891 77.855L969.13 78.8041L986.744 111.475L988.505 110.525ZM970.011 79.3295H979.954V77.3295H970.011V79.3295ZM1009.69 111H1008.69V112H1009.69V111ZM1009.69 38.2727V37.2727H1008.69V38.2727H1009.69ZM1018.49 38.2727H1019.49V37.2727H1018.49V38.2727ZM1018.49 103.188H1017.49V104.188H1018.49V103.188ZM1052.3 103.188H1053.3V102.188H1052.3V103.188ZM1052.3 111V112H1053.3V111H1052.3ZM1010.69 111V38.2727H1008.69V111H1010.69ZM1009.69 39.2727H1018.49V37.2727H1009.69V39.2727ZM1017.49 38.2727V103.188H1019.49V38.2727H1017.49ZM1018.49 104.188H1052.3V102.188H1018.49V104.188ZM1051.3 103.188V111H1053.3V103.188H1051.3ZM1052.3 110H1009.69V112H1052.3V110Z" fill="black" mask="url(#path-9-outside-4_160_146695)"/>
<path d="M1056 42L1086 59.3205V24.6795L1056 42ZM1118 39H1083V45H1118V39Z" fill="black"/>
<path d="M1160 107L1130 89.6795V124.321L1160 107ZM1098 110H1133V104H1098V110Z" fill="black"/>
<mask id="path-13-outside-5_160_146695" maskUnits="userSpaceOnUse" x="682" y="37" width="54" height="75" fill="black">
<rect fill="white" x="682" y="37" width="54" height="75"/>
<path d="M684.392 111V104.608L723.597 46.0852H683.966V38.2727H734.108V44.6648L694.903 103.188H734.534V111H684.392Z"/>
</mask>
<path d="M684.392 111V104.608L723.597 46.0852H683.966V38.2727H734.108V44.6648L694.903 103.188H734.534V111H684.392Z" fill="black"/>
<path d="M684.392 111H683.392V112H684.392V111ZM684.392 104.608L683.561 104.051L683.392 104.304V104.608H684.392ZM723.597 46.0852L724.427 46.6418L725.47 45.0852H723.597V46.0852ZM683.966 46.0852H682.966V47.0852H683.966V46.0852ZM683.966 38.2727V37.2727H682.966V38.2727H683.966ZM734.108 38.2727H735.108V37.2727H734.108V38.2727ZM734.108 44.6648L734.939 45.2213L735.108 44.9688V44.6648H734.108ZM694.903 103.188L694.073 102.631L693.03 104.188H694.903V103.188ZM734.534 103.188H735.534V102.188H734.534V103.188ZM734.534 111V112H735.534V111H734.534ZM685.392 111V104.608H683.392V111H685.392ZM685.223 105.165L724.427 46.6418L722.766 45.5287L683.561 104.051L685.223 105.165ZM723.597 45.0852H683.966V47.0852H723.597V45.0852ZM684.966 46.0852V38.2727H682.966V46.0852H684.966ZM683.966 39.2727H734.108V37.2727H683.966V39.2727ZM733.108 38.2727V44.6648H735.108V38.2727H733.108ZM733.277 44.1082L694.073 102.631L695.734 103.744L734.939 45.2213L733.277 44.1082ZM694.903 104.188H734.534V102.188H694.903V104.188ZM733.534 103.188V111H735.534V103.188H733.534ZM734.534 110H684.392V112H734.534V110Z" fill="black" mask="url(#path-13-outside-5_160_146695)"/>
<mask id="path-15-outside-6_160_146695" maskUnits="userSpaceOnUse" x="404" y="36" width="250" height="77" fill="black">
<rect fill="white" x="404" y="36" width="250" height="77"/>
<path d="M467.33 61H458.523C458.002 58.4669 457.09 56.2415 455.788 54.3239C454.51 52.4062 452.947 50.7964 451.101 49.4943C449.278 48.1686 447.254 47.1742 445.028 46.5114C442.803 45.8485 440.483 45.517 438.068 45.517C433.665 45.517 429.676 46.6297 426.101 48.8551C422.55 51.0805 419.721 54.3594 417.614 58.6918C415.53 63.0241 414.489 68.339 414.489 74.6364C414.489 80.9337 415.53 86.2486 417.614 90.581C419.721 94.9134 422.55 98.1922 426.101 100.418C429.676 102.643 433.665 103.756 438.068 103.756C440.483 103.756 442.803 103.424 445.028 102.761C447.254 102.098 449.278 101.116 451.101 99.8139C452.947 98.4882 454.51 96.8665 455.788 94.9489C457.09 93.0076 458.002 90.7822 458.523 88.2727H467.33C466.667 91.9896 465.459 95.3158 463.707 98.2514C461.955 101.187 459.777 103.685 457.173 105.744C454.569 107.78 451.645 109.331 448.402 110.396C445.182 111.462 441.738 111.994 438.068 111.994C431.866 111.994 426.349 110.479 421.52 107.449C416.69 104.419 412.891 100.11 410.121 94.5227C407.351 88.9356 405.966 82.3068 405.966 74.6364C405.966 66.9659 407.351 60.3371 410.121 54.75C412.891 49.1629 416.69 44.8542 421.52 41.8239C426.349 38.7936 431.866 37.2784 438.068 37.2784C441.738 37.2784 445.182 37.8111 448.402 38.8764C451.645 39.9418 454.569 41.5043 457.173 43.5639C459.777 45.5999 461.955 48.0857 463.707 51.0213C465.459 53.9332 466.667 57.2595 467.33 61ZM477.583 46.0852V38.2727H532.129V46.0852H509.26V111H500.453V46.0852H477.583ZM545.721 111V38.2727H570.295C575.977 38.2727 580.64 39.2434 584.286 41.1847C587.932 43.1023 590.631 45.7419 592.383 49.1037C594.135 52.4654 595.011 56.2888 595.011 60.5739C595.011 64.8589 594.135 68.6586 592.383 71.973C590.631 75.2874 587.944 77.8916 584.322 79.7855C580.7 81.6558 576.071 82.5909 570.437 82.5909H550.55V74.6364H570.153C574.035 74.6364 577.16 74.0682 579.528 72.9318C581.919 71.7955 583.647 70.1856 584.712 68.1023C585.801 65.9953 586.346 63.4858 586.346 60.5739C586.346 57.6619 585.801 55.1169 584.712 52.9389C583.623 50.7609 581.883 49.08 579.492 47.8963C577.101 46.6889 573.941 46.0852 570.011 46.0852H554.528V111H545.721ZM579.954 78.3295L597.852 111H587.624L570.011 78.3295H579.954ZM609.686 111V38.2727H618.493V103.188H652.299V111H609.686Z"/>
</mask>
<path d="M467.33 61H458.523C458.002 58.4669 457.09 56.2415 455.788 54.3239C454.51 52.4062 452.947 50.7964 451.101 49.4943C449.278 48.1686 447.254 47.1742 445.028 46.5114C442.803 45.8485 440.483 45.517 438.068 45.517C433.665 45.517 429.676 46.6297 426.101 48.8551C422.55 51.0805 419.721 54.3594 417.614 58.6918C415.53 63.0241 414.489 68.339 414.489 74.6364C414.489 80.9337 415.53 86.2486 417.614 90.581C419.721 94.9134 422.55 98.1922 426.101 100.418C429.676 102.643 433.665 103.756 438.068 103.756C440.483 103.756 442.803 103.424 445.028 102.761C447.254 102.098 449.278 101.116 451.101 99.8139C452.947 98.4882 454.51 96.8665 455.788 94.9489C457.09 93.0076 458.002 90.7822 458.523 88.2727H467.33C466.667 91.9896 465.459 95.3158 463.707 98.2514C461.955 101.187 459.777 103.685 457.173 105.744C454.569 107.78 451.645 109.331 448.402 110.396C445.182 111.462 441.738 111.994 438.068 111.994C431.866 111.994 426.349 110.479 421.52 107.449C416.69 104.419 412.891 100.11 410.121 94.5227C407.351 88.9356 405.966 82.3068 405.966 74.6364C405.966 66.9659 407.351 60.3371 410.121 54.75C412.891 49.1629 416.69 44.8542 421.52 41.8239C426.349 38.7936 431.866 37.2784 438.068 37.2784C441.738 37.2784 445.182 37.8111 448.402 38.8764C451.645 39.9418 454.569 41.5043 457.173 43.5639C459.777 45.5999 461.955 48.0857 463.707 51.0213C465.459 53.9332 466.667 57.2595 467.33 61ZM477.583 46.0852V38.2727H532.129V46.0852H509.26V111H500.453V46.0852H477.583ZM545.721 111V38.2727H570.295C575.977 38.2727 580.64 39.2434 584.286 41.1847C587.932 43.1023 590.631 45.7419 592.383 49.1037C594.135 52.4654 595.011 56.2888 595.011 60.5739C595.011 64.8589 594.135 68.6586 592.383 71.973C590.631 75.2874 587.944 77.8916 584.322 79.7855C580.7 81.6558 576.071 82.5909 570.437 82.5909H550.55V74.6364H570.153C574.035 74.6364 577.16 74.0682 579.528 72.9318C581.919 71.7955 583.647 70.1856 584.712 68.1023C585.801 65.9953 586.346 63.4858 586.346 60.5739C586.346 57.6619 585.801 55.1169 584.712 52.9389C583.623 50.7609 581.883 49.08 579.492 47.8963C577.101 46.6889 573.941 46.0852 570.011 46.0852H554.528V111H545.721ZM579.954 78.3295L597.852 111H587.624L570.011 78.3295H579.954ZM609.686 111V38.2727H618.493V103.188H652.299V111H609.686Z" fill="black"/>
<path d="M467.33 61V62H468.522L468.314 60.8255L467.33 61ZM458.523 61L457.543 61.2014L457.707 62H458.523V61ZM455.788 54.3239L454.956 54.8786L454.961 54.8856L455.788 54.3239ZM451.101 49.4943L450.513 50.3031L450.519 50.3074L450.525 50.3116L451.101 49.4943ZM445.028 46.5114L444.743 47.4697L444.743 47.4697L445.028 46.5114ZM426.101 48.8551L425.572 48.0062L425.57 48.0077L426.101 48.8551ZM417.614 58.6918L416.714 58.2544L416.712 58.2584L417.614 58.6918ZM417.614 90.581L416.712 91.0143L416.714 91.0183L417.614 90.581ZM426.101 100.418L425.57 101.265L425.572 101.267L426.101 100.418ZM445.028 102.761L444.743 101.803L444.743 101.803L445.028 102.761ZM451.101 99.8139L451.682 100.628L451.684 100.626L451.101 99.8139ZM455.788 94.9489L454.958 94.3918L454.956 94.3942L455.788 94.9489ZM458.523 88.2727V87.2727H457.709L457.544 88.0695L458.523 88.2727ZM467.33 88.2727L468.314 88.4483L468.524 87.2727H467.33V88.2727ZM463.707 98.2514L462.849 97.739L462.849 97.739L463.707 98.2514ZM457.173 105.744L457.789 106.532L457.794 106.529L457.173 105.744ZM448.402 110.396L448.09 109.446L448.088 109.447L448.402 110.396ZM421.52 107.449L420.988 108.296L420.988 108.296L421.52 107.449ZM410.121 94.5227L411.017 94.0786L411.017 94.0786L410.121 94.5227ZM448.402 38.8764L448.088 39.8258L448.09 39.8265L448.402 38.8764ZM457.173 43.5639L456.553 44.3483L456.557 44.3517L457.173 43.5639ZM463.707 51.0213L462.849 51.5338L462.851 51.5368L463.707 51.0213ZM467.33 60H458.523V62H467.33V60ZM459.502 60.7986C458.958 58.1514 458 55.8006 456.616 53.7621L454.961 54.8856C456.181 56.6824 457.046 58.7823 457.543 61.2014L459.502 60.7986ZM456.62 53.7692C455.275 51.7511 453.626 50.0516 451.677 48.6771L450.525 50.3116C452.268 51.5412 453.745 53.0614 454.956 54.8786L456.62 53.7692ZM451.689 48.6856C449.772 47.2911 447.645 46.2472 445.314 45.553L444.743 47.4697C446.863 48.1013 448.784 49.046 450.513 50.3031L451.689 48.6856ZM445.314 45.553C442.992 44.8614 440.576 44.517 438.068 44.517V46.517C440.39 46.517 442.614 46.8356 444.743 47.4697L445.314 45.553ZM438.068 44.517C433.487 44.517 429.313 45.6774 425.572 48.0062L426.629 49.7041C430.038 47.582 433.843 46.517 438.068 46.517V44.517ZM425.57 48.0077C421.837 50.3468 418.891 53.7793 416.714 58.2544L418.513 59.1291C420.551 54.9395 423.262 51.8142 426.632 49.7025L425.57 48.0077ZM416.712 58.2584C414.547 62.7611 413.489 68.2336 413.489 74.6364H415.489C415.489 68.4444 416.513 63.2872 418.515 59.1251L416.712 58.2584ZM413.489 74.6364C413.489 81.0391 414.547 86.5116 416.712 91.0143L418.515 90.1476C416.513 85.9856 415.489 80.8283 415.489 74.6364H413.489ZM416.714 91.0183C418.891 95.4934 421.837 98.9259 425.57 101.265L426.632 99.5703C423.262 97.4585 420.551 94.3333 418.513 90.1436L416.714 91.0183ZM425.572 101.267C429.313 103.595 433.487 104.756 438.068 104.756V102.756C433.843 102.756 430.038 101.691 426.629 99.5687L425.572 101.267ZM438.068 104.756C440.576 104.756 442.992 104.411 445.314 103.72L444.743 101.803C442.614 102.437 440.39 102.756 438.068 102.756V104.756ZM445.314 103.72C447.641 103.026 449.766 101.996 451.682 100.628L450.52 99.0002C448.79 100.236 446.866 101.17 444.743 101.803L445.314 103.72ZM451.684 100.626C453.63 99.2293 455.276 97.5199 456.62 95.5036L454.956 94.3942C453.744 96.213 452.265 97.747 450.518 99.0016L451.684 100.626ZM456.619 95.5059C458 93.4475 458.957 91.0996 459.502 88.4759L457.544 88.0695C457.046 90.4648 456.181 92.5677 454.958 94.3918L456.619 95.5059ZM458.523 89.2727H467.33V87.2727H458.523V89.2727ZM466.345 88.0972C465.701 91.7074 464.532 94.9174 462.849 97.739L464.566 98.7639C466.386 95.7142 467.632 92.2717 468.314 88.4483L466.345 88.0972ZM462.849 97.739C461.157 100.573 459.059 102.978 456.553 104.96L457.794 106.529C460.496 104.391 462.754 101.801 464.566 98.7639L462.849 97.739ZM456.557 104.957C454.047 106.919 451.227 108.416 448.09 109.446L448.714 111.346C452.064 110.246 455.091 108.642 457.789 106.532L456.557 104.957ZM448.088 109.447C444.977 110.476 441.64 110.994 438.068 110.994V112.994C441.836 112.994 445.387 112.447 448.716 111.346L448.088 109.447ZM438.068 110.994C432.036 110.994 426.708 109.523 422.051 106.602L420.988 108.296C425.991 111.435 431.695 112.994 438.068 112.994V110.994ZM422.051 106.602C417.393 103.679 413.713 99.5164 411.017 94.0786L409.225 94.9669C412.069 100.703 415.988 105.158 420.988 108.296L422.051 106.602ZM411.017 94.0786C408.329 88.6576 406.966 82.1875 406.966 74.6364H404.966C404.966 82.4261 406.373 89.2136 409.225 94.9669L411.017 94.0786ZM406.966 74.6364C406.966 67.0852 408.329 60.6151 411.017 55.1942L409.225 54.3058C406.373 60.0591 404.966 66.8466 404.966 74.6364H406.966ZM411.017 55.1942C413.713 49.7564 417.393 45.594 422.051 42.6709L420.988 40.9768C415.988 44.1143 412.069 48.5694 409.225 54.3058L411.017 55.1942ZM422.051 42.6709C426.708 39.7493 432.036 38.2784 438.068 38.2784V36.2784C431.695 36.2784 425.991 37.8378 420.988 40.9768L422.051 42.6709ZM438.068 38.2784C441.64 38.2784 444.977 38.7966 448.088 39.8258L448.716 37.927C445.387 36.8255 441.836 36.2784 438.068 36.2784V38.2784ZM448.09 39.8265C451.225 40.8562 454.044 42.3636 456.553 44.3483L457.794 42.7796C455.095 40.6449 452.066 39.0273 448.714 37.9264L448.09 39.8265ZM456.557 44.3517C459.061 46.3091 461.158 48.7004 462.849 51.5338L464.566 50.5088C462.753 47.4709 460.494 44.8907 457.789 42.7761L456.557 44.3517ZM462.851 51.5368C464.532 54.3322 465.701 57.5404 466.345 61.1745L468.314 60.8255C467.632 56.9786 466.386 53.5343 464.564 50.5058L462.851 51.5368ZM477.583 46.0852H476.583V47.0852H477.583V46.0852ZM477.583 38.2727V37.2727H476.583V38.2727H477.583ZM532.129 38.2727H533.129V37.2727H532.129V38.2727ZM532.129 46.0852V47.0852H533.129V46.0852H532.129ZM509.26 46.0852V45.0852H508.26V46.0852H509.26ZM509.26 111V112H510.26V111H509.26ZM500.453 111H499.453V112H500.453V111ZM500.453 46.0852H501.453V45.0852H500.453V46.0852ZM478.583 46.0852V38.2727H476.583V46.0852H478.583ZM477.583 39.2727H532.129V37.2727H477.583V39.2727ZM531.129 38.2727V46.0852H533.129V38.2727H531.129ZM532.129 45.0852H509.26V47.0852H532.129V45.0852ZM508.26 46.0852V111H510.26V46.0852H508.26ZM509.26 110H500.453V112H509.26V110ZM501.453 111V46.0852H499.453V111H501.453ZM500.453 45.0852H477.583V47.0852H500.453V45.0852ZM545.721 111H544.721V112H545.721V111ZM545.721 38.2727V37.2727H544.721V38.2727H545.721ZM584.286 41.1847L583.816 42.0673L583.821 42.0697L584.286 41.1847ZM592.383 49.1037L591.496 49.5658L591.496 49.5658L592.383 49.1037ZM592.383 71.973L591.499 71.5057L591.499 71.5057L592.383 71.973ZM584.322 79.7855L584.781 80.6741L584.785 80.6717L584.322 79.7855ZM550.55 82.5909H549.55V83.5909H550.55V82.5909ZM550.55 74.6364V73.6364H549.55V74.6364H550.55ZM579.528 72.9318L579.098 72.0286L579.095 72.0303L579.528 72.9318ZM584.712 68.1023L583.824 67.6431L583.822 67.647L584.712 68.1023ZM579.492 47.8963L579.041 48.789L579.049 48.7925L579.492 47.8963ZM554.528 46.0852V45.0852H553.528V46.0852H554.528ZM554.528 111V112H555.528V111H554.528ZM579.954 78.3295L580.831 77.8491L580.546 77.3295H579.954V78.3295ZM597.852 111V112H599.54L598.729 110.52L597.852 111ZM587.624 111L586.744 111.475L587.027 112H587.624V111ZM570.011 78.3295V77.3295H568.335L569.13 78.8041L570.011 78.3295ZM546.721 111V38.2727H544.721V111H546.721ZM545.721 39.2727H570.295V37.2727H545.721V39.2727ZM570.295 39.2727C575.871 39.2727 580.359 40.2265 583.816 42.0673L584.756 40.302C580.922 38.2602 576.082 37.2727 570.295 37.2727V39.2727ZM583.821 42.0697C587.303 43.9011 589.846 46.4004 591.496 49.5658L593.27 48.6416C591.415 45.0835 588.561 42.3034 584.752 40.2996L583.821 42.0697ZM591.496 49.5658C593.164 52.7672 594.011 56.4285 594.011 60.5739H596.011C596.011 56.1491 595.105 52.1637 593.27 48.6416L591.496 49.5658ZM594.011 60.5739C594.011 64.7195 593.164 68.3547 591.499 71.5057L593.267 72.4403C595.105 68.9625 596.011 64.9983 596.011 60.5739H594.011ZM591.499 71.5057C589.85 74.6249 587.318 77.0903 583.858 78.8993L584.785 80.6717C588.57 78.6928 591.412 75.9499 593.267 72.4403L591.499 71.5057ZM583.863 78.897C580.426 80.6714 575.969 81.5909 570.437 81.5909V83.5909C576.173 83.5909 580.973 82.6401 584.781 80.6741L583.863 78.897ZM570.437 81.5909H550.55V83.5909H570.437V81.5909ZM551.55 82.5909V74.6364H549.55V82.5909H551.55ZM550.55 75.6364H570.153V73.6364H550.55V75.6364ZM570.153 75.6364C574.119 75.6364 577.409 75.058 579.96 73.8333L579.095 72.0303C576.911 73.0784 573.951 73.6364 570.153 73.6364V75.6364ZM579.957 73.835C582.519 72.6172 584.424 70.8623 585.603 68.5576L583.822 67.647C582.87 69.5089 581.318 70.9737 579.098 72.0286L579.957 73.835ZM585.601 68.5614C586.778 66.2837 587.346 63.6097 587.346 60.5739H585.346C585.346 63.3619 584.825 65.7068 583.824 67.6431L585.601 68.5614ZM587.346 60.5739C587.346 57.5368 586.778 54.8332 585.607 52.4917L583.818 53.3861C584.825 55.4007 585.346 57.7871 585.346 60.5739H587.346ZM585.607 52.4917C584.411 50.1001 582.502 48.2706 579.936 47.0001L579.049 48.7925C581.264 49.8894 582.836 51.4217 583.818 53.3861L585.607 52.4917ZM579.943 47.0037C577.362 45.7005 574.03 45.0852 570.011 45.0852V47.0852C573.852 47.0852 576.84 47.6773 579.041 48.789L579.943 47.0037ZM570.011 45.0852H554.528V47.0852H570.011V45.0852ZM553.528 46.0852V111H555.528V46.0852H553.528ZM554.528 110H545.721V112H554.528V110ZM579.077 78.81L596.975 111.48L598.729 110.52L580.831 77.8491L579.077 78.81ZM597.852 110H587.624V112H597.852V110ZM588.505 110.525L570.891 77.855L569.13 78.8041L586.744 111.475L588.505 110.525ZM570.011 79.3295H579.954V77.3295H570.011V79.3295ZM609.686 111H608.686V112H609.686V111ZM609.686 38.2727V37.2727H608.686V38.2727H609.686ZM618.493 38.2727H619.493V37.2727H618.493V38.2727ZM618.493 103.188H617.493V104.188H618.493V103.188ZM652.299 103.188H653.299V102.188H652.299V103.188ZM652.299 111V112H653.299V111H652.299ZM610.686 111V38.2727H608.686V111H610.686ZM609.686 39.2727H618.493V37.2727H609.686V39.2727ZM617.493 38.2727V103.188H619.493V38.2727H617.493ZM618.493 104.188H652.299V102.188H618.493V104.188ZM651.299 103.188V111H653.299V103.188H651.299ZM652.299 110H609.686V112H652.299V110Z" fill="black" mask="url(#path-15-outside-6_160_146695)"/>
<path d="M656 42L686 59.3205V24.6795L656 42ZM718 39H683V45H718V39Z" fill="black"/>
<path d="M760 107L730 89.6795V124.321L760 107ZM698 110H733V104H698V110Z" fill="black"/>
<mask id="path-19-outside-7_160_146695" maskUnits="userSpaceOnUse" x="1482" y="37" width="54" height="75" fill="black">
<rect fill="white" x="1482" y="37" width="54" height="75"/>
<path d="M1484.39 111V104.608L1523.6 46.0852H1483.97V38.2727H1534.11V44.6648L1494.9 103.188H1534.53V111H1484.39Z"/>
</mask>
<path d="M1484.39 111V104.608L1523.6 46.0852H1483.97V38.2727H1534.11V44.6648L1494.9 103.188H1534.53V111H1484.39Z" fill="black"/>
<path d="M1484.39 111H1483.39V112H1484.39V111ZM1484.39 104.608L1483.56 104.051L1483.39 104.304V104.608H1484.39ZM1523.6 46.0852L1524.43 46.6418L1525.47 45.0852H1523.6V46.0852ZM1483.97 46.0852H1482.97V47.0852H1483.97V46.0852ZM1483.97 38.2727V37.2727H1482.97V38.2727H1483.97ZM1534.11 38.2727H1535.11V37.2727H1534.11V38.2727ZM1534.11 44.6648L1534.94 45.2213L1535.11 44.9688V44.6648H1534.11ZM1494.9 103.188L1494.07 102.631L1493.03 104.188H1494.9V103.188ZM1534.53 103.188H1535.53V102.188H1534.53V103.188ZM1534.53 111V112H1535.53V111H1534.53ZM1485.39 111V104.608H1483.39V111H1485.39ZM1485.22 105.165L1524.43 46.6418L1522.77 45.5287L1483.56 104.051L1485.22 105.165ZM1523.6 45.0852H1483.97V47.0852H1523.6V45.0852ZM1484.97 46.0852V38.2727H1482.97V46.0852H1484.97ZM1483.97 39.2727H1534.11V37.2727H1483.97V39.2727ZM1533.11 38.2727V44.6648H1535.11V38.2727H1533.11ZM1533.28 44.1082L1494.07 102.631L1495.73 103.744L1534.94 45.2213L1533.28 44.1082ZM1494.9 104.188H1534.53V102.188H1494.9V104.188ZM1533.53 103.188V111H1535.53V103.188H1533.53ZM1534.53 110H1484.39V112H1534.53V110Z" fill="black" mask="url(#path-19-outside-7_160_146695)"/>
<mask id="path-21-outside-8_160_146695" maskUnits="userSpaceOnUse" x="1204" y="36" width="250" height="77" fill="black">
<rect fill="white" x="1204" y="36" width="250" height="77"/>
<path d="M1267.33 61H1258.52C1258 58.4669 1257.09 56.2415 1255.79 54.3239C1254.51 52.4062 1252.95 50.7964 1251.1 49.4943C1249.28 48.1686 1247.25 47.1742 1245.03 46.5114C1242.8 45.8485 1240.48 45.517 1238.07 45.517C1233.66 45.517 1229.68 46.6297 1226.1 48.8551C1222.55 51.0805 1219.72 54.3594 1217.61 58.6918C1215.53 63.0241 1214.49 68.339 1214.49 74.6364C1214.49 80.9337 1215.53 86.2486 1217.61 90.581C1219.72 94.9134 1222.55 98.1922 1226.1 100.418C1229.68 102.643 1233.66 103.756 1238.07 103.756C1240.48 103.756 1242.8 103.424 1245.03 102.761C1247.25 102.098 1249.28 101.116 1251.1 99.8139C1252.95 98.4882 1254.51 96.8665 1255.79 94.9489C1257.09 93.0076 1258 90.7822 1258.52 88.2727H1267.33C1266.67 91.9896 1265.46 95.3158 1263.71 98.2514C1261.96 101.187 1259.78 103.685 1257.17 105.744C1254.57 107.78 1251.65 109.331 1248.4 110.396C1245.18 111.462 1241.74 111.994 1238.07 111.994C1231.87 111.994 1226.35 110.479 1221.52 107.449C1216.69 104.419 1212.89 100.11 1210.12 94.5227C1207.35 88.9356 1205.97 82.3068 1205.97 74.6364C1205.97 66.9659 1207.35 60.3371 1210.12 54.75C1212.89 49.1629 1216.69 44.8542 1221.52 41.8239C1226.35 38.7936 1231.87 37.2784 1238.07 37.2784C1241.74 37.2784 1245.18 37.8111 1248.4 38.8764C1251.65 39.9418 1254.57 41.5043 1257.17 43.5639C1259.78 45.5999 1261.96 48.0857 1263.71 51.0213C1265.46 53.9332 1266.67 57.2595 1267.33 61ZM1277.58 46.0852V38.2727H1332.13V46.0852H1309.26V111H1300.45V46.0852H1277.58ZM1345.72 111V38.2727H1370.29C1375.98 38.2727 1380.64 39.2434 1384.29 41.1847C1387.93 43.1023 1390.63 45.7419 1392.38 49.1037C1394.13 52.4654 1395.01 56.2888 1395.01 60.5739C1395.01 64.8589 1394.13 68.6586 1392.38 71.973C1390.63 75.2874 1387.94 77.8916 1384.32 79.7855C1380.7 81.6558 1376.07 82.5909 1370.44 82.5909H1350.55V74.6364H1370.15C1374.04 74.6364 1377.16 74.0682 1379.53 72.9318C1381.92 71.7955 1383.65 70.1856 1384.71 68.1023C1385.8 65.9953 1386.35 63.4858 1386.35 60.5739C1386.35 57.6619 1385.8 55.1169 1384.71 52.9389C1383.62 50.7609 1381.88 49.08 1379.49 47.8963C1377.1 46.6889 1373.94 46.0852 1370.01 46.0852H1354.53V111H1345.72ZM1379.95 78.3295L1397.85 111H1387.62L1370.01 78.3295H1379.95ZM1409.69 111V38.2727H1418.49V103.188H1452.3V111H1409.69Z"/>
</mask>
<path d="M1267.33 61H1258.52C1258 58.4669 1257.09 56.2415 1255.79 54.3239C1254.51 52.4062 1252.95 50.7964 1251.1 49.4943C1249.28 48.1686 1247.25 47.1742 1245.03 46.5114C1242.8 45.8485 1240.48 45.517 1238.07 45.517C1233.66 45.517 1229.68 46.6297 1226.1 48.8551C1222.55 51.0805 1219.72 54.3594 1217.61 58.6918C1215.53 63.0241 1214.49 68.339 1214.49 74.6364C1214.49 80.9337 1215.53 86.2486 1217.61 90.581C1219.72 94.9134 1222.55 98.1922 1226.1 100.418C1229.68 102.643 1233.66 103.756 1238.07 103.756C1240.48 103.756 1242.8 103.424 1245.03 102.761C1247.25 102.098 1249.28 101.116 1251.1 99.8139C1252.95 98.4882 1254.51 96.8665 1255.79 94.9489C1257.09 93.0076 1258 90.7822 1258.52 88.2727H1267.33C1266.67 91.9896 1265.46 95.3158 1263.71 98.2514C1261.96 101.187 1259.78 103.685 1257.17 105.744C1254.57 107.78 1251.65 109.331 1248.4 110.396C1245.18 111.462 1241.74 111.994 1238.07 111.994C1231.87 111.994 1226.35 110.479 1221.52 107.449C1216.69 104.419 1212.89 100.11 1210.12 94.5227C1207.35 88.9356 1205.97 82.3068 1205.97 74.6364C1205.97 66.9659 1207.35 60.3371 1210.12 54.75C1212.89 49.1629 1216.69 44.8542 1221.52 41.8239C1226.35 38.7936 1231.87 37.2784 1238.07 37.2784C1241.74 37.2784 1245.18 37.8111 1248.4 38.8764C1251.65 39.9418 1254.57 41.5043 1257.17 43.5639C1259.78 45.5999 1261.96 48.0857 1263.71 51.0213C1265.46 53.9332 1266.67 57.2595 1267.33 61ZM1277.58 46.0852V38.2727H1332.13V46.0852H1309.26V111H1300.45V46.0852H1277.58ZM1345.72 111V38.2727H1370.29C1375.98 38.2727 1380.64 39.2434 1384.29 41.1847C1387.93 43.1023 1390.63 45.7419 1392.38 49.1037C1394.13 52.4654 1395.01 56.2888 1395.01 60.5739C1395.01 64.8589 1394.13 68.6586 1392.38 71.973C1390.63 75.2874 1387.94 77.8916 1384.32 79.7855C1380.7 81.6558 1376.07 82.5909 1370.44 82.5909H1350.55V74.6364H1370.15C1374.04 74.6364 1377.16 74.0682 1379.53 72.9318C1381.92 71.7955 1383.65 70.1856 1384.71 68.1023C1385.8 65.9953 1386.35 63.4858 1386.35 60.5739C1386.35 57.6619 1385.8 55.1169 1384.71 52.9389C1383.62 50.7609 1381.88 49.08 1379.49 47.8963C1377.1 46.6889 1373.94 46.0852 1370.01 46.0852H1354.53V111H1345.72ZM1379.95 78.3295L1397.85 111H1387.62L1370.01 78.3295H1379.95ZM1409.69 111V38.2727H1418.49V103.188H1452.3V111H1409.69Z" fill="black"/>
<path d="M1267.33 61V62H1268.52L1268.31 60.8255L1267.33 61ZM1258.52 61L1257.54 61.2014L1257.71 62H1258.52V61ZM1255.79 54.3239L1254.96 54.8786L1254.96 54.8856L1255.79 54.3239ZM1251.1 49.4943L1250.51 50.3031L1250.52 50.3074L1250.52 50.3116L1251.1 49.4943ZM1245.03 46.5114L1244.74 47.4697L1244.74 47.4697L1245.03 46.5114ZM1226.1 48.8551L1225.57 48.0062L1225.57 48.0077L1226.1 48.8551ZM1217.61 58.6918L1216.71 58.2544L1216.71 58.2584L1217.61 58.6918ZM1217.61 90.581L1216.71 91.0143L1216.71 91.0183L1217.61 90.581ZM1226.1 100.418L1225.57 101.265L1225.57 101.267L1226.1 100.418ZM1245.03 102.761L1244.74 101.803L1244.74 101.803L1245.03 102.761ZM1251.1 99.8139L1251.68 100.628L1251.68 100.626L1251.1 99.8139ZM1255.79 94.9489L1254.96 94.3918L1254.96 94.3942L1255.79 94.9489ZM1258.52 88.2727V87.2727H1257.71L1257.54 88.0695L1258.52 88.2727ZM1267.33 88.2727L1268.31 88.4483L1268.52 87.2727H1267.33V88.2727ZM1263.71 98.2514L1262.85 97.739L1262.85 97.739L1263.71 98.2514ZM1257.17 105.744L1257.79 106.532L1257.79 106.529L1257.17 105.744ZM1248.4 110.396L1248.09 109.446L1248.09 109.447L1248.4 110.396ZM1221.52 107.449L1220.99 108.296L1220.99 108.296L1221.52 107.449ZM1210.12 94.5227L1211.02 94.0786L1211.02 94.0786L1210.12 94.5227ZM1248.4 38.8764L1248.09 39.8258L1248.09 39.8265L1248.4 38.8764ZM1257.17 43.5639L1256.55 44.3483L1256.56 44.3517L1257.17 43.5639ZM1263.71 51.0213L1262.85 51.5338L1262.85 51.5368L1263.71 51.0213ZM1267.33 60H1258.52V62H1267.33V60ZM1259.5 60.7986C1258.96 58.1514 1258 55.8006 1256.62 53.7621L1254.96 54.8856C1256.18 56.6824 1257.05 58.7823 1257.54 61.2014L1259.5 60.7986ZM1256.62 53.7692C1255.28 51.7511 1253.63 50.0516 1251.68 48.6771L1250.52 50.3116C1252.27 51.5412 1253.74 53.0614 1254.96 54.8786L1256.62 53.7692ZM1251.69 48.6856C1249.77 47.2911 1247.64 46.2472 1245.31 45.553L1244.74 47.4697C1246.86 48.1013 1248.78 49.046 1250.51 50.3031L1251.69 48.6856ZM1245.31 45.553C1242.99 44.8614 1240.58 44.517 1238.07 44.517V46.517C1240.39 46.517 1242.61 46.8356 1244.74 47.4697L1245.31 45.553ZM1238.07 44.517C1233.49 44.517 1229.31 45.6774 1225.57 48.0062L1226.63 49.7041C1230.04 47.582 1233.84 46.517 1238.07 46.517V44.517ZM1225.57 48.0077C1221.84 50.3468 1218.89 53.7793 1216.71 58.2544L1218.51 59.1291C1220.55 54.9395 1223.26 51.8142 1226.63 49.7025L1225.57 48.0077ZM1216.71 58.2584C1214.55 62.7611 1213.49 68.2336 1213.49 74.6364H1215.49C1215.49 68.4444 1216.51 63.2872 1218.51 59.1251L1216.71 58.2584ZM1213.49 74.6364C1213.49 81.0391 1214.55 86.5116 1216.71 91.0143L1218.51 90.1476C1216.51 85.9856 1215.49 80.8283 1215.49 74.6364H1213.49ZM1216.71 91.0183C1218.89 95.4934 1221.84 98.9259 1225.57 101.265L1226.63 99.5703C1223.26 97.4585 1220.55 94.3333 1218.51 90.1436L1216.71 91.0183ZM1225.57 101.267C1229.31 103.595 1233.49 104.756 1238.07 104.756V102.756C1233.84 102.756 1230.04 101.691 1226.63 99.5687L1225.57 101.267ZM1238.07 104.756C1240.58 104.756 1242.99 104.411 1245.31 103.72L1244.74 101.803C1242.61 102.437 1240.39 102.756 1238.07 102.756V104.756ZM1245.31 103.72C1247.64 103.026 1249.77 101.996 1251.68 100.628L1250.52 99.0002C1248.79 100.236 1246.87 101.17 1244.74 101.803L1245.31 103.72ZM1251.68 100.626C1253.63 99.2293 1255.28 97.5199 1256.62 95.5036L1254.96 94.3942C1253.74 96.213 1252.27 97.747 1250.52 99.0016L1251.68 100.626ZM1256.62 95.5059C1258 93.4475 1258.96 91.0996 1259.5 88.4759L1257.54 88.0695C1257.05 90.4648 1256.18 92.5677 1254.96 94.3918L1256.62 95.5059ZM1258.52 89.2727H1267.33V87.2727H1258.52V89.2727ZM1266.35 88.0972C1265.7 91.7074 1264.53 94.9174 1262.85 97.739L1264.57 98.7639C1266.39 95.7142 1267.63 92.2717 1268.31 88.4483L1266.35 88.0972ZM1262.85 97.739C1261.16 100.573 1259.06 102.978 1256.55 104.96L1257.79 106.529C1260.5 104.391 1262.75 101.801 1264.57 98.7639L1262.85 97.739ZM1256.56 104.957C1254.05 106.919 1251.23 108.416 1248.09 109.446L1248.71 111.346C1252.06 110.246 1255.09 108.642 1257.79 106.532L1256.56 104.957ZM1248.09 109.447C1244.98 110.476 1241.64 110.994 1238.07 110.994V112.994C1241.84 112.994 1245.39 112.447 1248.72 111.346L1248.09 109.447ZM1238.07 110.994C1232.04 110.994 1226.71 109.523 1222.05 106.602L1220.99 108.296C1225.99 111.435 1231.69 112.994 1238.07 112.994V110.994ZM1222.05 106.602C1217.39 103.679 1213.71 99.5164 1211.02 94.0786L1209.22 94.9669C1212.07 100.703 1215.99 105.158 1220.99 108.296L1222.05 106.602ZM1211.02 94.0786C1208.33 88.6576 1206.97 82.1875 1206.97 74.6364H1204.97C1204.97 82.4261 1206.37 89.2136 1209.22 94.9669L1211.02 94.0786ZM1206.97 74.6364C1206.97 67.0852 1208.33 60.6151 1211.02 55.1942L1209.22 54.3058C1206.37 60.0591 1204.97 66.8466 1204.97 74.6364H1206.97ZM1211.02 55.1942C1213.71 49.7564 1217.39 45.594 1222.05 42.6709L1220.99 40.9768C1215.99 44.1143 1212.07 48.5694 1209.22 54.3058L1211.02 55.1942ZM1222.05 42.6709C1226.71 39.7493 1232.04 38.2784 1238.07 38.2784V36.2784C1231.69 36.2784 1225.99 37.8378 1220.99 40.9768L1222.05 42.6709ZM1238.07 38.2784C1241.64 38.2784 1244.98 38.7966 1248.09 39.8258L1248.72 37.927C1245.39 36.8255 1241.84 36.2784 1238.07 36.2784V38.2784ZM1248.09 39.8265C1251.22 40.8562 1254.04 42.3636 1256.55 44.3483L1257.79 42.7796C1255.09 40.6449 1252.07 39.0273 1248.71 37.9264L1248.09 39.8265ZM1256.56 44.3517C1259.06 46.3091 1261.16 48.7004 1262.85 51.5338L1264.57 50.5088C1262.75 47.4709 1260.49 44.8907 1257.79 42.7761L1256.56 44.3517ZM1262.85 51.5368C1264.53 54.3322 1265.7 57.5404 1266.34 61.1745L1268.31 60.8255C1267.63 56.9786 1266.39 53.5343 1264.56 50.5058L1262.85 51.5368ZM1277.58 46.0852H1276.58V47.0852H1277.58V46.0852ZM1277.58 38.2727V37.2727H1276.58V38.2727H1277.58ZM1332.13 38.2727H1333.13V37.2727H1332.13V38.2727ZM1332.13 46.0852V47.0852H1333.13V46.0852H1332.13ZM1309.26 46.0852V45.0852H1308.26V46.0852H1309.26ZM1309.26 111V112H1310.26V111H1309.26ZM1300.45 111H1299.45V112H1300.45V111ZM1300.45 46.0852H1301.45V45.0852H1300.45V46.0852ZM1278.58 46.0852V38.2727H1276.58V46.0852H1278.58ZM1277.58 39.2727H1332.13V37.2727H1277.58V39.2727ZM1331.13 38.2727V46.0852H1333.13V38.2727H1331.13ZM1332.13 45.0852H1309.26V47.0852H1332.13V45.0852ZM1308.26 46.0852V111H1310.26V46.0852H1308.26ZM1309.26 110H1300.45V112H1309.26V110ZM1301.45 111V46.0852H1299.45V111H1301.45ZM1300.45 45.0852H1277.58V47.0852H1300.45V45.0852ZM1345.72 111H1344.72V112H1345.72V111ZM1345.72 38.2727V37.2727H1344.72V38.2727H1345.72ZM1384.29 41.1847L1383.82 42.0673L1383.82 42.0697L1384.29 41.1847ZM1392.38 49.1037L1391.5 49.5658L1391.5 49.5658L1392.38 49.1037ZM1392.38 71.973L1391.5 71.5057L1391.5 71.5057L1392.38 71.973ZM1384.32 79.7855L1384.78 80.6741L1384.79 80.6717L1384.32 79.7855ZM1350.55 82.5909H1349.55V83.5909H1350.55V82.5909ZM1350.55 74.6364V73.6364H1349.55V74.6364H1350.55ZM1379.53 72.9318L1379.1 72.0286L1379.09 72.0303L1379.53 72.9318ZM1384.71 68.1023L1383.82 67.6431L1383.82 67.647L1384.71 68.1023ZM1379.49 47.8963L1379.04 48.789L1379.05 48.7925L1379.49 47.8963ZM1354.53 46.0852V45.0852H1353.53V46.0852H1354.53ZM1354.53 111V112H1355.53V111H1354.53ZM1379.95 78.3295L1380.83 77.8491L1380.55 77.3295H1379.95V78.3295ZM1397.85 111V112H1399.54L1398.73 110.52L1397.85 111ZM1387.62 111L1386.74 111.475L1387.03 112H1387.62V111ZM1370.01 78.3295V77.3295H1368.34L1369.13 78.8041L1370.01 78.3295ZM1346.72 111V38.2727H1344.72V111H1346.72ZM1345.72 39.2727H1370.29V37.2727H1345.72V39.2727ZM1370.29 39.2727C1375.87 39.2727 1380.36 40.2265 1383.82 42.0673L1384.76 40.302C1380.92 38.2602 1376.08 37.2727 1370.29 37.2727V39.2727ZM1383.82 42.0697C1387.3 43.9011 1389.85 46.4004 1391.5 49.5658L1393.27 48.6416C1391.42 45.0835 1388.56 42.3034 1384.75 40.2996L1383.82 42.0697ZM1391.5 49.5658C1393.16 52.7672 1394.01 56.4285 1394.01 60.5739H1396.01C1396.01 56.1491 1395.11 52.1637 1393.27 48.6416L1391.5 49.5658ZM1394.01 60.5739C1394.01 64.7195 1393.16 68.3547 1391.5 71.5057L1393.27 72.4403C1395.11 68.9625 1396.01 64.9983 1396.01 60.5739H1394.01ZM1391.5 71.5057C1389.85 74.6249 1387.32 77.0903 1383.86 78.8993L1384.79 80.6717C1388.57 78.6928 1391.41 75.9499 1393.27 72.4403L1391.5 71.5057ZM1383.86 78.897C1380.43 80.6714 1375.97 81.5909 1370.44 81.5909V83.5909C1376.17 83.5909 1380.97 82.6401 1384.78 80.6741L1383.86 78.897ZM1370.44 81.5909H1350.55V83.5909H1370.44V81.5909ZM1351.55 82.5909V74.6364H1349.55V82.5909H1351.55ZM1350.55 75.6364H1370.15V73.6364H1350.55V75.6364ZM1370.15 75.6364C1374.12 75.6364 1377.41 75.058 1379.96 73.8333L1379.09 72.0303C1376.91 73.0784 1373.95 73.6364 1370.15 73.6364V75.6364ZM1379.96 73.835C1382.52 72.6172 1384.42 70.8623 1385.6 68.5576L1383.82 67.647C1382.87 69.5089 1381.32 70.9737 1379.1 72.0286L1379.96 73.835ZM1385.6 68.5614C1386.78 66.2837 1387.35 63.6097 1387.35 60.5739H1385.35C1385.35 63.3619 1384.82 65.7068 1383.82 67.6431L1385.6 68.5614ZM1387.35 60.5739C1387.35 57.5368 1386.78 54.8332 1385.61 52.4917L1383.82 53.3861C1384.83 55.4007 1385.35 57.7871 1385.35 60.5739H1387.35ZM1385.61 52.4917C1384.41 50.1001 1382.5 48.2706 1379.94 47.0001L1379.05 48.7925C1381.26 49.8894 1382.84 51.4217 1383.82 53.3861L1385.61 52.4917ZM1379.94 47.0037C1377.36 45.7005 1374.03 45.0852 1370.01 45.0852V47.0852C1373.85 47.0852 1376.84 47.6773 1379.04 48.789L1379.94 47.0037ZM1370.01 45.0852H1354.53V47.0852H1370.01V45.0852ZM1353.53 46.0852V111H1355.53V46.0852H1353.53ZM1354.53 110H1345.72V112H1354.53V110ZM1379.08 78.81L1396.97 111.48L1398.73 110.52L1380.83 77.8491L1379.08 78.81ZM1397.85 110H1387.62V112H1397.85V110ZM1388.5 110.525L1370.89 77.855L1369.13 78.8041L1386.74 111.475L1388.5 110.525ZM1370.01 79.3295H1379.95V77.3295H1370.01V79.3295ZM1409.69 111H1408.69V112H1409.69V111ZM1409.69 38.2727V37.2727H1408.69V38.2727H1409.69ZM1418.49 38.2727H1419.49V37.2727H1418.49V38.2727ZM1418.49 103.188H1417.49V104.188H1418.49V103.188ZM1452.3 103.188H1453.3V102.188H1452.3V103.188ZM1452.3 111V112H1453.3V111H1452.3ZM1410.69 111V38.2727H1408.69V111H1410.69ZM1409.69 39.2727H1418.49V37.2727H1409.69V39.2727ZM1417.49 38.2727V103.188H1419.49V38.2727H1417.49ZM1418.49 104.188H1452.3V102.188H1418.49V104.188ZM1451.3 103.188V111H1453.3V103.188H1451.3ZM1452.3 110H1409.69V112H1452.3V110Z" fill="black" mask="url(#path-21-outside-8_160_146695)"/>
<path d="M1456 42L1486 59.3205V24.6795L1456 42ZM1518 39H1483V45H1518V39Z" fill="black"/>
<path d="M1560 107L1530 89.6795V124.321L1560 107ZM1498 110H1533V104H1498V110Z" fill="black"/>
</svg>
