<svg width="475" height="200" viewBox="0 0 475 200" fill="none" xmlns="http://www.w3.org/2000/svg">
<path d="M69.5469 99.4431C61.3394 98.4261 57.2229 92.3367 57.1866 84.4027C57.1582 78.5218 57.1511 72.6395 57.1653 66.7559C57.1653 66.6863 57.2002 66.6516 57.2698 66.6516H69.7452C69.8024 66.6516 69.8572 66.674 69.8976 66.7139C69.938 66.7538 69.9607 66.8079 69.9607 66.8644C69.9592 71.8161 69.9564 76.7807 69.9521 81.758C69.9479 84.2942 70.6304 86.9282 73.6165 87.3112C76.9076 87.7303 78.0145 85.2984 78.2364 82.4346C78.434 79.8871 78.4369 77.3381 78.2449 74.7878C77.9548 70.9282 76.0928 67.8388 73.7807 64.858C70.8359 61.0622 67.8768 57.2771 64.9035 53.5027C60.7721 48.2537 58.2467 42.6282 57.9417 35.9176C57.5642 27.5963 57.3637 17.5729 66.9341 14.3324C68.5053 13.8005 70.2237 13.4863 72.0893 13.3899C75.2489 13.2254 77.9506 13.2991 80.1944 13.6112C87.9177 14.6878 90.7438 20.0324 90.7907 27.292C90.822 32.1218 90.8234 36.953 90.795 41.7856C90.795 41.8551 90.7601 41.8899 90.6905 41.8899L78.5968 41.9282C78.5397 41.9282 78.4849 41.9056 78.4445 41.8653C78.4041 41.825 78.3814 41.7703 78.3814 41.7133C78.3828 37.8693 78.3864 34.0012 78.3921 30.109C78.3963 27.875 78.1788 25.1282 75.3463 24.792C71.9677 24.392 71.0634 26.6388 70.9887 29.5644C70.9461 31.1998 70.9859 32.8346 71.1082 34.4686C71.3812 38.092 73.0641 40.9856 75.2204 43.8027C78.4269 47.9927 81.6462 52.1729 84.8783 56.3431C88.4296 60.9282 91.0722 65.5261 91.7676 71.3814C92.1963 74.9942 92.1814 78.9878 91.9446 82.7814C91.4092 91.3771 87.2629 98.6154 77.8994 99.5027C74.9247 99.7849 72.1405 99.7651 69.5469 99.4431Z" fill="black"/>
<path d="M53.379 89.1974C53.4486 92.3449 53.46 95.4378 53.4131 98.4761C53.4088 98.6761 53.3072 98.7761 53.1081 98.7761H40.7393C40.6828 98.7761 40.6285 98.7537 40.5885 98.7138C40.5485 98.6739 40.526 98.6198 40.526 98.5633V61.808C40.526 61.7516 40.5036 61.6975 40.4636 61.6576C40.4236 61.6177 40.3693 61.5952 40.3127 61.5952H31.9411C31.8839 61.5952 31.8291 61.6177 31.7887 61.6576C31.7483 61.6975 31.7256 61.7516 31.7256 61.808L31.7299 98.5101C31.7299 98.6874 31.641 98.7761 31.4633 98.7761L19.0092 98.7718C18.921 98.7718 18.877 98.7279 18.877 98.6399V14.2548C18.877 14.1839 18.9125 14.1484 18.9836 14.1484H31.6467C31.6676 14.1484 31.6877 14.1567 31.7025 14.1715C31.7173 14.1863 31.7256 14.2063 31.7256 14.2272L31.7363 47.8506C31.7363 47.8743 31.741 47.8978 31.7503 47.9198C31.7595 47.9417 31.773 47.9617 31.79 47.9784C31.807 47.9952 31.8273 48.0086 31.8495 48.0177C31.8718 48.0267 31.8956 48.0314 31.9197 48.0314H40.3127C40.3693 48.0314 40.4236 48.009 40.4636 47.9691C40.5036 47.9292 40.526 47.8751 40.526 47.8186V14.2825C40.526 14.1931 40.5701 14.1484 40.6583 14.1484H53.2659C53.3095 14.1484 53.3513 14.1657 53.3821 14.1964C53.4129 14.2271 53.4302 14.2688 53.4302 14.3123C53.4302 39.1676 53.4302 64.0421 53.4302 88.9357C53.4302 88.9725 53.423 89.0066 53.4088 89.0378C53.3875 89.0889 53.3775 89.1421 53.379 89.1974Z" fill="black"/>
<path d="M108.736 48.5633L121.357 48.5697C121.388 48.5697 121.418 48.582 121.44 48.604C121.462 48.6259 121.474 48.6557 121.474 48.6867L121.468 61.3718C121.468 61.4029 121.455 61.4326 121.433 61.4546C121.411 61.4765 121.381 61.4889 121.35 61.4889H108.736C108.705 61.4889 108.675 61.5012 108.653 61.5231C108.631 61.5451 108.619 61.5748 108.619 61.6059L108.617 85.7336C108.617 85.7646 108.629 85.7943 108.651 85.8163C108.673 85.8382 108.703 85.8506 108.734 85.8506H125.565C125.596 85.8506 125.626 85.8629 125.648 85.8848C125.67 85.9068 125.682 85.9365 125.682 85.9676V98.6591C125.682 98.6901 125.67 98.7199 125.648 98.7418C125.626 98.7638 125.596 98.7761 125.565 98.7761H95.8322C95.801 98.7761 95.7712 98.7638 95.7492 98.7418C95.7272 98.7199 95.7148 98.6901 95.7148 98.6591V14.2655C95.7148 14.2344 95.7272 14.2047 95.7492 14.1827C95.7712 14.1608 95.801 14.1484 95.8322 14.1484H124.925C124.956 14.1484 124.986 14.1608 125.008 14.1827C125.03 14.2047 125.042 14.2344 125.042 14.2655V26.3187C125.042 26.3497 125.03 26.3795 125.008 26.4014C124.986 26.4233 124.956 26.4357 124.925 26.4357H108.736C108.705 26.4357 108.675 26.448 108.653 26.4699C108.631 26.4919 108.619 26.5217 108.619 26.5527V48.4463C108.619 48.4617 108.622 48.4769 108.628 48.4911C108.634 48.5053 108.642 48.5182 108.653 48.5291C108.664 48.5399 108.677 48.5485 108.691 48.5544C108.706 48.5603 108.721 48.5633 108.736 48.5633Z" fill="black"/>
<path d="M151.096 83.0272L149.42 98.6208C149.415 98.6637 149.395 98.7033 149.362 98.7319C149.33 98.7606 149.288 98.7764 149.245 98.7761H138.047C138.022 98.7763 137.998 98.7712 137.975 98.7611C137.952 98.751 137.932 98.7362 137.915 98.7177C137.899 98.6992 137.886 98.6774 137.879 98.6537C137.872 98.63 137.869 98.605 137.872 98.5804L148.213 14.3016C148.218 14.2591 148.239 14.2201 148.271 14.1918C148.303 14.1636 148.345 14.1481 148.388 14.1484H163.388C163.431 14.1486 163.471 14.1639 163.503 14.1917C163.535 14.2195 163.556 14.2578 163.561 14.2995L174.576 98.5782C174.579 98.6028 174.577 98.6279 174.57 98.6517C174.563 98.6755 174.551 98.6975 174.534 98.7162C174.518 98.735 174.498 98.75 174.475 98.7603C174.452 98.7706 174.428 98.776 174.403 98.7761H162.299C162.255 98.7764 162.213 98.7606 162.181 98.7319C162.149 98.7033 162.128 98.6637 162.124 98.6208L160.447 83.0229C160.442 82.98 160.422 82.9404 160.39 82.9117C160.357 82.8831 160.316 82.8673 160.272 82.8676L151.271 82.8718C151.228 82.8716 151.186 82.8873 151.154 82.916C151.122 82.9447 151.101 82.9843 151.096 83.0272ZM152.393 70.0846C152.392 70.0941 152.393 70.1036 152.397 70.1126C152.4 70.1216 152.404 70.1299 152.411 70.1369C152.417 70.144 152.425 70.1495 152.434 70.1534C152.443 70.1572 152.452 70.1591 152.462 70.1591L158.971 70.1633C158.981 70.1634 158.99 70.1614 158.999 70.1576C159.008 70.1538 159.015 70.1482 159.022 70.1412C159.028 70.1342 159.033 70.1259 159.036 70.1169C159.039 70.1079 159.04 70.0983 159.039 70.0889L155.723 39.6867C155.72 39.671 155.712 39.6568 155.699 39.6465C155.687 39.6363 155.672 39.6306 155.656 39.6306C155.64 39.6306 155.624 39.6363 155.612 39.6465C155.599 39.6568 155.591 39.671 155.588 39.6867L152.393 70.0846Z" fill="black"/>
<path d="M189.644 61.0385C189.554 61.0428 189.51 61.0896 189.51 61.1789V98.5364C189.51 98.5996 189.484 98.6602 189.44 98.7049C189.395 98.7496 189.334 98.7747 189.271 98.7747L176.819 98.7789C176.762 98.7789 176.708 98.7563 176.668 98.716C176.628 98.6757 176.605 98.621 176.605 98.564V14.3577C176.605 14.3024 176.627 14.2493 176.667 14.2102C176.706 14.1711 176.759 14.1491 176.814 14.1491C183.936 14.1477 191.082 14.1484 198.255 14.1513C207.381 14.1555 210.476 19.5704 210.393 27.9023C210.344 32.8917 210.399 37.8811 210.338 42.8704C210.284 47.0704 208.84 51.0342 204.948 52.9811C204.938 52.9858 204.931 52.9931 204.925 53.002C204.92 53.0108 204.917 53.021 204.917 53.0312C204.917 53.0414 204.92 53.0514 204.925 53.0598C204.931 53.0682 204.938 53.0749 204.948 53.0789C208.322 54.6038 210.104 57.2456 210.293 61.0045C210.333 61.7874 210.355 62.574 210.359 63.364C210.399 70.8818 210.415 78.3995 210.408 85.9172C210.404 90.0342 209.877 94.3577 211.668 98.2279C211.696 98.2868 211.707 98.3516 211.703 98.4163C211.699 98.481 211.678 98.5436 211.643 98.5982C211.608 98.6528 211.559 98.6978 211.502 98.729C211.445 98.7602 211.382 98.7767 211.317 98.7768H199.099C199.005 98.7767 198.912 98.7493 198.833 98.6979C198.754 98.6466 198.691 98.5734 198.653 98.4874C198.016 97.0506 197.689 95.5023 197.67 93.8428C197.566 84.3704 197.534 74.8981 197.574 65.4257C197.585 62.7002 196.533 61.2768 193.799 61.0811C192.398 60.9818 191.013 60.9676 189.644 61.0385ZM193.984 48.8194C197.359 48.43 197.691 44.6385 197.617 42.0364C197.51 38.3194 197.561 34.596 197.563 30.8768C197.563 28.3108 197.032 25.9321 194.053 25.7279C192.584 25.6257 191.131 25.6016 189.695 25.6555C189.645 25.6572 189.598 25.6781 189.564 25.7138C189.529 25.7496 189.51 25.7973 189.51 25.847V48.7236C189.51 48.7551 189.516 48.7862 189.528 48.8151C189.541 48.844 189.559 48.8701 189.582 48.8916C189.605 48.9131 189.632 48.9297 189.662 48.9404C189.692 48.951 189.723 48.9554 189.755 48.9534C191.195 48.8555 192.607 48.9789 193.984 48.8194Z" fill="black"/>
<path d="M236.181 98.7761H223.781C223.755 98.7761 223.729 98.771 223.705 98.761C223.681 98.7511 223.659 98.7365 223.64 98.7181C223.622 98.6998 223.607 98.678 223.597 98.654C223.587 98.6299 223.582 98.6042 223.582 98.5782V26.6335C223.582 26.5811 223.561 26.5307 223.524 26.4936C223.487 26.4565 223.437 26.4357 223.384 26.4357H212.956C212.904 26.4357 212.853 26.4148 212.816 26.3777C212.779 26.3406 212.758 26.2903 212.758 26.2378V14.3463C212.758 14.3203 212.763 14.2946 212.773 14.2706C212.783 14.2466 212.797 14.2248 212.816 14.2064C212.834 14.188 212.856 14.1734 212.88 14.1635C212.904 14.1536 212.93 14.1484 212.956 14.1484H247.006C247.032 14.1484 247.058 14.1536 247.082 14.1635C247.106 14.1734 247.128 14.188 247.146 14.2064C247.165 14.2248 247.179 14.2466 247.189 14.2706C247.199 14.2946 247.204 14.3203 247.204 14.3463V26.2378C247.204 26.2903 247.183 26.3406 247.146 26.3777C247.109 26.4148 247.059 26.4357 247.006 26.4357H236.578C236.552 26.4357 236.526 26.4408 236.502 26.4507C236.478 26.4607 236.456 26.4753 236.438 26.4936C236.42 26.512 236.405 26.5338 236.395 26.5578C236.385 26.5818 236.38 26.6076 236.38 26.6335V98.5782C236.38 98.6307 236.359 98.681 236.322 98.7181C236.285 98.7552 236.234 98.7761 236.181 98.7761Z" fill="black"/>
<path d="M281.703 82.8655L272.632 82.8697C272.598 82.87 272.565 82.8828 272.54 82.9055C272.515 82.9283 272.499 82.9594 272.495 82.9931L270.812 98.6527C270.809 98.6864 270.793 98.7175 270.768 98.7403C270.742 98.763 270.71 98.7758 270.676 98.7761H259.401C259.382 98.7759 259.362 98.7717 259.345 98.7635C259.327 98.7554 259.311 98.7436 259.298 98.729C259.285 98.7143 259.276 98.6971 259.27 98.6784C259.264 98.6598 259.262 98.6401 259.265 98.6208L269.611 14.2697C269.616 14.2361 269.632 14.2051 269.658 14.1828C269.683 14.1604 269.716 14.1482 269.75 14.1484H284.819C284.853 14.1487 284.885 14.1611 284.91 14.1835C284.935 14.2058 284.952 14.2364 284.956 14.2697L295.979 98.6229C295.981 98.6423 295.979 98.6619 295.973 98.6806C295.968 98.6992 295.958 98.7164 295.945 98.7311C295.932 98.7458 295.916 98.7576 295.899 98.7657C295.881 98.7738 295.862 98.7781 295.842 98.7782L283.659 98.7697C283.625 98.7694 283.592 98.7566 283.567 98.7339C283.542 98.7112 283.526 98.68 283.522 98.6463L281.839 82.9889C281.836 82.9552 281.82 82.924 281.795 82.9013C281.77 82.8785 281.737 82.8658 281.703 82.8655ZM280.334 70.1591C280.348 70.1592 280.362 70.1562 280.375 70.1504C280.389 70.1446 280.4 70.1362 280.41 70.1255C280.42 70.1149 280.427 70.1023 280.432 70.0887C280.436 70.075 280.438 70.0606 280.436 70.0463L277.136 39.8357C277.081 39.3279 277.026 39.3286 276.972 39.8378L273.783 70.0931C273.782 70.1022 273.783 70.1114 273.786 70.1201C273.789 70.1288 273.793 70.1369 273.8 70.1438C273.806 70.1506 273.813 70.1561 273.822 70.1598C273.831 70.1636 273.84 70.1655 273.85 70.1655L280.334 70.1591Z" fill="black"/>
<path d="M309.729 50.5952C309.676 51.0917 309.65 51.5357 309.65 51.9272C309.647 67.5101 309.646 83.0903 309.648 98.6676C309.648 98.6975 309.636 98.7262 309.615 98.7473C309.595 98.7685 309.566 98.7803 309.537 98.7803L298.333 98.7676C298.127 98.7676 298.023 98.6648 298.023 98.4591V14.2548C298.023 14.2266 298.035 14.1995 298.055 14.1796C298.075 14.1596 298.102 14.1484 298.13 14.1484H309.624C309.663 14.1484 309.686 14.1669 309.695 14.2038L320.553 58.7548C320.644 59.1307 320.69 59.125 320.69 58.7378L320.684 14.2357C320.684 14.2125 320.693 14.1903 320.709 14.174C320.726 14.1576 320.748 14.1484 320.771 14.1484H332.363C332.392 14.1484 332.419 14.1596 332.439 14.1796C332.459 14.1995 332.47 14.2266 332.47 14.2548V98.5016C332.47 98.5371 332.463 98.5723 332.449 98.605C332.436 98.6378 332.416 98.6676 332.391 98.6927C332.366 98.7178 332.336 98.7377 332.303 98.7513C332.27 98.7649 332.235 98.7718 332.199 98.7718L322.125 98.7782C322.078 98.7782 322.031 98.7622 321.994 98.7329C321.956 98.7036 321.93 98.6627 321.918 98.6165L309.772 50.591C309.752 50.5144 309.737 50.5158 309.729 50.5952Z" fill="black"/>
<path d="M337.605 98.7555C337.501 98.7544 337.402 98.7124 337.329 98.6387C337.256 98.565 337.215 98.4656 337.215 98.3619V14.3619C337.215 14.3066 337.237 14.2536 337.275 14.2145C337.314 14.1754 337.367 14.1534 337.422 14.1534C344.099 14.1506 350.802 14.1463 357.531 14.1406C364.785 14.1364 369.49 17.4513 370.945 24.5577C371.276 26.1818 371.442 27.7172 371.444 29.164C371.45 47.1215 371.437 65.0782 371.408 83.0342C371.391 92.4917 367.02 98.7236 357.01 98.7768C350.63 98.8108 344.162 98.8037 337.605 98.7555ZM358.179 31.93C358.173 29.264 357.842 25.8683 354.329 25.6959C352.964 25.6293 351.61 25.6151 350.266 25.6534C350.241 25.654 350.217 25.6643 350.2 25.6822C350.182 25.7001 350.172 25.7241 350.172 25.7491V86.2832C350.172 86.364 350.213 86.4066 350.294 86.4108C351.484 86.4761 352.674 86.4747 353.864 86.4066C357.885 86.1789 358.209 82.764 358.211 79.63C358.223 63.7307 358.212 47.8307 358.179 31.93Z" fill="black"/>
<path d="M92.9452 180.717C90.7205 177.813 89.9143 174.045 89.9058 170.47C89.8915 164.67 89.8937 158.87 89.9122 153.07C89.9122 153.008 89.9427 152.977 90.0039 152.977L102.541 152.979C102.612 152.979 102.648 153.015 102.648 153.087C102.646 157.259 102.648 161.427 102.654 165.592C102.656 168.572 102.307 173.434 106.606 173.63C109.471 173.76 110.682 171.857 110.906 169.253C111.16 166.317 111.222 162.749 110.868 160.164C110.392 156.711 108.671 154.004 106.506 151.2C103.53 147.348 100.542 143.504 97.5416 139.67C93.6384 134.679 91.2964 129.617 90.7568 123.255C89.8439 112.511 90.552 100.634 104.422 99.7383C115.127 99.0468 123.371 100.789 123.51 113.585C123.562 118.328 123.572 123.165 123.538 128.094C123.538 128.12 123.527 128.145 123.509 128.163C123.49 128.181 123.465 128.192 123.439 128.192H111.182C111.153 128.192 111.125 128.18 111.105 128.16C111.084 128.139 111.073 128.112 111.073 128.083C111.073 124.004 111.071 119.909 111.069 115.798C111.066 113.149 110.313 110.84 107.116 111.068C105.313 111.199 104.259 112.126 103.953 113.851C103.55 116.117 103.588 118.987 103.825 121.126C104.237 124.849 106.165 127.83 108.411 130.757C112.198 135.694 114.803 139.064 116.228 140.868C119.444 144.943 122.358 148.945 123.762 153.938C124.879 157.911 124.843 162.13 124.747 166.436C124.696 168.782 124.563 170.622 124.348 171.955C123.107 179.662 118.525 185.064 110.452 185.836C104.35 186.419 97.0404 186.068 92.9452 180.717Z" fill="black"/>
<path d="M170.644 176.93C170.642 176.92 170.637 176.911 170.629 176.905C170.621 176.898 170.612 176.895 170.601 176.894C170.591 176.894 170.581 176.896 170.572 176.902C170.563 176.908 170.556 176.916 170.552 176.926C168.716 181.468 164.738 185.573 159.7 186.126C151.64 187.011 146.941 180.943 145.921 173.722C145.798 172.849 145.736 171.527 145.736 169.753C145.73 152.247 145.74 134.741 145.766 117.234C145.776 110.639 147.967 103.458 154.756 100.811C158.233 99.4556 162.14 99.5067 165.928 99.7088C176.358 100.266 179.302 107.198 179.427 116.398C179.474 119.822 179.498 123.378 179.498 127.066C179.498 127.124 179.475 127.179 179.434 127.22C179.393 127.26 179.338 127.283 179.28 127.283L167.11 127.296C167.054 127.296 167 127.274 166.961 127.234C166.921 127.195 166.899 127.141 166.899 127.085C166.906 123.549 166.903 120.004 166.89 116.449C166.88 113.607 165.158 111.473 162.098 112.026C159.086 112.571 158.853 115.862 158.853 118.294C158.846 134.589 158.841 150.885 158.836 167.181C158.834 169.93 159.779 173.185 163.113 173.164C166.918 173.143 167.805 170.383 167.805 167.219C167.802 160.397 167.807 153.59 167.818 146.798C167.818 146.776 167.814 146.754 167.805 146.733C167.796 146.713 167.784 146.694 167.768 146.679C167.752 146.663 167.733 146.651 167.712 146.642C167.692 146.634 167.67 146.63 167.647 146.63L162.215 146.658C162.186 146.658 162.158 146.653 162.131 146.642C162.104 146.631 162.08 146.615 162.06 146.595C162.039 146.575 162.023 146.551 162.012 146.524C162.001 146.498 161.995 146.469 161.995 146.441V133.83C161.995 133.774 162.018 133.72 162.058 133.68C162.098 133.64 162.152 133.617 162.208 133.617H179.884C179.934 133.617 179.981 133.637 180.017 133.672C180.052 133.706 180.072 133.753 180.072 133.802V184.947C180.072 185.018 180.036 185.053 179.965 185.053H172.877C172.845 185.053 172.813 185.043 172.787 185.023C172.761 185.003 172.743 184.976 172.734 184.945L170.644 176.93Z" fill="black"/>
<path d="M269.05 159.301C269.973 170.722 268.805 185.545 253.484 185.935C250.803 186.003 248.075 186.043 245.432 185.524C236.95 183.865 234.33 177.152 234.309 169.382C234.296 163.949 234.295 158.516 234.307 153.084C234.308 153.014 234.344 152.979 234.414 152.979H246.991C247.02 152.979 247.048 152.991 247.068 153.011C247.089 153.032 247.1 153.059 247.1 153.088C247.1 158.16 247.1 163.248 247.1 168.352C247.1 171.518 248.435 173.877 251.946 173.562C254.557 173.326 255.226 170.935 255.391 168.709C255.577 166.179 255.578 163.647 255.395 161.113C255.118 157.316 253.337 154.279 251.044 151.328C247.941 147.334 244.831 143.345 241.714 139.362C237.429 133.89 235.147 127.937 235.041 120.969C234.974 116.679 234.787 113.433 235.717 109.786C238.246 99.8794 247.804 99.0581 256.272 99.7858C265.113 100.545 267.922 106.196 267.943 114.365C267.954 118.939 267.955 123.513 267.945 128.088C267.945 128.116 267.934 128.142 267.914 128.162C267.895 128.181 267.868 128.192 267.841 128.192H255.634C255.604 128.192 255.576 128.181 255.555 128.16C255.535 128.139 255.523 128.111 255.523 128.082C255.526 124.198 255.529 120.299 255.531 116.384C255.534 114.175 255.327 111.45 252.524 111.101C249.455 110.718 248.371 112.458 248.199 115.175C248.098 116.747 248.076 118.321 248.135 119.896C248.288 124.001 250.142 127.233 252.58 130.394C256.048 134.892 259.515 139.391 262.982 143.892C266.552 148.528 268.566 153.328 269.05 159.301Z" fill="black"/>
<path d="M287.943 186.056C280.872 186.028 275.203 182.684 273.394 175.575C272.665 172.705 272.485 170.388 272.485 167.111C272.477 150.255 272.476 133.398 272.483 116.541C272.485 107.737 276.425 100.462 286.123 99.7582C293.288 99.2369 301.679 99.5284 305.006 107.179C306.369 110.318 306.591 113.984 306.599 117.407C306.609 122.369 306.61 127.329 306.601 132.288C306.601 132.316 306.59 132.342 306.571 132.362C306.551 132.381 306.525 132.392 306.497 132.392H294.024C294 132.392 293.977 132.384 293.958 132.369C293.939 132.355 293.925 132.334 293.919 132.311C293.793 131.807 293.908 131.211 293.911 130.852C293.921 126.472 293.919 122.091 293.906 117.711C293.896 114.026 292.584 111.05 288.158 112.137C286.26 112.603 285.654 114.639 285.652 116.341C285.648 133.642 285.646 150.943 285.648 168.243C285.648 170.671 286.424 173.188 289.257 173.511C292.518 173.884 293.949 171.12 293.896 168.337C293.772 161.72 293.926 155.045 293.913 148.296C293.913 148.268 293.924 148.241 293.944 148.221C293.964 148.201 293.991 148.19 294.019 148.19H306.499C306.528 148.19 306.556 148.202 306.576 148.222C306.596 148.242 306.608 148.27 306.608 148.299C306.606 154.86 306.602 161.438 306.595 168.031C306.587 177.801 302.726 186.009 291.517 186.056C290.324 186.062 289.133 186.062 287.943 186.056Z" fill="black"/>
<path d="M359.301 184.929C350.872 181.931 349.652 172.737 349.646 165.097C349.63 140.904 349.629 125.447 349.641 118.727C349.656 111.046 351.881 102.861 360.197 100.433C363.382 99.5033 367.018 99.5054 370.344 99.716C382.674 100.503 384.928 110.014 384.935 120.237C384.943 135.372 384.944 150.507 384.937 165.642C384.933 175.867 382.141 185.629 369.729 186.044C366.236 186.161 362.725 186.148 359.301 184.929ZM362.806 165.522C362.812 168.554 362.714 173.399 367.129 173.556C370.93 173.691 371.773 170.356 371.773 167.344C371.774 150.823 371.765 134.303 371.747 117.782C371.745 115.565 371.062 112.778 368.631 112.133C367.124 111.733 365.803 111.94 364.67 112.754C362.642 114.208 362.816 117.486 362.81 119.644C362.769 134.937 362.767 150.23 362.806 165.522Z" fill="black"/>
<path d="M394.419 182.408C389.72 178.236 388.999 171.484 388.997 165.642C388.991 149.789 388.991 133.938 388.995 118.087C388.997 109.074 392.625 100.804 402.752 99.8227C406.694 99.4398 410.885 99.427 414.571 100.657C422.831 103.414 424.233 111.901 424.235 119.412C424.241 135.194 424.241 150.975 424.237 166.757C424.235 177.231 420.357 186.012 408.296 186.065C403.204 186.087 398.461 185.999 394.419 182.408ZM405.02 173.212C407.084 174.046 409.637 173.333 410.473 171.114C410.881 170.032 411.086 168.863 411.086 167.608C411.077 151.195 411.07 134.783 411.064 118.372C411.064 116.682 410.898 115.097 410.162 113.791C408.886 111.533 405.165 111.34 403.484 113.197C402.33 114.476 402.117 116.67 402.117 118.406C402.108 134.749 402.118 151.092 402.146 167.436C402.151 169.725 402.607 172.24 405.02 173.212Z" fill="black"/>
<path d="M39.3401 185.009C32.5432 185.063 25.7528 185.072 18.9687 185.037C18.9443 185.037 18.921 185.027 18.9038 185.01C18.8866 184.993 18.877 184.97 18.877 184.946V100.531C18.877 100.505 18.8871 100.481 18.9051 100.463C18.9231 100.445 18.9475 100.435 18.9729 100.435C26.0201 100.398 33.08 100.41 40.1528 100.471C41.4411 100.482 42.7905 100.699 44.201 101.12C51.6961 103.365 53.0484 109.941 53.0505 116.818C53.059 134.419 53.0605 152.021 53.0548 169.624C53.0548 170.331 52.9737 171.342 52.8116 172.658C51.8667 180.305 47.2532 184.948 39.3401 185.009ZM39.8094 118.201C39.8051 115.369 39.3828 111.982 35.6694 111.973C33.818 111.969 32.5489 111.965 31.8621 111.96C31.7768 111.96 31.7342 112.003 31.7342 112.088L31.7278 172.548C31.7278 172.631 31.7697 172.675 31.8536 172.677C35.2108 172.809 38.8048 173.207 39.5748 169.194C39.7454 168.301 39.8307 167.398 39.8307 166.486C39.835 150.391 39.8279 134.296 39.8094 118.201Z" fill="black"/>
<path d="M57.5879 184.909V100.562C57.5879 100.525 57.6027 100.489 57.6291 100.463C57.6555 100.437 57.6913 100.422 57.7287 100.422H86.7747C86.812 100.422 86.8478 100.437 86.8742 100.463C86.9006 100.489 86.9155 100.525 86.9155 100.562V112.569C86.9155 112.606 86.9006 112.642 86.8742 112.668C86.8478 112.694 86.812 112.709 86.7747 112.709H70.6328C70.6143 112.709 70.596 112.713 70.5789 112.72C70.5618 112.727 70.5463 112.737 70.5333 112.75C70.5202 112.763 70.5098 112.779 70.5027 112.796C70.4957 112.813 70.492 112.831 70.492 112.85V134.705C70.492 134.723 70.4957 134.742 70.5027 134.759C70.5098 134.776 70.5202 134.791 70.5333 134.804C70.5463 134.817 70.5618 134.828 70.5789 134.835C70.596 134.842 70.6143 134.845 70.6328 134.845L83.2554 134.833C83.2927 134.833 83.3285 134.847 83.3549 134.874C83.3813 134.9 83.3962 134.936 83.3962 134.973V147.622C83.3962 147.659 83.3813 147.695 83.3549 147.721C83.3285 147.748 83.2927 147.762 83.2554 147.762H70.6328C70.6143 147.762 70.596 147.766 70.5789 147.773C70.5618 147.78 70.5463 147.79 70.5333 147.803C70.5202 147.816 70.5098 147.832 70.5027 147.849C70.4957 147.866 70.492 147.884 70.492 147.903V172.037C70.492 172.074 70.5069 172.11 70.5333 172.136C70.5597 172.162 70.5955 172.177 70.6328 172.177H87.4679C87.5052 172.177 87.541 172.192 87.5674 172.218C87.5938 172.245 87.6087 172.28 87.6087 172.318V184.909C87.6087 184.946 87.5938 184.982 87.5674 185.008C87.541 185.035 87.5052 185.05 87.4679 185.05H57.7287C57.6913 185.05 57.6555 185.035 57.6291 185.008C57.6027 184.982 57.5879 184.946 57.5879 184.909Z" fill="black"/>
<path d="M141.185 100.43H128.524C128.457 100.43 128.402 100.484 128.402 100.551V184.934C128.402 185.001 128.457 185.055 128.524 185.055H141.185C141.252 185.055 141.306 185.001 141.306 184.934V100.551C141.306 100.484 141.252 100.43 141.185 100.43Z" fill="black"/>
<path d="M207.158 145.107V100.533C207.158 100.506 207.169 100.481 207.188 100.462C207.207 100.443 207.234 100.433 207.261 100.433L218.785 100.426C218.827 100.426 218.867 100.443 218.896 100.472C218.926 100.502 218.943 100.542 218.943 100.584V184.943C218.943 184.971 218.931 184.998 218.911 185.018C218.891 185.038 218.864 185.05 218.836 185.05H208.54C208.505 185.05 208.471 185.038 208.443 185.016C208.415 184.994 208.395 184.963 208.387 184.928L196.206 136.767C196.202 136.75 196.191 136.735 196.177 136.726C196.163 136.716 196.146 136.712 196.129 136.714C196.112 136.716 196.096 136.724 196.085 136.737C196.073 136.75 196.067 136.766 196.067 136.784C196.069 136.816 196.072 136.846 196.078 136.873C196.09 136.92 196.101 136.964 196.108 137C196.116 137.035 196.12 137.06 196.12 137.071V184.943C196.12 184.971 196.109 184.998 196.089 185.018C196.069 185.038 196.042 185.05 196.014 185.05H184.709C184.653 185.05 184.599 185.027 184.559 184.987C184.519 184.947 184.496 184.893 184.496 184.837V100.528C184.496 100.5 184.507 100.473 184.527 100.453C184.547 100.433 184.574 100.422 184.603 100.422H196.071C196.092 100.422 196.111 100.429 196.127 100.442C196.143 100.454 196.154 100.472 196.159 100.492L207.035 145.122C207.036 145.13 207.038 145.138 207.042 145.145C207.046 145.152 207.052 145.158 207.058 145.163C207.064 145.168 207.072 145.172 207.08 145.174C207.088 145.176 207.096 145.177 207.104 145.176C207.112 145.175 207.12 145.173 207.127 145.169C207.134 145.165 207.14 145.159 207.145 145.153C207.151 145.146 207.154 145.139 207.156 145.131C207.159 145.123 207.159 145.115 207.158 145.107Z" fill="black"/>
<path d="M323.571 148.024L323.558 184.894C323.558 184.915 323.554 184.935 323.546 184.954C323.538 184.973 323.527 184.99 323.512 185.004C323.498 185.018 323.481 185.03 323.462 185.038C323.443 185.046 323.423 185.05 323.402 185.05H310.814C310.773 185.05 310.733 185.033 310.704 185.004C310.675 184.975 310.658 184.935 310.658 184.894V100.581C310.658 100.54 310.675 100.501 310.704 100.472C310.733 100.442 310.773 100.426 310.814 100.426L323.409 100.437C323.45 100.437 323.49 100.453 323.519 100.482C323.548 100.511 323.564 100.551 323.564 100.592L323.56 134.15C323.56 134.191 323.577 134.23 323.606 134.259C323.635 134.288 323.675 134.305 323.716 134.305H332.152C332.193 134.305 332.232 134.288 332.262 134.259C332.291 134.23 332.307 134.191 332.307 134.15V100.577C332.307 100.536 332.324 100.496 332.353 100.467C332.382 100.438 332.422 100.422 332.463 100.422H345.109C345.15 100.422 345.19 100.438 345.219 100.467C345.248 100.496 345.265 100.536 345.265 100.577V184.894C345.265 184.935 345.248 184.975 345.219 185.004C345.19 185.033 345.15 185.05 345.109 185.05H332.463C332.422 185.05 332.382 185.033 332.353 185.004C332.324 184.975 332.307 184.935 332.307 184.894V148.024C332.307 147.983 332.291 147.943 332.262 147.914C332.232 147.885 332.193 147.869 332.152 147.869H323.727C323.685 147.869 323.646 147.885 323.616 147.914C323.587 147.943 323.571 147.983 323.571 148.024Z" fill="black"/>
<path d="M441.72 171.964H457.147C457.187 171.964 457.226 171.98 457.254 172.009C457.282 172.037 457.298 172.075 457.298 172.116V184.898C457.298 184.939 457.282 184.977 457.254 185.005C457.226 185.034 457.187 185.05 457.147 185.05H428.815C428.775 185.05 428.737 185.034 428.708 185.005C428.68 184.977 428.664 184.939 428.664 184.898V100.573C428.664 100.533 428.68 100.494 428.708 100.466C428.737 100.438 428.775 100.422 428.815 100.422H441.417C441.457 100.422 441.495 100.438 441.524 100.466C441.552 100.494 441.568 100.533 441.568 100.573V171.813C441.568 171.853 441.584 171.892 441.613 171.92C441.641 171.949 441.679 171.964 441.72 171.964Z" fill="black"/>
</svg>
