<svg width="1000" height="762" viewBox="0 0 1000 762" fill="none" xmlns="http://www.w3.org/2000/svg">
<mask id="mask0_54_436927" style="mask-type:alpha" maskUnits="userSpaceOnUse" x="0" y="0" width="1000" height="762">
<rect x="2" y="2.98438" width="996" height="756.992" fill="white" stroke="black" stroke-width="4"/>
</mask>
<g mask="url(#mask0_54_436927)">
<path d="M455.715 -248.875L69.4131 1190.92" stroke="black" stroke-width="4"/>
<path d="M940.125 -119.258L553.823 1320.53" stroke="black" stroke-width="4"/>
<path d="M467.246 -245.789L80.9444 1194" stroke="black" stroke-width="4"/>
<path d="M951.656 -116.164L565.355 1323.63" stroke="black" stroke-width="4"/>
<path d="M478.781 -242.703L92.4795 1197.09" stroke="black" stroke-width="4"/>
<path d="M963.191 -113.086L576.89 1326.71" stroke="black" stroke-width="4"/>
<path d="M5.90234 -369.25L-380.399 1070.54" stroke="black" stroke-width="4"/>
<path d="M490.312 -239.617L104.011 1200.17" stroke="black" stroke-width="4"/>
<path d="M974.727 -109.992L588.425 1329.8" stroke="black" stroke-width="4"/>
<path d="M17.4375 -366.164L-368.864 1073.63" stroke="black" stroke-width="4"/>
<path d="M501.848 -236.531L115.546 1203.26" stroke="black" stroke-width="4"/>
<path d="M986.258 -106.914L599.956 1332.88" stroke="black" stroke-width="4"/>
<path d="M28.9727 -363.078L-357.329 1076.71" stroke="black" stroke-width="4"/>
<path d="M513.383 -233.445L127.081 1206.35" stroke="black" stroke-width="4"/>
<path d="M997.793 -103.82L611.491 1335.97" stroke="black" stroke-width="4"/>
<path d="M40.5039 -359.992L-345.798 1079.8" stroke="black" stroke-width="4"/>
<path d="M524.914 -230.352L138.612 1209.44" stroke="black" stroke-width="4"/>
<path d="M1009.32 -100.734L623.022 1339.06" stroke="black" stroke-width="4"/>
<path d="M52.0391 -356.906L-334.263 1082.88" stroke="black" stroke-width="4"/>
<path d="M536.449 -227.273L150.147 1212.52" stroke="black" stroke-width="4"/>
<path d="M1020.86 -97.6484L634.558 1342.14" stroke="black" stroke-width="4"/>
<path d="M63.5703 -353.812L-322.731 1085.98" stroke="black" stroke-width="4"/>
<path d="M547.98 -224.18L161.679 1215.61" stroke="black" stroke-width="4"/>
<path d="M1032.39 -94.5625L646.089 1345.23" stroke="black" stroke-width="4"/>
<path d="M75.1055 -350.734L-311.196 1089.06" stroke="black" stroke-width="4"/>
<path d="M559.516 -221.102L173.214 1218.69" stroke="black" stroke-width="4"/>
<path d="M1043.93 -91.4766L657.624 1348.31" stroke="black" stroke-width="4"/>
<path d="M86.6406 -347.641L-299.661 1092.15" stroke="black" stroke-width="4"/>
<path d="M571.051 -218.016L184.749 1221.78" stroke="black" stroke-width="4"/>
<path d="M1055.46 -88.3906L669.159 1351.4" stroke="black" stroke-width="4"/>
<path d="M98.1719 -344.562L-288.13 1095.23" stroke="black" stroke-width="4"/>
<path d="M582.582 -214.93L196.28 1224.86" stroke="black" stroke-width="4"/>
<path d="M1066.99 -85.3047L680.69 1354.49" stroke="black" stroke-width="4"/>
<path d="M109.707 -341.469L-276.595 1098.32" stroke="black" stroke-width="4"/>
<path d="M594.117 -211.852L207.815 1227.94" stroke="black" stroke-width="4"/>
<path d="M1078.53 -82.2188L692.226 1357.57" stroke="black" stroke-width="4"/>
<path d="M121.238 -338.391L-265.063 1101.4" stroke="black" stroke-width="4"/>
<path d="M605.648 -208.758L219.347 1231.03" stroke="black" stroke-width="4"/>
<path d="M1090.06 -79.125L703.757 1360.67" stroke="black" stroke-width="4"/>
<path d="M132.773 -335.297L-253.528 1104.49" stroke="black" stroke-width="4"/>
<path d="M617.184 -205.68L230.882 1234.11" stroke="black" stroke-width="4"/>
<path d="M1101.59 -76.0469L715.292 1363.74" stroke="black" stroke-width="4"/>
<path d="M144.305 -332.211L-241.997 1107.58" stroke="black" stroke-width="4"/>
<path d="M628.719 -202.586L242.417 1237.21" stroke="black" stroke-width="4"/>
<path d="M1113.13 -72.9531L726.827 1366.84" stroke="black" stroke-width="4"/>
<path d="M155.84 -329.125L-230.462 1110.67" stroke="black" stroke-width="4"/>
<path d="M640.25 -199.508L253.948 1240.28" stroke="black" stroke-width="4"/>
<path d="M1124.66 -69.875L738.358 1369.92" stroke="black" stroke-width="4"/>
<path d="M167.375 -326.039L-218.927 1113.75" stroke="black" stroke-width="4"/>
<path d="M651.785 -196.414L265.483 1243.38" stroke="black" stroke-width="4"/>
<path d="M1136.2 -66.7812L749.894 1373.01" stroke="black" stroke-width="4"/>
<path d="M178.906 -322.953L-207.395 1116.84" stroke="black" stroke-width="4"/>
<path d="M663.316 -193.336L277.015 1246.46" stroke="black" stroke-width="4"/>
<path d="M1147.73 -63.7031L761.429 1376.09" stroke="black" stroke-width="4"/>
<path d="M190.441 -319.867L-195.86 1119.92" stroke="black" stroke-width="4"/>
<path d="M674.852 -190.242L288.55 1249.55" stroke="black" stroke-width="4"/>
<path d="M1159.26 -60.6172L772.96 1379.17" stroke="black" stroke-width="4"/>
<path d="M201.977 -316.781L-184.325 1123.01" stroke="black" stroke-width="4"/>
<path d="M686.387 -187.164L300.085 1252.63" stroke="black" stroke-width="4"/>
<path d="M1170.8 -57.5234L784.495 1382.27" stroke="black" stroke-width="4"/>
<path d="M213.508 -313.695L-172.794 1126.1" stroke="black" stroke-width="4"/>
<path d="M697.918 -184.07L311.616 1255.72" stroke="black" stroke-width="4"/>
<path d="M1182.33 -54.4453L796.026 1385.35" stroke="black" stroke-width="4"/>
<path d="M225.043 -310.602L-161.259 1129.19" stroke="black" stroke-width="4"/>
<path d="M709.453 -180.984L323.151 1258.81" stroke="black" stroke-width="4"/>
<path d="M1193.86 -51.3516L807.562 1388.44" stroke="black" stroke-width="4"/>
<path d="M236.574 -307.523L-149.728 1132.27" stroke="black" stroke-width="4"/>
<path d="M720.984 -177.898L334.683 1261.89" stroke="black" stroke-width="4"/>
<path d="M1205.39 -48.2734L819.093 1391.52" stroke="black" stroke-width="4"/>
<path d="M248.109 -304.43L-138.192 1135.36" stroke="black" stroke-width="4"/>
<path d="M732.52 -174.812L346.218 1264.98" stroke="black" stroke-width="4"/>
<path d="M1216.93 -45.1797L830.628 1394.61" stroke="black" stroke-width="4"/>
<path d="M259.645 -301.352L-126.657 1138.44" stroke="black" stroke-width="4"/>
<path d="M744.055 -171.727L357.753 1268.06" stroke="black" stroke-width="4"/>
<path d="M1228.46 -42.0938L842.163 1397.7" stroke="black" stroke-width="4"/>
<path d="M271.176 -298.258L-115.126 1141.53" stroke="black" stroke-width="4"/>
<path d="M755.586 -168.641L369.284 1271.15" stroke="black" stroke-width="4"/>
<path d="M1240 -39.0078L853.694 1400.78" stroke="black" stroke-width="4"/>
<path d="M282.711 -295.18L-103.591 1144.61" stroke="black" stroke-width="4"/>
<path d="M767.121 -165.547L380.819 1274.24" stroke="black" stroke-width="4"/>
<path d="M1251.53 -35.9219L865.23 1403.87" stroke="black" stroke-width="4"/>
<path d="M294.242 -292.086L-92.0596 1147.71" stroke="black" stroke-width="4"/>
<path d="M778.652 -162.469L392.351 1277.32" stroke="black" stroke-width="4"/>
<path d="M1263.06 -32.8359L876.761 1406.96" stroke="black" stroke-width="4"/>
<path d="M305.777 -289L-80.5244 1150.79" stroke="black" stroke-width="4"/>
<path d="M790.188 -159.375L403.886 1280.42" stroke="black" stroke-width="4"/>
<path d="M1274.6 -29.75L888.296 1410.04" stroke="black" stroke-width="4"/>
<path d="M317.309 -285.914L-68.9931 1153.88" stroke="black" stroke-width="4"/>
<path d="M801.723 -156.297L415.421 1283.49" stroke="black" stroke-width="4"/>
<path d="M1286.13 -26.6641L899.831 1413.13" stroke="black" stroke-width="4"/>
<path d="M328.844 -282.828L-57.458 1156.96" stroke="black" stroke-width="4"/>
<path d="M813.254 -153.203L426.952 1286.59" stroke="black" stroke-width="4"/>
<path d="M1297.66 -23.5781L911.362 1416.21" stroke="black" stroke-width="4"/>
<path d="M340.379 -279.742L-45.9228 1160.05" stroke="black" stroke-width="4"/>
<path d="M824.789 -150.125L438.487 1289.67" stroke="black" stroke-width="4"/>
<path d="M1309.2 -20.4922L922.897 1419.3" stroke="black" stroke-width="4"/>
<path d="M351.91 -276.656L-34.3916 1163.13" stroke="black" stroke-width="4"/>
<path d="M836.32 -147.031L450.019 1292.76" stroke="black" stroke-width="4"/>
<path d="M1320.73 -17.4062L934.429 1422.38" stroke="black" stroke-width="4"/>
<path d="M363.445 -273.562L-22.8564 1166.23" stroke="black" stroke-width="4"/>
<path d="M847.855 -143.945L461.554 1295.85" stroke="black" stroke-width="4"/>
<path d="M1332.27 -14.3125L945.964 1425.48" stroke="black" stroke-width="4"/>
<path d="M374.977 -270.484L-11.3252 1169.31" stroke="black" stroke-width="4"/>
<path d="M859.387 -140.859L473.085 1298.93" stroke="black" stroke-width="4"/>
<path d="M1343.8 -11.2344L957.499 1428.56" stroke="black" stroke-width="4"/>
<path d="M386.512 -267.391L0.20998 1172.4" stroke="black" stroke-width="4"/>
<path d="M870.922 -137.773L484.62 1302.02" stroke="black" stroke-width="4"/>
<path d="M1355.33 -8.14062L969.03 1431.65" stroke="black" stroke-width="4"/>
<path d="M398.047 -264.312L11.7451 1175.48" stroke="black" stroke-width="4"/>
<path d="M882.457 -134.688L496.155 1305.1" stroke="black" stroke-width="4"/>
<path d="M1366.87 -5.0625L980.565 1434.73" stroke="black" stroke-width="4"/>
<path d="M409.578 -261.219L23.2764 1178.57" stroke="black" stroke-width="4"/>
<path d="M893.988 -131.602L507.687 1308.19" stroke="black" stroke-width="4"/>
<path d="M1378.4 -1.96875L992.097 1437.82" stroke="black" stroke-width="4"/>
<path d="M421.113 -258.141L34.8115 1181.65" stroke="black" stroke-width="4"/>
<path d="M905.523 -128.516L519.222 1311.28" stroke="black" stroke-width="4"/>
<path d="M432.645 -255.047L46.3428 1184.74" stroke="black" stroke-width="4"/>
<path d="M917.055 -125.43L530.753 1314.36" stroke="black" stroke-width="4"/>
<path d="M444.18 -251.969L57.8779 1187.82" stroke="black" stroke-width="4"/>
<path d="M928.59 -122.336L542.288 1317.46" stroke="black" stroke-width="4"/>
</g>
</svg>
