<svg width="778" height="959" viewBox="0 0 778 959" fill="none" xmlns="http://www.w3.org/2000/svg">
<path d="M592.446 75.7276C561.094 52.244 523.992 32.9474 482.067 19.8402L466.113 15.2891C433.834 6.73311 398.958 2 361.485 2C260.938 2 164.101 42.2316 95.6479 112.318C31.4612 178.218 -1.74517 265.781 2.33607 358.805C6.97384 463.662 60.4009 536.662 103.625 595.28C123.289 622.04 140.356 644.977 149.261 666.823C178.571 737.273 154.084 840.492 135.904 916.04C132.565 930.786 129.04 944.621 126.443 957H495.98L495.424 811.365C498.206 771.68 523.065 748.56 563.506 748.014H683.717C698.187 746.922 704.494 732.358 704.309 719.069V677.017C703.938 660.633 704.865 646.252 720.263 634.419C728.054 628.411 728.982 625.863 721.561 616.397L714.697 606.02L725.642 599.831C732.877 596.008 733.619 594.369 731.95 586.724C731.393 584.903 725.828 570.704 722.489 562.33C721.005 558.325 719.52 554.684 718.593 552.317C715.254 543.761 718.407 536.297 727.126 532.11C728.054 531.564 730.466 530.472 733.619 529.016L734.863 528.454C744.379 524.161 760.613 516.836 766.826 513.178C775.916 507.899 777.956 502.073 774.246 492.061C773.133 489.33 754.767 460.385 738.628 435.081C722.489 409.959 705.978 383.927 699.856 373.551C692.25 360.99 691.323 346.79 696.703 331.681C707.833 300.551 709.503 266.873 701.526 232.103C689.468 179.128 654.221 124.333 600.423 81.553L592.446 75.7276Z" fill="white" stroke="black" stroke-width="4"/>
</svg>
