<svg width="1000" height="1000" viewBox="0 0 1000 1000" fill="none" xmlns="http://www.w3.org/2000/svg">
<mask id="mask0_311_3" style="mask-type:alpha" maskUnits="userSpaceOnUse" x="0" y="0" width="1000" height="1000">
<rect x="2" y="2" width="996" height="996" fill="white" stroke="black" stroke-width="4"/>
</mask>
<g mask="url(#mask0_311_3)">
<path d="M455.713 -250.203L69.4111 1191.49" stroke="black" stroke-width="4"/>
<path d="M940.123 -120.406L553.821 1321.29" stroke="black" stroke-width="4"/>
<path d="M467.246 -247.109L80.9443 1194.59" stroke="black" stroke-width="4"/>
<path d="M951.656 -117.312L565.354 1324.39" stroke="black" stroke-width="4"/>
<path d="M478.779 -244.023L92.4775 1197.67" stroke="black" stroke-width="4"/>
<path d="M963.189 -114.227L576.888 1327.47" stroke="black" stroke-width="4"/>
<path d="M5.90234 -370.727L-380.399 1070.97" stroke="black" stroke-width="4"/>
<path d="M490.312 -240.93L104.011 1200.77" stroke="black" stroke-width="4"/>
<path d="M974.725 -111.133L588.423 1330.57" stroke="black" stroke-width="4"/>
<path d="M17.4355 -367.641L-368.866 1074.06" stroke="black" stroke-width="4"/>
<path d="M501.848 -237.844L115.546 1203.85" stroke="black" stroke-width="4"/>
<path d="M986.258 -108.047L599.956 1333.65" stroke="black" stroke-width="4"/>
<path d="M28.9707 -364.547L-357.331 1077.15" stroke="black" stroke-width="4"/>
<path d="M513.381 -234.75L127.079 1206.95" stroke="black" stroke-width="4"/>
<path d="M997.791 -104.953L611.489 1336.74" stroke="black" stroke-width="4"/>
<path d="M40.5039 -361.461L-345.798 1080.24" stroke="black" stroke-width="4"/>
<path d="M524.914 -231.656L138.612 1210.04" stroke="black" stroke-width="4"/>
<path d="M1009.32 -101.859L623.022 1339.84" stroke="black" stroke-width="4"/>
<path d="M52.0371 -358.367L-334.265 1083.33" stroke="black" stroke-width="4"/>
<path d="M536.447 -228.57L150.145 1213.13" stroke="black" stroke-width="4"/>
<path d="M1020.86 -98.7734L634.556 1342.92" stroke="black" stroke-width="4"/>
<path d="M63.5703 -355.273L-322.731 1086.42" stroke="black" stroke-width="4"/>
<path d="M547.98 -225.477L161.679 1216.22" stroke="black" stroke-width="4"/>
<path d="M1032.39 -95.6797L646.089 1346.02" stroke="black" stroke-width="4"/>
<path d="M75.1035 -352.188L-311.198 1089.51" stroke="black" stroke-width="4"/>
<path d="M559.516 -222.391L173.214 1219.31" stroke="black" stroke-width="4"/>
<path d="M1043.93 -92.5938L657.624 1349.1" stroke="black" stroke-width="4"/>
<path d="M86.6387 -349.094L-299.663 1092.6" stroke="black" stroke-width="4"/>
<path d="M571.049 -219.297L184.747 1222.4" stroke="black" stroke-width="4"/>
<path d="M1055.46 -89.5L669.157 1352.2" stroke="black" stroke-width="4"/>
<path d="M98.1719 -346.008L-288.13 1095.69" stroke="black" stroke-width="4"/>
<path d="M582.582 -216.211L196.28 1225.49" stroke="black" stroke-width="4"/>
<path d="M1066.99 -86.4141L680.69 1355.28" stroke="black" stroke-width="4"/>
<path d="M109.705 -342.914L-276.597 1098.78" stroke="black" stroke-width="4"/>
<path d="M594.115 -213.117L207.813 1228.58" stroke="black" stroke-width="4"/>
<path d="M1078.53 -83.3203L692.226 1358.38" stroke="black" stroke-width="4"/>
<path d="M121.238 -339.828L-265.063 1101.87" stroke="black" stroke-width="4"/>
<path d="M605.648 -210.023L219.347 1231.67" stroke="black" stroke-width="4"/>
<path d="M1090.06 -80.2266L703.757 1361.47" stroke="black" stroke-width="4"/>
<path d="M132.773 -336.734L-253.528 1104.96" stroke="black" stroke-width="4"/>
<path d="M617.182 -206.938L230.88 1234.76" stroke="black" stroke-width="4"/>
<path d="M1101.59 -77.1406L715.292 1364.56" stroke="black" stroke-width="4"/>
<path d="M144.305 -333.641L-241.997 1108.06" stroke="black" stroke-width="4"/>
<path d="M628.717 -203.844L242.415 1237.85" stroke="black" stroke-width="4"/>
<path d="M1113.13 -74.0469L726.825 1367.65" stroke="black" stroke-width="4"/>
<path d="M155.84 -330.555L-230.462 1111.14" stroke="black" stroke-width="4"/>
<path d="M640.25 -200.758L253.948 1240.94" stroke="black" stroke-width="4"/>
<path d="M1124.66 -70.9609L738.358 1370.74" stroke="black" stroke-width="4"/>
<path d="M167.373 -327.461L-218.929 1114.24" stroke="black" stroke-width="4"/>
<path d="M651.783 -197.664L265.481 1244.03" stroke="black" stroke-width="4"/>
<path d="M1136.19 -67.8672L749.892 1373.83" stroke="black" stroke-width="4"/>
<path d="M178.906 -324.375L-207.396 1117.32" stroke="black" stroke-width="4"/>
<path d="M663.316 -194.578L277.015 1247.12" stroke="black" stroke-width="4"/>
<path d="M1147.73 -64.7812L761.427 1376.92" stroke="black" stroke-width="4"/>
<path d="M190.439 -321.281L-195.862 1120.42" stroke="black" stroke-width="4"/>
<path d="M674.852 -191.484L288.55 1250.21" stroke="black" stroke-width="4"/>
<path d="M1159.26 -61.6875L772.96 1380.01" stroke="black" stroke-width="4"/>
<path d="M201.975 -318.195L-184.327 1123.5" stroke="black" stroke-width="4"/>
<path d="M686.385 -188.398L300.083 1253.3" stroke="black" stroke-width="4"/>
<path d="M1170.79 -58.5938L784.493 1383.1" stroke="black" stroke-width="4"/>
<path d="M213.508 -315.102L-172.794 1126.6" stroke="black" stroke-width="4"/>
<path d="M697.918 -185.305L311.616 1256.39" stroke="black" stroke-width="4"/>
<path d="M1182.33 -55.5078L796.026 1386.19" stroke="black" stroke-width="4"/>
<path d="M225.041 -312.008L-161.261 1129.69" stroke="black" stroke-width="4"/>
<path d="M709.451 -182.211L323.149 1259.49" stroke="black" stroke-width="4"/>
<path d="M1193.86 -52.4141L807.56 1389.28" stroke="black" stroke-width="4"/>
<path d="M236.574 -308.922L-149.728 1132.78" stroke="black" stroke-width="4"/>
<path d="M720.984 -179.125L334.683 1262.57" stroke="black" stroke-width="4"/>
<path d="M1205.39 -49.3281L819.093 1392.37" stroke="black" stroke-width="4"/>
<path d="M248.107 -305.828L-138.194 1135.87" stroke="black" stroke-width="4"/>
<path d="M732.518 -176.031L346.216 1265.67" stroke="black" stroke-width="4"/>
<path d="M1216.93 -46.2344L830.628 1395.46" stroke="black" stroke-width="4"/>
<path d="M259.643 -302.742L-126.659 1138.96" stroke="black" stroke-width="4"/>
<path d="M744.053 -172.945L357.751 1268.75" stroke="black" stroke-width="4"/>
<path d="M1228.46 -43.1406L842.161 1398.56" stroke="black" stroke-width="4"/>
<path d="M271.176 -299.648L-115.126 1142.05" stroke="black" stroke-width="4"/>
<path d="M755.586 -169.852L369.284 1271.85" stroke="black" stroke-width="4"/>
<path d="M1240 -40.0547L853.694 1401.64" stroke="black" stroke-width="4"/>
<path d="M282.709 -296.562L-103.593 1145.14" stroke="black" stroke-width="4"/>
<path d="M767.119 -166.758L380.817 1274.94" stroke="black" stroke-width="4"/>
<path d="M1251.53 -36.9609L865.228 1404.74" stroke="black" stroke-width="4"/>
<path d="M294.242 -293.469L-92.0596 1148.23" stroke="black" stroke-width="4"/>
<path d="M778.652 -163.672L392.351 1278.03" stroke="black" stroke-width="4"/>
<path d="M1263.06 -33.875L876.761 1407.82" stroke="black" stroke-width="4"/>
<path d="M305.775 -290.375L-80.5264 1151.32" stroke="black" stroke-width="4"/>
<path d="M790.186 -160.578L403.884 1281.12" stroke="black" stroke-width="4"/>
<path d="M1274.6 -30.7812L888.296 1410.92" stroke="black" stroke-width="4"/>
<path d="M317.309 -287.289L-68.9932 1154.41" stroke="black" stroke-width="4"/>
<path d="M801.721 -157.492L415.419 1284.21" stroke="black" stroke-width="4"/>
<path d="M1286.13 -27.6953L899.829 1414" stroke="black" stroke-width="4"/>
<path d="M328.844 -284.195L-57.458 1157.5" stroke="black" stroke-width="4"/>
<path d="M813.254 -154.398L426.952 1287.3" stroke="black" stroke-width="4"/>
<path d="M1297.66 -24.6016L911.362 1417.1" stroke="black" stroke-width="4"/>
<path d="M340.377 -281.109L-45.9248 1160.59" stroke="black" stroke-width="4"/>
<path d="M824.787 -151.312L438.485 1290.39" stroke="black" stroke-width="4"/>
<path d="M1309.2 -21.5156L922.895 1420.18" stroke="black" stroke-width="4"/>
<path d="M351.91 -278.016L-34.3916 1163.68" stroke="black" stroke-width="4"/>
<path d="M836.32 -148.219L450.019 1293.48" stroke="black" stroke-width="4"/>
<path d="M1320.73 -18.4219L934.429 1423.28" stroke="black" stroke-width="4"/>
<path d="M363.443 -274.922L-22.8584 1166.78" stroke="black" stroke-width="4"/>
<path d="M847.855 -145.125L461.554 1296.57" stroke="black" stroke-width="4"/>
<path d="M1332.26 -15.3281L945.962 1426.37" stroke="black" stroke-width="4"/>
<path d="M374.977 -271.836L-11.3252 1169.86" stroke="black" stroke-width="4"/>
<path d="M859.387 -142.039L473.085 1299.66" stroke="black" stroke-width="4"/>
<path d="M1343.8 -12.2422L957.497 1429.46" stroke="black" stroke-width="4"/>
<path d="M386.512 -268.742L0.209947 1172.96" stroke="black" stroke-width="4"/>
<path d="M870.922 -138.945L484.62 1302.75" stroke="black" stroke-width="4"/>
<path d="M1355.33 -9.14844L969.03 1432.55" stroke="black" stroke-width="4"/>
<path d="M398.045 -265.656L11.7432 1176.04" stroke="black" stroke-width="4"/>
<path d="M882.455 -135.859L496.153 1305.84" stroke="black" stroke-width="4"/>
<path d="M1366.87 -6.0625L980.563 1435.64" stroke="black" stroke-width="4"/>
<path d="M409.578 -262.562L23.2764 1179.14" stroke="black" stroke-width="4"/>
<path d="M893.988 -132.766L507.687 1308.93" stroke="black" stroke-width="4"/>
<path d="M1378.4 -2.96875L992.097 1438.73" stroke="black" stroke-width="4"/>
<path d="M421.111 -259.477L34.8096 1182.22" stroke="black" stroke-width="4"/>
<path d="M905.523 -129.68L519.222 1312.02" stroke="black" stroke-width="4"/>
<path d="M432.645 -256.383L46.3428 1185.32" stroke="black" stroke-width="4"/>
<path d="M917.055 -126.586L530.753 1315.11" stroke="black" stroke-width="4"/>
<path d="M444.18 -253.297L57.8779 1188.4" stroke="black" stroke-width="4"/>
<path d="M928.59 -123.492L542.288 1318.21" stroke="black" stroke-width="4"/>
</g>
<path d="M702.446 112.728C671.094 89.244 633.992 69.9474 592.067 56.8402L576.113 52.2891C543.834 43.7331 508.958 39 471.485 39C370.938 39 274.101 79.2316 205.648 149.318C141.461 215.218 108.255 302.781 112.336 395.805C116.974 500.662 170.401 573.662 213.625 632.28C233.289 659.04 250.356 681.977 259.261 703.823C288.571 774.273 264.084 877.492 245.904 953.04C242.565 967.786 239.04 981.621 236.443 994H605.98L605.424 848.365C608.206 808.68 633.065 785.56 673.506 785.014H793.717C808.187 783.922 814.494 769.358 814.309 756.069V714.017C813.938 697.633 814.865 683.252 830.263 671.419C838.054 665.411 838.982 662.863 831.561 653.397L824.697 643.02L835.642 636.831C842.877 633.008 843.619 631.369 841.95 623.724C841.393 621.903 835.828 607.704 832.489 599.33C831.005 595.325 829.52 591.684 828.593 589.317C825.254 580.761 828.407 573.297 837.126 569.11C838.054 568.564 840.466 567.472 843.619 566.016L844.868 565.452C854.383 561.159 870.614 553.836 876.826 550.178C885.916 544.899 887.956 539.073 884.246 529.061C883.133 526.33 864.767 497.385 848.628 472.081C832.489 446.959 815.978 420.927 809.856 410.551C802.25 397.99 801.323 383.79 806.703 368.681C817.833 337.551 819.503 303.873 811.526 269.103C799.468 216.128 764.221 161.333 710.423 118.553L702.446 112.728Z" fill="white" stroke="black" stroke-width="4"/>
<circle cx="700" cy="401" r="40" fill="black"/>
</svg>
