<svg width="778" height="965" viewBox="0 0 778 965" fill="none" xmlns="http://www.w3.org/2000/svg">
<path d="M592.446 76.1908C561.094 52.5597 523.992 33.1418 482.067 19.9523L466.113 15.3726C433.834 6.76284 398.958 2 361.485 2C260.938 2 164.101 42.4844 95.6479 113.011C31.4612 179.325 -1.74517 267.438 2.33607 361.047C6.97384 466.563 60.4009 540.021 103.625 599.007C123.289 625.935 140.356 649.017 149.261 671C178.571 741.893 154.084 845.76 135.904 921.783C132.565 936.621 129.04 950.543 126.443 963H495.98L495.424 816.45C498.206 776.515 523.065 753.251 563.506 752.701H683.717C698.187 751.602 704.494 736.947 704.309 723.574V681.258C703.938 664.771 704.865 650.299 720.263 638.392C728.054 632.347 728.982 629.782 721.561 620.257L714.697 609.815L725.642 603.587C732.877 599.74 733.619 598.091 731.95 590.397C731.393 588.565 725.828 574.277 722.489 565.85C721.005 561.82 719.52 558.156 718.593 555.775C715.254 547.165 718.407 539.654 727.126 535.441C728.054 534.891 730.466 533.792 733.619 532.327L734.866 531.761C744.381 527.44 760.613 520.07 766.826 516.39C775.916 511.077 777.956 505.215 774.246 495.14C773.133 492.392 754.767 463.265 738.628 437.802C722.489 412.522 705.978 386.327 699.856 375.885C692.25 363.245 691.323 348.957 696.703 333.752C707.833 302.427 709.503 268.537 701.526 233.549C689.468 180.241 654.221 125.102 600.423 82.0528L592.446 76.1908Z" fill="white" stroke="black" stroke-width="4"/>
<circle cx="590" cy="364" r="40" fill="black"/>
</svg>
