<svg width="723" height="441" viewBox="0 0 723 441" fill="none" xmlns="http://www.w3.org/2000/svg">
<path d="M720 11V111.03L680 147.686L720 184.343L680 221L720 257.657L680 294.313L720 330.97V431" stroke="black" stroke-width="4"/>
<path d="M260 400.469L720 400.469" stroke="black" stroke-width="4"/>
<path d="M240 420.453L240 380.505" stroke="black" stroke-width="4"/>
<path d="M260 440.43L260 360.534" stroke="black" stroke-width="4"/>
<path d="M160 400.477L240 400.477" stroke="black" stroke-width="4"/>
<path d="M0 400L124 400" stroke="black" stroke-width="4"/>
<path d="M124 400.477L153.445 383.499" stroke="black" stroke-width="4"/>
<circle cx="620" cy="400.445" r="18" transform="rotate(-90 620 400.445)" fill="black" stroke="black" stroke-width="4"/>
<circle cx="320" cy="400.445" r="18" transform="rotate(-90 320 400.445)" fill="black" stroke="black" stroke-width="4"/>
<path d="M260 220.695L680 220.695" stroke="black" stroke-width="4"/>
<path d="M240 240.672L240 200.724" stroke="black" stroke-width="4"/>
<path d="M260 258.648L260 178.752" stroke="black" stroke-width="4"/>
<path d="M0 219.695L240 219.695" stroke="black" stroke-width="4"/>
<circle cx="320" cy="220.672" r="18" transform="rotate(-90 320 220.672)" fill="black" stroke="black" stroke-width="4"/>
<circle cx="620" cy="219.672" r="18" transform="rotate(-90 620 219.672)" fill="black" stroke="black" stroke-width="4"/>
<path d="M240 60.9844L240 20.9844" stroke="black" stroke-width="4"/>
<path d="M260 40.9766L720 40.9766" stroke="black" stroke-width="4"/>
<path d="M260 80.9844L260 0.984373" stroke="black" stroke-width="4"/>
<path d="M160 40.9766L240 40.9766" stroke="black" stroke-width="4"/>
<path d="M0 41L124 41" stroke="black" stroke-width="4"/>
<path d="M124 40.9766L153.445 23.9766" stroke="black" stroke-width="4"/>
<circle cx="620" cy="40.9062" r="18" transform="rotate(-90 620 40.9062)" fill="black" stroke="black" stroke-width="4"/>
<circle cx="320" cy="40.9062" r="18" transform="rotate(-90 320 40.9062)" fill="black" stroke="black" stroke-width="4"/>
</svg>
