<svg width="799" height="762" viewBox="0 0 799 762" fill="none" xmlns="http://www.w3.org/2000/svg">
<mask id="mask0_54_436777" style="mask-type:alpha" maskUnits="userSpaceOnUse" x="0" y="0" width="799" height="762">
<rect x="2" y="2" width="795" height="758" fill="white" stroke="black" stroke-width="4"/>
</mask>
<g mask="url(#mask0_54_436777)">
<path d="M455.713 -250.203L69.4111 1191.49" stroke="black" stroke-width="4"/>
<path d="M940.123 -120.406L553.821 1321.29" stroke="black" stroke-width="4"/>
<path d="M467.246 -247.109L80.9443 1194.59" stroke="black" stroke-width="4"/>
<path d="M951.656 -117.312L565.354 1324.39" stroke="black" stroke-width="4"/>
<path d="M478.779 -244.023L92.4775 1197.67" stroke="black" stroke-width="4"/>
<path d="M963.189 -114.227L576.888 1327.47" stroke="black" stroke-width="4"/>
<path d="M5.90234 -370.727L-380.399 1070.97" stroke="black" stroke-width="4"/>
<path d="M490.312 -240.93L104.011 1200.77" stroke="black" stroke-width="4"/>
<path d="M974.725 -111.133L588.423 1330.57" stroke="black" stroke-width="4"/>
<path d="M17.4355 -367.641L-368.866 1074.06" stroke="black" stroke-width="4"/>
<path d="M501.848 -237.844L115.546 1203.85" stroke="black" stroke-width="4"/>
<path d="M986.258 -108.047L599.956 1333.65" stroke="black" stroke-width="4"/>
<path d="M28.9707 -364.547L-357.331 1077.15" stroke="black" stroke-width="4"/>
<path d="M513.381 -234.75L127.079 1206.95" stroke="black" stroke-width="4"/>
<path d="M997.791 -104.953L611.489 1336.74" stroke="black" stroke-width="4"/>
<path d="M40.5039 -361.461L-345.798 1080.24" stroke="black" stroke-width="4"/>
<path d="M524.914 -231.656L138.612 1210.04" stroke="black" stroke-width="4"/>
<path d="M1009.32 -101.859L623.022 1339.84" stroke="black" stroke-width="4"/>
<path d="M52.0371 -358.367L-334.265 1083.33" stroke="black" stroke-width="4"/>
<path d="M536.447 -228.57L150.145 1213.13" stroke="black" stroke-width="4"/>
<path d="M1020.86 -98.7734L634.556 1342.92" stroke="black" stroke-width="4"/>
<path d="M63.5703 -355.273L-322.731 1086.42" stroke="black" stroke-width="4"/>
<path d="M547.98 -225.477L161.679 1216.22" stroke="black" stroke-width="4"/>
<path d="M1032.39 -95.6797L646.089 1346.02" stroke="black" stroke-width="4"/>
<path d="M75.1035 -352.188L-311.198 1089.51" stroke="black" stroke-width="4"/>
<path d="M559.516 -222.391L173.214 1219.31" stroke="black" stroke-width="4"/>
<path d="M1043.93 -92.5938L657.624 1349.1" stroke="black" stroke-width="4"/>
<path d="M86.6387 -349.094L-299.663 1092.6" stroke="black" stroke-width="4"/>
<path d="M571.049 -219.297L184.747 1222.4" stroke="black" stroke-width="4"/>
<path d="M1055.46 -89.5L669.157 1352.2" stroke="black" stroke-width="4"/>
<path d="M98.1719 -346.008L-288.13 1095.69" stroke="black" stroke-width="4"/>
<path d="M582.582 -216.211L196.28 1225.49" stroke="black" stroke-width="4"/>
<path d="M1066.99 -86.4141L680.69 1355.28" stroke="black" stroke-width="4"/>
<path d="M109.705 -342.914L-276.597 1098.78" stroke="black" stroke-width="4"/>
<path d="M594.115 -213.117L207.813 1228.58" stroke="black" stroke-width="4"/>
<path d="M1078.53 -83.3203L692.226 1358.38" stroke="black" stroke-width="4"/>
<path d="M121.238 -339.828L-265.063 1101.87" stroke="black" stroke-width="4"/>
<path d="M605.648 -210.023L219.347 1231.67" stroke="black" stroke-width="4"/>
<path d="M1090.06 -80.2266L703.757 1361.47" stroke="black" stroke-width="4"/>
<path d="M132.773 -336.734L-253.528 1104.96" stroke="black" stroke-width="4"/>
<path d="M617.182 -206.938L230.88 1234.76" stroke="black" stroke-width="4"/>
<path d="M1101.59 -77.1406L715.292 1364.56" stroke="black" stroke-width="4"/>
<path d="M144.305 -333.641L-241.997 1108.06" stroke="black" stroke-width="4"/>
<path d="M628.717 -203.844L242.415 1237.85" stroke="black" stroke-width="4"/>
<path d="M1113.13 -74.0469L726.825 1367.65" stroke="black" stroke-width="4"/>
<path d="M155.84 -330.555L-230.462 1111.14" stroke="black" stroke-width="4"/>
<path d="M640.25 -200.758L253.948 1240.94" stroke="black" stroke-width="4"/>
<path d="M1124.66 -70.9609L738.358 1370.74" stroke="black" stroke-width="4"/>
<path d="M167.373 -327.461L-218.929 1114.24" stroke="black" stroke-width="4"/>
<path d="M651.783 -197.664L265.481 1244.03" stroke="black" stroke-width="4"/>
<path d="M1136.19 -67.8672L749.892 1373.83" stroke="black" stroke-width="4"/>
<path d="M178.906 -324.375L-207.396 1117.32" stroke="black" stroke-width="4"/>
<path d="M663.316 -194.578L277.015 1247.12" stroke="black" stroke-width="4"/>
<path d="M1147.73 -64.7812L761.427 1376.92" stroke="black" stroke-width="4"/>
<path d="M190.439 -321.281L-195.862 1120.42" stroke="black" stroke-width="4"/>
<path d="M674.852 -191.484L288.55 1250.21" stroke="black" stroke-width="4"/>
<path d="M1159.26 -61.6875L772.96 1380.01" stroke="black" stroke-width="4"/>
<path d="M201.975 -318.195L-184.327 1123.5" stroke="black" stroke-width="4"/>
<path d="M686.385 -188.398L300.083 1253.3" stroke="black" stroke-width="4"/>
<path d="M1170.79 -58.5938L784.493 1383.1" stroke="black" stroke-width="4"/>
<path d="M213.508 -315.102L-172.794 1126.6" stroke="black" stroke-width="4"/>
<path d="M697.918 -185.305L311.616 1256.39" stroke="black" stroke-width="4"/>
<path d="M1182.33 -55.5078L796.026 1386.19" stroke="black" stroke-width="4"/>
<path d="M225.041 -312.008L-161.261 1129.69" stroke="black" stroke-width="4"/>
<path d="M709.451 -182.211L323.149 1259.49" stroke="black" stroke-width="4"/>
<path d="M236.574 -308.922L-149.728 1132.78" stroke="black" stroke-width="4"/>
<path d="M720.984 -179.125L334.683 1262.57" stroke="black" stroke-width="4"/>
<path d="M248.107 -305.828L-138.194 1135.87" stroke="black" stroke-width="4"/>
<path d="M732.518 -176.031L346.216 1265.67" stroke="black" stroke-width="4"/>
<path d="M259.643 -302.742L-126.659 1138.96" stroke="black" stroke-width="4"/>
<path d="M744.053 -172.945L357.751 1268.75" stroke="black" stroke-width="4"/>
<path d="M271.176 -299.648L-115.126 1142.05" stroke="black" stroke-width="4"/>
<path d="M755.586 -169.852L369.284 1271.85" stroke="black" stroke-width="4"/>
<path d="M282.709 -296.562L-103.593 1145.14" stroke="black" stroke-width="4"/>
<path d="M767.119 -166.758L380.817 1274.94" stroke="black" stroke-width="4"/>
<path d="M294.242 -293.469L-92.0596 1148.23" stroke="black" stroke-width="4"/>
<path d="M778.652 -163.672L392.351 1278.03" stroke="black" stroke-width="4"/>
<path d="M305.775 -290.375L-80.5264 1151.32" stroke="black" stroke-width="4"/>
<path d="M790.186 -160.578L403.884 1281.12" stroke="black" stroke-width="4"/>
<path d="M317.309 -287.289L-68.9932 1154.41" stroke="black" stroke-width="4"/>
<path d="M801.721 -157.492L415.419 1284.21" stroke="black" stroke-width="4"/>
<path d="M328.844 -284.195L-57.458 1157.5" stroke="black" stroke-width="4"/>
<path d="M813.254 -154.398L426.952 1287.3" stroke="black" stroke-width="4"/>
<path d="M340.377 -281.109L-45.9248 1160.59" stroke="black" stroke-width="4"/>
<path d="M824.787 -151.312L438.485 1290.39" stroke="black" stroke-width="4"/>
<path d="M351.91 -278.016L-34.3916 1163.68" stroke="black" stroke-width="4"/>
<path d="M836.32 -148.219L450.019 1293.48" stroke="black" stroke-width="4"/>
<path d="M363.443 -274.922L-22.8584 1166.78" stroke="black" stroke-width="4"/>
<path d="M847.855 -145.125L461.554 1296.57" stroke="black" stroke-width="4"/>
<path d="M374.977 -271.836L-11.3252 1169.86" stroke="black" stroke-width="4"/>
<path d="M859.387 -142.039L473.085 1299.66" stroke="black" stroke-width="4"/>
<path d="M386.512 -268.742L0.209947 1172.96" stroke="black" stroke-width="4"/>
<path d="M870.922 -138.945L484.62 1302.75" stroke="black" stroke-width="4"/>
<path d="M398.045 -265.656L11.7432 1176.04" stroke="black" stroke-width="4"/>
<path d="M882.455 -135.859L496.153 1305.84" stroke="black" stroke-width="4"/>
<path d="M409.578 -262.562L23.2764 1179.14" stroke="black" stroke-width="4"/>
<path d="M893.988 -132.766L507.687 1308.93" stroke="black" stroke-width="4"/>
<path d="M421.111 -259.477L34.8096 1182.22" stroke="black" stroke-width="4"/>
<path d="M905.523 -129.68L519.222 1312.02" stroke="black" stroke-width="4"/>
<path d="M432.645 -256.383L46.3428 1185.32" stroke="black" stroke-width="4"/>
<path d="M917.055 -126.586L530.753 1315.11" stroke="black" stroke-width="4"/>
<path d="M444.18 -253.297L57.8779 1188.4" stroke="black" stroke-width="4"/>
<path d="M928.59 -123.492L542.288 1318.21" stroke="black" stroke-width="4"/>
</g>
</svg>
