<svg width="1000" height="762" viewBox="0 0 1000 762" fill="none" xmlns="http://www.w3.org/2000/svg">
<mask id="mask0_54_436927" style="mask-type:alpha" maskUnits="userSpaceOnUse" x="0" y="0" width="1000" height="762">
<rect x="2" y="2.98438" width="996" height="757" fill="white" stroke="black" stroke-width="4"/>
</mask>
<g mask="url(#mask0_54_436927)">
<path d="M455.715 -248.883L69.4131 1190.92" stroke="black" stroke-width="4"/>
<path d="M940.125 -119.266L553.823 1320.54" stroke="black" stroke-width="4"/>
<path d="M467.246 -245.797L80.9443 1194.01" stroke="black" stroke-width="4"/>
<path d="M951.656 -116.172L565.354 1323.63" stroke="black" stroke-width="4"/>
<path d="M478.781 -242.711L92.4795 1197.09" stroke="black" stroke-width="4"/>
<path d="M963.191 -113.094L576.89 1326.71" stroke="black" stroke-width="4"/>
<path d="M5.90234 -369.258L-380.399 1070.55" stroke="black" stroke-width="4"/>
<path d="M490.312 -239.625L104.011 1200.18" stroke="black" stroke-width="4"/>
<path d="M974.727 -110L588.425 1329.81" stroke="black" stroke-width="4"/>
<path d="M17.4375 -366.172L-368.864 1073.63" stroke="black" stroke-width="4"/>
<path d="M501.848 -236.539L115.546 1203.27" stroke="black" stroke-width="4"/>
<path d="M986.258 -106.922L599.956 1332.88" stroke="black" stroke-width="4"/>
<path d="M28.9727 -363.086L-357.329 1076.72" stroke="black" stroke-width="4"/>
<path d="M513.383 -233.453L127.081 1206.35" stroke="black" stroke-width="4"/>
<path d="M997.793 -103.828L611.491 1335.98" stroke="black" stroke-width="4"/>
<path d="M40.5039 -360L-345.798 1079.81" stroke="black" stroke-width="4"/>
<path d="M524.914 -230.359L138.612 1209.45" stroke="black" stroke-width="4"/>
<path d="M1009.32 -100.742L623.022 1339.06" stroke="black" stroke-width="4"/>
<path d="M52.0391 -356.914L-334.263 1082.89" stroke="black" stroke-width="4"/>
<path d="M536.449 -227.281L150.147 1212.52" stroke="black" stroke-width="4"/>
<path d="M1020.86 -97.6562L634.558 1342.15" stroke="black" stroke-width="4"/>
<path d="M63.5703 -353.82L-322.731 1085.99" stroke="black" stroke-width="4"/>
<path d="M547.98 -224.188L161.679 1215.62" stroke="black" stroke-width="4"/>
<path d="M1032.39 -94.5703L646.089 1345.24" stroke="black" stroke-width="4"/>
<path d="M75.1055 -350.742L-311.196 1089.06" stroke="black" stroke-width="4"/>
<path d="M559.516 -221.109L173.214 1218.7" stroke="black" stroke-width="4"/>
<path d="M1043.93 -91.4844L657.624 1348.32" stroke="black" stroke-width="4"/>
<path d="M86.6406 -347.648L-299.661 1092.16" stroke="black" stroke-width="4"/>
<path d="M571.051 -218.023L184.749 1221.78" stroke="black" stroke-width="4"/>
<path d="M1055.46 -88.3984L669.159 1351.41" stroke="black" stroke-width="4"/>
<path d="M98.1719 -344.57L-288.13 1095.24" stroke="black" stroke-width="4"/>
<path d="M582.582 -214.938L196.28 1224.87" stroke="black" stroke-width="4"/>
<path d="M1066.99 -85.3125L680.69 1354.49" stroke="black" stroke-width="4"/>
<path d="M109.707 -341.477L-276.595 1098.33" stroke="black" stroke-width="4"/>
<path d="M594.117 -211.859L207.815 1227.95" stroke="black" stroke-width="4"/>
<path d="M1078.53 -82.2266L692.226 1357.58" stroke="black" stroke-width="4"/>
<path d="M121.238 -338.398L-265.063 1101.41" stroke="black" stroke-width="4"/>
<path d="M605.648 -208.766L219.347 1231.04" stroke="black" stroke-width="4"/>
<path d="M1090.06 -79.1328L703.757 1360.67" stroke="black" stroke-width="4"/>
<path d="M132.773 -335.305L-253.528 1104.5" stroke="black" stroke-width="4"/>
<path d="M617.184 -205.688L230.882 1234.12" stroke="black" stroke-width="4"/>
<path d="M1101.59 -76.0547L715.292 1363.75" stroke="black" stroke-width="4"/>
<path d="M144.305 -332.219L-241.997 1107.59" stroke="black" stroke-width="4"/>
<path d="M628.719 -202.594L242.417 1237.21" stroke="black" stroke-width="4"/>
<path d="M1113.13 -72.9609L726.827 1366.84" stroke="black" stroke-width="4"/>
<path d="M155.84 -329.133L-230.462 1110.67" stroke="black" stroke-width="4"/>
<path d="M640.25 -199.516L253.948 1240.29" stroke="black" stroke-width="4"/>
<path d="M1124.66 -69.8828L738.358 1369.92" stroke="black" stroke-width="4"/>
<path d="M167.375 -326.047L-218.927 1113.76" stroke="black" stroke-width="4"/>
<path d="M651.785 -196.422L265.483 1243.38" stroke="black" stroke-width="4"/>
<path d="M1136.2 -66.7891L749.894 1373.02" stroke="black" stroke-width="4"/>
<path d="M178.906 -322.961L-207.396 1116.84" stroke="black" stroke-width="4"/>
<path d="M663.316 -193.344L277.015 1246.46" stroke="black" stroke-width="4"/>
<path d="M1147.73 -63.7109L761.429 1376.09" stroke="black" stroke-width="4"/>
<path d="M190.441 -319.875L-195.86 1119.93" stroke="black" stroke-width="4"/>
<path d="M674.852 -190.25L288.55 1249.56" stroke="black" stroke-width="4"/>
<path d="M1159.26 -60.625L772.96 1379.18" stroke="black" stroke-width="4"/>
<path d="M201.977 -316.789L-184.325 1123.02" stroke="black" stroke-width="4"/>
<path d="M686.387 -187.172L300.085 1252.63" stroke="black" stroke-width="4"/>
<path d="M1170.8 -57.5312L784.495 1382.27" stroke="black" stroke-width="4"/>
<path d="M213.508 -313.703L-172.794 1126.1" stroke="black" stroke-width="4"/>
<path d="M697.918 -184.078L311.616 1255.73" stroke="black" stroke-width="4"/>
<path d="M1182.33 -54.4531L796.026 1385.35" stroke="black" stroke-width="4"/>
<path d="M225.043 -310.609L-161.259 1129.2" stroke="black" stroke-width="4"/>
<path d="M709.453 -180.992L323.151 1258.81" stroke="black" stroke-width="4"/>
<path d="M1193.86 -51.3594L807.562 1388.45" stroke="black" stroke-width="4"/>
<path d="M236.574 -307.531L-149.728 1132.27" stroke="black" stroke-width="4"/>
<path d="M720.984 -177.906L334.683 1261.9" stroke="black" stroke-width="4"/>
<path d="M1205.39 -48.2812L819.093 1391.52" stroke="black" stroke-width="4"/>
<path d="M248.109 -304.438L-138.192 1135.37" stroke="black" stroke-width="4"/>
<path d="M732.52 -174.82L346.218 1264.99" stroke="black" stroke-width="4"/>
<path d="M1216.93 -45.1875L830.628 1394.62" stroke="black" stroke-width="4"/>
<path d="M259.645 -301.359L-126.657 1138.45" stroke="black" stroke-width="4"/>
<path d="M744.055 -171.734L357.753 1268.07" stroke="black" stroke-width="4"/>
<path d="M1228.46 -42.1016L842.163 1397.7" stroke="black" stroke-width="4"/>
<path d="M271.176 -298.266L-115.126 1141.54" stroke="black" stroke-width="4"/>
<path d="M755.586 -168.648L369.284 1271.16" stroke="black" stroke-width="4"/>
<path d="M1240 -39.0156L853.694 1400.79" stroke="black" stroke-width="4"/>
<path d="M282.711 -295.188L-103.591 1144.62" stroke="black" stroke-width="4"/>
<path d="M767.121 -165.555L380.819 1274.25" stroke="black" stroke-width="4"/>
<path d="M1251.53 -35.9297L865.229 1403.88" stroke="black" stroke-width="4"/>
<path d="M294.242 -292.094L-92.0596 1147.71" stroke="black" stroke-width="4"/>
<path d="M778.652 -162.477L392.351 1277.33" stroke="black" stroke-width="4"/>
<path d="M1263.06 -32.8438L876.761 1406.96" stroke="black" stroke-width="4"/>
<path d="M305.777 -289.008L-80.5244 1150.8" stroke="black" stroke-width="4"/>
<path d="M790.188 -159.383L403.886 1280.42" stroke="black" stroke-width="4"/>
<path d="M1274.6 -29.7578L888.296 1410.05" stroke="black" stroke-width="4"/>
<path d="M317.309 -285.922L-68.9932 1153.88" stroke="black" stroke-width="4"/>
<path d="M801.723 -156.305L415.421 1283.5" stroke="black" stroke-width="4"/>
<path d="M1286.13 -26.6719L899.831 1413.13" stroke="black" stroke-width="4"/>
<path d="M328.844 -282.836L-57.458 1156.97" stroke="black" stroke-width="4"/>
<path d="M813.254 -153.211L426.952 1286.59" stroke="black" stroke-width="4"/>
<path d="M1297.66 -23.5859L911.362 1416.22" stroke="black" stroke-width="4"/>
<path d="M340.379 -279.75L-45.9229 1160.06" stroke="black" stroke-width="4"/>
<path d="M824.789 -150.133L438.487 1289.67" stroke="black" stroke-width="4"/>
<path d="M1309.2 -20.5L922.897 1419.31" stroke="black" stroke-width="4"/>
<path d="M351.91 -276.664L-34.3916 1163.14" stroke="black" stroke-width="4"/>
<path d="M836.32 -147.039L450.019 1292.77" stroke="black" stroke-width="4"/>
<path d="M1320.73 -17.4141L934.429 1422.39" stroke="black" stroke-width="4"/>
<path d="M363.445 -273.57L-22.8565 1166.24" stroke="black" stroke-width="4"/>
<path d="M847.855 -143.953L461.554 1295.85" stroke="black" stroke-width="4"/>
<path d="M1332.27 -14.3203L945.964 1425.49" stroke="black" stroke-width="4"/>
<path d="M374.977 -270.492L-11.3252 1169.31" stroke="black" stroke-width="4"/>
<path d="M859.387 -140.867L473.085 1298.94" stroke="black" stroke-width="4"/>
<path d="M1343.8 -11.2422L957.499 1428.56" stroke="black" stroke-width="4"/>
<path d="M386.512 -267.398L0.209939 1172.41" stroke="black" stroke-width="4"/>
<path d="M870.922 -137.781L484.62 1302.02" stroke="black" stroke-width="4"/>
<path d="M1355.33 -8.14844L969.03 1431.66" stroke="black" stroke-width="4"/>
<path d="M398.047 -264.32L11.7451 1175.49" stroke="black" stroke-width="4"/>
<path d="M882.457 -134.695L496.155 1305.11" stroke="black" stroke-width="4"/>
<path d="M1366.87 -5.07031L980.565 1434.74" stroke="black" stroke-width="4"/>
<path d="M409.578 -261.227L23.2763 1178.58" stroke="black" stroke-width="4"/>
<path d="M893.988 -131.609L507.687 1308.2" stroke="black" stroke-width="4"/>
<path d="M1378.4 -1.97656L992.097 1437.83" stroke="black" stroke-width="4"/>
<path d="M421.113 -258.148L34.8115 1181.66" stroke="black" stroke-width="4"/>
<path d="M905.523 -128.523L519.222 1311.28" stroke="black" stroke-width="4"/>
<path d="M432.645 -255.055L46.3428 1184.75" stroke="black" stroke-width="4"/>
<path d="M917.055 -125.438L530.753 1314.37" stroke="black" stroke-width="4"/>
<path d="M444.18 -251.977L57.8779 1187.83" stroke="black" stroke-width="4"/>
<path d="M928.59 -122.344L542.288 1317.46" stroke="black" stroke-width="4"/>
</g>
</svg>
