<svg width="1000" height="1000" viewBox="0 0 1000 1000" fill="none" xmlns="http://www.w3.org/2000/svg">
<mask id="mask0_75_88226" style="mask-type:alpha" maskUnits="userSpaceOnUse" x="0" y="0" width="1000" height="1000">
<rect x="2" y="2" width="996" height="996" fill="white" stroke="black" stroke-width="4"/>
</mask>
<g mask="url(#mask0_75_88226)">
<path d="M455.713 -250.202L69.4108 1191.5" stroke="black" stroke-width="4"/>
<path d="M940.123 -120.405L553.822 1321.29" stroke="black" stroke-width="4"/>
<path d="M467.246 -247.112L80.9446 1194.59" stroke="black" stroke-width="4"/>
<path d="M951.656 -117.315L565.354 1324.38" stroke="black" stroke-width="4"/>
<path d="M478.78 -244.021L92.4783 1197.68" stroke="black" stroke-width="4"/>
<path d="M963.19 -114.225L576.888 1327.47" stroke="black" stroke-width="4"/>
<path d="M5.90308 -370.728L-380.399 1070.97" stroke="black" stroke-width="4"/>
<path d="M490.313 -240.931L104.011 1200.77" stroke="black" stroke-width="4"/>
<path d="M974.724 -111.134L588.422 1330.56" stroke="black" stroke-width="4"/>
<path d="M17.4362 -367.638L-368.866 1074.06" stroke="black" stroke-width="4"/>
<path d="M501.847 -237.841L115.545 1203.86" stroke="black" stroke-width="4"/>
<path d="M986.258 -108.044L599.956 1333.65" stroke="black" stroke-width="4"/>
<path d="M28.97 -364.548L-357.332 1077.15" stroke="black" stroke-width="4"/>
<path d="M513.381 -234.75L127.079 1206.95" stroke="black" stroke-width="4"/>
<path d="M997.791 -104.953L611.489 1336.74" stroke="black" stroke-width="4"/>
<path d="M40.5037 -361.458L-345.798 1080.24" stroke="black" stroke-width="4"/>
<path d="M524.914 -231.66L138.612 1210.04" stroke="black" stroke-width="4"/>
<path d="M1009.32 -101.863L623.023 1339.84" stroke="black" stroke-width="4"/>
<path d="M52.0367 -358.367L-334.265 1083.33" stroke="black" stroke-width="4"/>
<path d="M536.448 -228.57L150.146 1213.13" stroke="black" stroke-width="4"/>
<path d="M1020.86 -98.772L634.557 1342.93" stroke="black" stroke-width="4"/>
<path d="M63.5706 -355.277L-322.731 1086.42" stroke="black" stroke-width="4"/>
<path d="M547.981 -225.48L161.68 1216.22" stroke="black" stroke-width="4"/>
<path d="M1032.39 -95.6821L646.09 1346.02" stroke="black" stroke-width="4"/>
<path d="M75.1042 -352.187L-311.198 1089.51" stroke="black" stroke-width="4"/>
<path d="M559.515 -222.389L173.213 1219.31" stroke="black" stroke-width="4"/>
<path d="M1043.93 -92.5913L657.623 1349.11" stroke="black" stroke-width="4"/>
<path d="M86.6381 -349.096L-299.664 1092.6" stroke="black" stroke-width="4"/>
<path d="M571.048 -219.298L184.746 1222.4" stroke="black" stroke-width="4"/>
<path d="M1055.46 -89.5012L669.157 1352.2" stroke="black" stroke-width="4"/>
<path d="M98.1711 -346.005L-288.131 1095.69" stroke="black" stroke-width="4"/>
<path d="M582.582 -216.208L196.28 1225.49" stroke="black" stroke-width="4"/>
<path d="M1066.99 -86.4104L680.691 1355.29" stroke="black" stroke-width="4"/>
<path d="M109.705 -342.915L-276.597 1098.78" stroke="black" stroke-width="4"/>
<path d="M594.116 -213.118L207.814 1228.58" stroke="black" stroke-width="4"/>
<path d="M1078.53 -83.3203L692.225 1358.38" stroke="black" stroke-width="4"/>
<path d="M121.239 -339.825L-265.063 1101.87" stroke="black" stroke-width="4"/>
<path d="M605.649 -210.027L219.347 1231.67" stroke="black" stroke-width="4"/>
<path d="M1090.06 -80.2295L703.758 1361.47" stroke="black" stroke-width="4"/>
<path d="M132.772 -336.734L-253.529 1104.96" stroke="black" stroke-width="4"/>
<path d="M617.183 -206.937L230.881 1234.76" stroke="black" stroke-width="4"/>
<path d="M1101.59 -77.1394L715.291 1364.56" stroke="black" stroke-width="4"/>
<path d="M144.306 -333.643L-241.996 1108.05" stroke="black" stroke-width="4"/>
<path d="M628.716 -203.846L242.415 1237.85" stroke="black" stroke-width="4"/>
<path d="M1113.13 -74.0488L726.825 1367.65" stroke="black" stroke-width="4"/>
<path d="M155.839 -330.553L-230.462 1111.14" stroke="black" stroke-width="4"/>
<path d="M640.25 -200.756L253.948 1240.94" stroke="black" stroke-width="4"/>
<path d="M1124.66 -70.9587L738.358 1370.74" stroke="black" stroke-width="4"/>
<path d="M167.373 -327.463L-218.929 1114.23" stroke="black" stroke-width="4"/>
<path d="M651.784 -197.666L265.482 1244.03" stroke="black" stroke-width="4"/>
<path d="M1136.19 -67.8679L749.892 1373.83" stroke="black" stroke-width="4"/>
<path d="M178.906 -324.372L-207.396 1117.33" stroke="black" stroke-width="4"/>
<path d="M663.317 -194.575L277.015 1247.12" stroke="black" stroke-width="4"/>
<path d="M1147.73 -64.7778L761.426 1376.92" stroke="black" stroke-width="4"/>
<path d="M190.44 -321.282L-195.862 1120.42" stroke="black" stroke-width="4"/>
<path d="M674.851 -191.485L288.549 1250.21" stroke="black" stroke-width="4"/>
<path d="M1159.26 -61.6877L772.96 1380.01" stroke="black" stroke-width="4"/>
<path d="M201.974 -318.192L-184.328 1123.51" stroke="black" stroke-width="4"/>
<path d="M686.384 -188.395L300.083 1253.3" stroke="black" stroke-width="4"/>
<path d="M1170.79 -58.5969L784.493 1383.1" stroke="black" stroke-width="4"/>
<path d="M213.508 -315.102L-172.794 1126.6" stroke="black" stroke-width="4"/>
<path d="M697.917 -185.304L311.616 1256.39" stroke="black" stroke-width="4"/>
<path d="M1182.33 -55.5061L796.026 1386.19" stroke="black" stroke-width="4"/>
<path d="M225.041 -312.011L-161.261 1129.69" stroke="black" stroke-width="4"/>
<path d="M709.451 -182.213L323.149 1259.48" stroke="black" stroke-width="4"/>
<path d="M1193.86 -52.416L807.56 1389.28" stroke="black" stroke-width="4"/>
<path d="M236.574 -308.921L-149.727 1132.78" stroke="black" stroke-width="4"/>
<path d="M720.985 -179.123L334.683 1262.57" stroke="black" stroke-width="4"/>
<path d="M1205.4 -49.3262L819.093 1392.37" stroke="black" stroke-width="4"/>
<path d="M248.108 -305.83L-138.194 1135.87" stroke="black" stroke-width="4"/>
<path d="M732.518 -176.033L346.216 1265.66" stroke="black" stroke-width="4"/>
<path d="M1216.93 -46.2354L830.627 1395.46" stroke="black" stroke-width="4"/>
<path d="M259.642 -302.74L-126.66 1138.96" stroke="black" stroke-width="4"/>
<path d="M744.052 -172.942L357.75 1268.76" stroke="black" stroke-width="4"/>
<path d="M1228.46 -43.1445L842.161 1398.55" stroke="black" stroke-width="4"/>
<path d="M271.175 -299.649L-115.127 1142.05" stroke="black" stroke-width="4"/>
<path d="M755.586 -169.851L369.284 1271.85" stroke="black" stroke-width="4"/>
<path d="M1240 -40.0544L853.695 1401.64" stroke="black" stroke-width="4"/>
<path d="M282.709 -296.559L-103.593 1145.14" stroke="black" stroke-width="4"/>
<path d="M767.12 -166.761L380.818 1274.94" stroke="black" stroke-width="4"/>
<path d="M1251.53 -36.9644L865.228 1404.73" stroke="black" stroke-width="4"/>
<path d="M294.243 -293.468L-92.0592 1148.23" stroke="black" stroke-width="4"/>
<path d="M778.652 -163.671L392.351 1278.03" stroke="black" stroke-width="4"/>
<path d="M1263.06 -33.8735L876.761 1407.82" stroke="black" stroke-width="4"/>
<path d="M305.776 -290.378L-80.5254 1151.32" stroke="black" stroke-width="4"/>
<path d="M790.186 -160.581L403.885 1281.12" stroke="black" stroke-width="4"/>
<path d="M1274.6 -30.7827L888.295 1410.92" stroke="black" stroke-width="4"/>
<path d="M317.309 -287.287L-68.9924 1154.41" stroke="black" stroke-width="4"/>
<path d="M801.72 -157.49L415.418 1284.21" stroke="black" stroke-width="4"/>
<path d="M1286.13 -27.6929L899.828 1414" stroke="black" stroke-width="4"/>
<path d="M328.843 -284.197L-57.4586 1157.5" stroke="black" stroke-width="4"/>
<path d="M813.254 -154.4L426.952 1287.3" stroke="black" stroke-width="4"/>
<path d="M1297.66 -24.6028L911.362 1417.1" stroke="black" stroke-width="4"/>
<path d="M340.377 -281.106L-45.9248 1160.59" stroke="black" stroke-width="4"/>
<path d="M824.787 -151.31L438.485 1290.39" stroke="black" stroke-width="4"/>
<path d="M1309.2 -21.512L922.896 1420.19" stroke="black" stroke-width="4"/>
<path d="M351.91 -278.017L-34.3919 1163.68" stroke="black" stroke-width="4"/>
<path d="M836.321 -148.219L450.019 1293.48" stroke="black" stroke-width="4"/>
<path d="M1320.73 -18.4211L934.43 1423.28" stroke="black" stroke-width="4"/>
<path d="M363.444 -274.926L-22.8579 1166.77" stroke="black" stroke-width="4"/>
<path d="M847.854 -145.129L461.553 1296.57" stroke="black" stroke-width="4"/>
<path d="M1332.26 -15.3311L945.963 1426.37" stroke="black" stroke-width="4"/>
<path d="M374.978 -271.836L-11.3242 1169.86" stroke="black" stroke-width="4"/>
<path d="M859.388 -142.038L473.086 1299.66" stroke="black" stroke-width="4"/>
<path d="M1343.8 -12.241L957.497 1429.46" stroke="black" stroke-width="4"/>
<path d="M386.511 -268.745L0.209581 1172.95" stroke="black" stroke-width="4"/>
<path d="M870.921 -138.948L484.62 1302.75" stroke="black" stroke-width="4"/>
<path d="M1355.33 -9.15039L969.03 1432.55" stroke="black" stroke-width="4"/>
<path d="M398.044 -265.655L11.7427 1176.04" stroke="black" stroke-width="4"/>
<path d="M882.455 -135.857L496.153 1305.84" stroke="black" stroke-width="4"/>
<path d="M1366.87 -6.05957L980.564 1435.64" stroke="black" stroke-width="4"/>
<path d="M409.578 -262.564L23.2764 1179.13" stroke="black" stroke-width="4"/>
<path d="M893.989 -132.767L507.687 1308.93" stroke="black" stroke-width="4"/>
<path d="M1378.4 -2.96948L992.097 1438.73" stroke="black" stroke-width="4"/>
<path d="M421.112 -259.474L34.8102 1182.22" stroke="black" stroke-width="4"/>
<path d="M905.523 -129.676L519.221 1312.02" stroke="black" stroke-width="4"/>
<path d="M432.645 -256.383L46.3432 1185.31" stroke="black" stroke-width="4"/>
<path d="M917.056 -126.586L530.754 1315.11" stroke="black" stroke-width="4"/>
<path d="M444.179 -253.293L57.8769 1188.4" stroke="black" stroke-width="4"/>
<path d="M928.589 -123.495L542.288 1318.2" stroke="black" stroke-width="4"/>
</g>
</svg>
