<svg width="784" height="400" viewBox="0 0 784 400" fill="none" xmlns="http://www.w3.org/2000/svg">
<mask id="path-1-inside-1_69_581401" fill="white">
<path d="M0 0H784V400H0V0Z"/>
</mask>
<path d="M0 0H784V400H0V0Z" fill="white"/>
<path d="M0 4H784V-4H0V4ZM784 396H0V404H784V396Z" fill="black" mask="url(#path-1-inside-1_69_581401)"/>
<mask id="path-3-inside-2_69_581401" fill="white">
<path d="M0 99H200.949V299H0V99Z"/>
</mask>
<path d="M200.949 99H204.949V95H200.949V99ZM200.949 299V303H204.949V299H200.949ZM0 103H200.949V95H0V103ZM196.949 99V299H204.949V99H196.949ZM200.949 295H0V303H200.949V295Z" fill="black" mask="url(#path-3-inside-2_69_581401)"/>
<mask id="path-5-inside-3_69_581401" fill="white">
<path d="M391.012 99H589.981V299H391.012V99Z"/>
</mask>
<path d="M589.981 99H593.981V95H589.981V99ZM589.981 299V303H593.981V299H589.981ZM391.012 103H589.981V95H391.012V103ZM585.981 99V299H593.981V99H585.981ZM589.981 295H391.012V303H589.981V295Z" fill="black" mask="url(#path-5-inside-3_69_581401)"/>
<mask id="path-7-inside-4_69_581401" fill="white">
<path d="M196.988 99H395.958V299H196.988V99Z"/>
</mask>
<path d="M395.958 99H399.958V95H395.958V99ZM395.958 299V303H399.958V299H395.958ZM196.988 103H395.958V95H196.988V103ZM391.958 99V299H399.958V99H391.958ZM395.958 295H196.988V303H395.958V295Z" fill="black" mask="url(#path-7-inside-4_69_581401)"/>
<mask id="path-9-inside-5_69_581401" fill="white">
<path d="M586.02 99H783.999V299H586.02V99Z"/>
</mask>
<path d="M586.02 103H783.999V95H586.02V103ZM783.999 295H586.02V303H783.999V295Z" fill="black" mask="url(#path-9-inside-5_69_581401)"/>
</svg>
