<svg width="1031" height="348" viewBox="0 0 1031 348" fill="none" xmlns="http://www.w3.org/2000/svg">
<circle cx="484.494" cy="168.497" r="18" transform="rotate(-105 484.494 168.497)" fill="black" stroke="black" stroke-width="4"/>
<path d="M1031 173L830.998 173" stroke="black" stroke-width="4"/>
<path d="M0 173L199.998 173" stroke="black" stroke-width="4"/>
<path d="M814.998 153.953L814.998 193.941" stroke="black" stroke-width="4"/>
<path d="M215.998 153.953L215.998 193.941" stroke="black" stroke-width="4"/>
<path d="M830.998 132.961L830.998 212.937" stroke="black" stroke-width="4"/>
<path d="M199.998 132.961L199.998 212.937" stroke="black" stroke-width="4"/>
<path d="M634.998 173.945L814.998 173.945" stroke="black" stroke-width="4"/>
<path d="M395.998 173.945L215.998 173.945" stroke="black" stroke-width="4"/>
<path d="M387.233 111.667L406.586 273.827M387.233 111.667L511.634 35.3992M387.233 111.667L484.477 167.96M406.586 273.827L599.601 301.626M406.586 273.827L481.331 172.235L484.477 167.96M599.601 301.626L664.589 77.6556M599.601 301.626L484.477 167.96M599.601 301.626C594.498 264.871 584.066 190.906 583.162 189.078C582.258 187.251 516.995 174.238 484.477 167.96M664.589 77.6556L511.634 35.3992M664.589 77.6556L484.477 167.96M511.634 35.3992L498.056 101.679L484.477 167.96" stroke="black" stroke-width="4"/>
<path d="M593.743 284.561C603.346 281.989 613.216 287.686 615.789 297.285C618.361 306.884 612.663 316.751 603.06 319.323C593.458 321.895 583.588 316.198 581.015 306.6C578.443 297.001 584.14 287.134 593.743 284.561Z" fill="black" stroke="black" stroke-width="4"/>
<path d="M660.599 62.7722C670.202 60.1999 680.071 65.8971 682.644 75.4958C685.217 85.0945 679.519 94.9617 669.916 97.534C660.313 100.106 650.443 94.4092 647.871 84.8104C645.298 75.2117 650.996 65.3445 660.599 62.7722Z" fill="white" stroke="black" stroke-width="4"/>
<path d="M501.956 19.3582C511.559 16.7859 521.429 22.483 524.001 32.0817C526.574 41.6804 520.876 51.5476 511.273 54.1199C501.671 56.6922 491.801 50.9951 489.228 41.3964C486.655 31.7977 492.353 21.9305 501.956 19.3582Z" fill="black" stroke="black" stroke-width="4"/>
<path d="M579.121 179.996C589.063 179.996 597.121 188.053 597.121 197.99C597.121 207.928 589.063 215.984 579.121 215.984C569.179 215.984 561.121 207.928 561.121 197.99C561.121 188.053 569.179 179.996 579.121 179.996Z" fill="white" stroke="black" stroke-width="4"/>
<path d="M402.138 257.233C411.741 254.661 421.61 260.358 424.183 269.957C426.756 279.555 421.058 289.423 411.455 291.995C401.852 294.567 391.983 288.87 389.41 279.271C386.837 269.673 392.535 259.805 402.138 257.233Z" fill="black" stroke="black" stroke-width="4"/>
<path d="M379.011 93.6863C388.614 91.114 398.483 96.8111 401.056 106.41C403.629 116.009 397.931 125.876 388.328 128.448C378.725 131.02 368.856 125.323 366.283 115.725C363.71 106.126 369.408 96.2586 379.011 93.6863Z" fill="white" stroke="black" stroke-width="4"/>
</svg>
